<mxfile host="app.diagrams.net" agent="Mozilla/5.0 (Windows NT 10.0; Win64; x64) AppleWebKit/537.36 (KHTML, like Gecko) Chrome/127.0.0.0 Safari/537.36" version="24.7.6">
  <diagram name="Overall Architecture" id="90a13364-a465-7bf4-72fc-28e22215d7a0">
    <mxGraphModel dx="4555" dy="1393" grid="1" gridSize="10" guides="1" tooltips="1" connect="1" arrows="1" fold="1" page="0" pageScale="1.5" pageWidth="1169" pageHeight="826" background="none" math="0" shadow="0">
      <root>
        <mxCell id="0" style=";html=1;" />
        <mxCell id="1" style=";html=1;" parent="0" />
        <mxCell id="Kzv_2CBi_nO8nXVbEFFe-2" value="" style="rounded=1;whiteSpace=wrap;html=1;labelBackgroundColor=none;" parent="1" vertex="1">
          <mxGeometry x="-650" y="200" width="350" height="1170" as="geometry" />
        </mxCell>
        <mxCell id="wpAk8EDqyKbmDjkC3AnI-3" value="&lt;font style=&quot;font-size: 24px;&quot;&gt;OpenWeather&lt;/font&gt;&lt;div&gt;&lt;font style=&quot;font-size: 12px;&quot;&gt;&lt;br&gt;&lt;/font&gt;&lt;/div&gt;&lt;div&gt;&lt;font style=&quot;&quot;&gt;https://openweathermap.org/&lt;br&gt;&lt;/font&gt;&lt;/div&gt;" style="shape=cylinder3;whiteSpace=wrap;html=1;boundedLbl=1;backgroundOutline=1;size=15;fontSize=12;labelBackgroundColor=none;" vertex="1" parent="1">
          <mxGeometry x="-565" y="240" width="205" height="130" as="geometry" />
        </mxCell>
        <mxCell id="wpAk8EDqyKbmDjkC3AnI-4" value="&lt;font style=&quot;font-size: 24px;&quot;&gt;Banque mondiale&lt;/font&gt;&lt;div&gt;&lt;font style=&quot;font-size: 12px;&quot;&gt;&lt;br&gt;&lt;/font&gt;&lt;/div&gt;&lt;div&gt;&lt;font style=&quot;&quot;&gt;&lt;div&gt;https://www.banquemondiale.org/&lt;/div&gt;&lt;div&gt;&lt;br&gt;&lt;/div&gt;&lt;/font&gt;&lt;/div&gt;" style="shape=cylinder3;whiteSpace=wrap;html=1;boundedLbl=1;backgroundOutline=1;size=15;fontSize=12;labelBackgroundColor=none;" vertex="1" parent="1">
          <mxGeometry x="-570" y="410" width="200" height="130" as="geometry" />
        </mxCell>
        <mxCell id="wpAk8EDqyKbmDjkC3AnI-5" value="&lt;font style=&quot;font-size: 24px;&quot;&gt;FEICOM&lt;/font&gt;&lt;div&gt;&lt;font style=&quot;font-size: 12px;&quot;&gt;&lt;br&gt;&lt;/font&gt;&lt;/div&gt;&lt;div&gt;&lt;font style=&quot;&quot;&gt;https://feicom.cm/&lt;br&gt;&lt;/font&gt;&lt;/div&gt;" style="shape=cylinder3;whiteSpace=wrap;html=1;boundedLbl=1;backgroundOutline=1;size=15;fontSize=12;labelBackgroundColor=none;" vertex="1" parent="1">
          <mxGeometry x="-577.5" y="580" width="205" height="130" as="geometry" />
        </mxCell>
        <mxCell id="wpAk8EDqyKbmDjkC3AnI-6" value="&lt;font style=&quot;font-size: 24px;&quot;&gt;United Nations&lt;/font&gt;&lt;div&gt;&lt;font style=&quot;font-size: 12px;&quot;&gt;&lt;br&gt;&lt;/font&gt;&lt;/div&gt;&lt;div&gt;&lt;font style=&quot;&quot;&gt;&lt;div&gt;https://www.un.org/&lt;/div&gt;&lt;div&gt;&lt;br&gt;&lt;/div&gt;&lt;/font&gt;&lt;/div&gt;" style="shape=cylinder3;whiteSpace=wrap;html=1;boundedLbl=1;backgroundOutline=1;size=15;fontSize=12;labelBackgroundColor=none;" vertex="1" parent="1">
          <mxGeometry x="-577.5" y="760" width="205" height="130" as="geometry" />
        </mxCell>
        <mxCell id="wpAk8EDqyKbmDjkC3AnI-7" value="&lt;span style=&quot;font-size: 24px;&quot;&gt;INS&lt;/span&gt;&lt;div&gt;&lt;font style=&quot;font-size: 12px;&quot;&gt;(Institut National de la Statistique)&lt;/font&gt;&lt;br&gt;&lt;div&gt;&lt;font style=&quot;font-size: 12px;&quot;&gt;&lt;br&gt;&lt;/font&gt;&lt;/div&gt;&lt;div&gt;&lt;font style=&quot;&quot;&gt;&lt;div&gt;https://www.un.org/&lt;/div&gt;&lt;div&gt;&lt;br&gt;&lt;/div&gt;&lt;/font&gt;&lt;/div&gt;&lt;/div&gt;" style="shape=cylinder3;whiteSpace=wrap;html=1;boundedLbl=1;backgroundOutline=1;size=15;fontSize=12;labelBackgroundColor=none;" vertex="1" parent="1">
          <mxGeometry x="-577.5" y="923.75" width="205" height="130" as="geometry" />
        </mxCell>
        <mxCell id="wpAk8EDqyKbmDjkC3AnI-8" value="&lt;div&gt;&lt;div&gt;&lt;font style=&quot;&quot;&gt;&lt;div style=&quot;font-size: 24px;&quot;&gt;Other data sources&lt;/div&gt;&lt;/font&gt;&lt;/div&gt;&lt;/div&gt;" style="shape=cylinder3;whiteSpace=wrap;html=1;boundedLbl=1;backgroundOutline=1;size=15;fontSize=12;labelBackgroundColor=none;" vertex="1" parent="1">
          <mxGeometry x="-577.5" y="1100" width="205" height="130" as="geometry" />
        </mxCell>
        <mxCell id="wpAk8EDqyKbmDjkC3AnI-47" value="" style="rounded=1;whiteSpace=wrap;html=1;shadow=1;fontSize=18;verticalAlign=top;labelBackgroundColor=none;" vertex="1" parent="1">
          <mxGeometry x="-187.25" y="380" width="950" height="240" as="geometry" />
        </mxCell>
        <mxCell id="wpAk8EDqyKbmDjkC3AnI-48" value="" style="rounded=1;whiteSpace=wrap;html=1;shadow=1;fontSize=18;verticalAlign=top;labelBackgroundColor=none;" vertex="1" parent="1">
          <mxGeometry x="-187.25" y="380" width="950" height="240" as="geometry" />
        </mxCell>
        <mxCell id="wpAk8EDqyKbmDjkC3AnI-49" value="Data Aquisition Modul" style="rounded=0;whiteSpace=wrap;html=1;shadow=1;fontSize=18;labelBackgroundColor=none;" vertex="1" parent="1">
          <mxGeometry x="-149.5" y="400" width="155" height="80" as="geometry" />
        </mxCell>
        <mxCell id="wpAk8EDqyKbmDjkC3AnI-50" value="Data Aquisition Modul" style="rounded=0;whiteSpace=wrap;html=1;shadow=1;fontSize=18;labelBackgroundColor=none;" vertex="1" parent="1">
          <mxGeometry x="-149.5" y="500" width="155" height="80" as="geometry" />
        </mxCell>
        <mxCell id="wpAk8EDqyKbmDjkC3AnI-51" value="Data Transformation Modul" style="rounded=0;whiteSpace=wrap;html=1;shadow=1;fontSize=18;labelBackgroundColor=none;" vertex="1" parent="1">
          <mxGeometry x="30.5" y="400" width="155" height="80" as="geometry" />
        </mxCell>
        <mxCell id="wpAk8EDqyKbmDjkC3AnI-52" value="Data Transformation Modul" style="rounded=0;whiteSpace=wrap;html=1;shadow=1;fontSize=18;labelBackgroundColor=none;" vertex="1" parent="1">
          <mxGeometry x="30.5" y="500" width="155" height="80" as="geometry" />
        </mxCell>
        <mxCell id="wpAk8EDqyKbmDjkC3AnI-53" value="Data Cleaning Modul" style="rounded=0;whiteSpace=wrap;html=1;shadow=1;fontSize=18;labelBackgroundColor=none;" vertex="1" parent="1">
          <mxGeometry x="210.5" y="400" width="155" height="80" as="geometry" />
        </mxCell>
        <mxCell id="wpAk8EDqyKbmDjkC3AnI-54" value="Data Cleaning Modul" style="rounded=0;whiteSpace=wrap;html=1;shadow=1;fontSize=18;labelBackgroundColor=none;" vertex="1" parent="1">
          <mxGeometry x="210.5" y="500" width="155" height="80" as="geometry" />
        </mxCell>
        <mxCell id="wpAk8EDqyKbmDjkC3AnI-55" value="......." style="rounded=0;whiteSpace=wrap;html=1;shadow=1;fontSize=18;labelBackgroundColor=none;" vertex="1" parent="1">
          <mxGeometry x="390.5" y="402.5" width="155" height="177.5" as="geometry" />
        </mxCell>
        <mxCell id="wpAk8EDqyKbmDjkC3AnI-56" value="Data Upload&lt;br&gt;Modul" style="rounded=0;whiteSpace=wrap;html=1;shadow=1;fontSize=18;labelBackgroundColor=none;" vertex="1" parent="1">
          <mxGeometry x="560.5" y="400" width="155" height="177.5" as="geometry" />
        </mxCell>
        <mxCell id="wpAk8EDqyKbmDjkC3AnI-78" value="Target Architecture" style="text;strokeColor=none;fillColor=none;align=left;verticalAlign=middle;spacingLeft=4;spacingRight=4;overflow=hidden;points=[[0,0.5],[1,0.5]];portConstraint=eastwest;rotatable=0;shadow=1;fontSize=32;labelBackgroundColor=none;" vertex="1" parent="1">
          <mxGeometry x="140" y="140" width="340" height="60" as="geometry" />
        </mxCell>
        <mxCell id="wpAk8EDqyKbmDjkC3AnI-79" value="&lt;br&gt;Analytics Data Layer" style="rounded=0;whiteSpace=wrap;html=1;fontSize=18;align=center;verticalAlign=top;labelBackgroundColor=none;" vertex="1" parent="1">
          <mxGeometry x="390.5" y="780" width="370" height="230" as="geometry" />
        </mxCell>
        <mxCell id="wpAk8EDqyKbmDjkC3AnI-80" value="&lt;font style=&quot;font-size: 14px;&quot;&gt;&lt;b&gt;AI Module&lt;/b&gt;&lt;/font&gt;" style="rounded=0;whiteSpace=wrap;html=1;labelBackgroundColor=none;" vertex="1" parent="1">
          <mxGeometry x="420.5" y="870" width="120" height="100" as="geometry" />
        </mxCell>
        <mxCell id="wpAk8EDqyKbmDjkC3AnI-81" value="&lt;font style=&quot;font-size: 14px;&quot;&gt;Model Management&lt;br&gt;&lt;/font&gt;" style="rounded=0;whiteSpace=wrap;html=1;labelBackgroundColor=none;" vertex="1" parent="1">
          <mxGeometry x="600.5" y="870" width="121.62" height="95" as="geometry" />
        </mxCell>
        <mxCell id="wpAk8EDqyKbmDjkC3AnI-82" value="" style="endArrow=classic;startArrow=classic;html=1;rounded=0;fontSize=12;entryX=0;entryY=0.5;entryDx=0;entryDy=0;exitX=1;exitY=0.5;exitDx=0;exitDy=0;labelBackgroundColor=none;fontColor=default;" edge="1" parent="1">
          <mxGeometry width="50" height="50" relative="1" as="geometry">
            <mxPoint x="540.5" y="919.09" as="sourcePoint" />
            <mxPoint x="603.5" y="919.09" as="targetPoint" />
          </mxGeometry>
        </mxCell>
        <mxCell id="wpAk8EDqyKbmDjkC3AnI-83" value="" style="endArrow=classic;html=1;rounded=0;entryX=0.129;entryY=0.011;entryDx=0;entryDy=0;entryPerimeter=0;" edge="1" parent="1" target="wpAk8EDqyKbmDjkC3AnI-48">
          <mxGeometry width="50" height="50" relative="1" as="geometry">
            <mxPoint x="-300" y="280" as="sourcePoint" />
            <mxPoint x="-50" y="280" as="targetPoint" />
            <Array as="points">
              <mxPoint x="-65" y="280" />
            </Array>
          </mxGeometry>
        </mxCell>
        <mxCell id="wpAk8EDqyKbmDjkC3AnI-94" value="" style="endArrow=classic;html=1;rounded=0;fontSize=18;entryX=0.5;entryY=0;entryDx=0;entryDy=0;exitX=0.123;exitY=1;exitDx=0;exitDy=0;exitPerimeter=0;" edge="1" parent="1" source="wpAk8EDqyKbmDjkC3AnI-48">
          <mxGeometry width="50" height="50" relative="1" as="geometry">
            <mxPoint x="-60" y="630" as="sourcePoint" />
            <mxPoint x="-72" y="950" as="targetPoint" />
          </mxGeometry>
        </mxCell>
        <mxCell id="wpAk8EDqyKbmDjkC3AnI-96" value="" style="shape=image;html=1;verticalAlign=top;verticalLabelPosition=bottom;labelBackgroundColor=#ffffff;imageAspect=0;aspect=fixed;image=https://cdn3.iconfinder.com/data/icons/document-icons-2/30/647702-excel-128.png" vertex="1" parent="1">
          <mxGeometry x="-577.5" y="1270" width="40" height="40" as="geometry" />
        </mxCell>
        <mxCell id="wpAk8EDqyKbmDjkC3AnI-97" value="" style="dashed=0;outlineConnect=0;html=1;align=center;labelPosition=center;verticalLabelPosition=bottom;verticalAlign=top;shape=mxgraph.webicons.json;gradientColor=#DFDEDE" vertex="1" parent="1">
          <mxGeometry x="-510" y="1257.6" width="62" height="52.4" as="geometry" />
        </mxCell>
        <mxCell id="wpAk8EDqyKbmDjkC3AnI-98" value="" style="shape=image;html=1;verticalAlign=top;verticalLabelPosition=bottom;labelBackgroundColor=#ffffff;imageAspect=0;aspect=fixed;image=https://cdn1.iconfinder.com/data/icons/bootstrap-vol-3/16/filetype-csv-128.png" vertex="1" parent="1">
          <mxGeometry x="-420" y="1268.8" width="42.4" height="42.4" as="geometry" />
        </mxCell>
        <mxCell id="wpAk8EDqyKbmDjkC3AnI-105" value="&lt;font style=&quot;font-size: 18px;&quot;&gt;&lt;b&gt;API&lt;/b&gt;&lt;/font&gt;" style="text;html=1;align=center;verticalAlign=middle;whiteSpace=wrap;rounded=0;" vertex="1" parent="1">
          <mxGeometry x="-230" y="240" width="60" height="30" as="geometry" />
        </mxCell>
        <mxCell id="wpAk8EDqyKbmDjkC3AnI-107" value="Communication with others systems" style="rounded=0;whiteSpace=wrap;html=1;fontSize=18;align=center;verticalAlign=top;labelBackgroundColor=none;" vertex="1" parent="1">
          <mxGeometry x="390.5" y="1088.75" width="370" height="230" as="geometry" />
        </mxCell>
        <mxCell id="wpAk8EDqyKbmDjkC3AnI-108" value="&lt;font style=&quot;font-size: 14px;&quot;&gt;ODOO system&lt;/font&gt;" style="rounded=0;whiteSpace=wrap;html=1;labelBackgroundColor=none;" vertex="1" parent="1">
          <mxGeometry x="420.5" y="1120" width="99.5" height="100" as="geometry" />
        </mxCell>
        <mxCell id="wpAk8EDqyKbmDjkC3AnI-109" value="&lt;font style=&quot;font-size: 14px;&quot;&gt;SAP&lt;/font&gt;" style="rounded=0;whiteSpace=wrap;html=1;labelBackgroundColor=none;" vertex="1" parent="1">
          <mxGeometry x="640" y="1120" width="100" height="100" as="geometry" />
        </mxCell>
        <mxCell id="wpAk8EDqyKbmDjkC3AnI-111" value="" style="edgeStyle=elbowEdgeStyle;elbow=horizontal;endArrow=classic;html=1;curved=0;rounded=0;endSize=8;startSize=8;exitX=1;exitY=0.355;exitDx=0;exitDy=0;exitPerimeter=0;entryX=1;entryY=0.355;entryDx=0;entryDy=0;entryPerimeter=0;" edge="1" parent="1" target="wpAk8EDqyKbmDjkC3AnI-116">
          <mxGeometry width="50" height="50" relative="1" as="geometry">
            <mxPoint x="390" y="1190" as="sourcePoint" />
            <mxPoint x="250" y="1080" as="targetPoint" />
          </mxGeometry>
        </mxCell>
        <mxCell id="wpAk8EDqyKbmDjkC3AnI-115" value="&lt;div&gt;&lt;span style=&quot;font-size: 18px; background-color: initial;&quot;&gt;DataWarehouse&lt;/span&gt;&lt;br&gt;&lt;/div&gt;" style="shape=datastore;whiteSpace=wrap;html=1;fontSize=14;labelBackgroundColor=none;" vertex="1" parent="1">
          <mxGeometry x="1030" y="1710" width="234.5" height="240" as="geometry" />
        </mxCell>
        <mxCell id="wpAk8EDqyKbmDjkC3AnI-116" value="" style="whiteSpace=wrap;html=1;aspect=fixed;" vertex="1" parent="1">
          <mxGeometry x="-160" y="948.75" width="370" height="370" as="geometry" />
        </mxCell>
        <mxCell id="wpAk8EDqyKbmDjkC3AnI-117" value="" style="image;sketch=0;aspect=fixed;html=1;points=[];align=center;fontSize=12;image=img/lib/mscae/Data_Lake_Storage.svg;" vertex="1" parent="1">
          <mxGeometry x="-126.35" y="1080" width="130.44" height="120" as="geometry" />
        </mxCell>
        <mxCell id="wpAk8EDqyKbmDjkC3AnI-118" value="&lt;b&gt;&lt;font style=&quot;font-size: 18px;&quot;&gt;Data&amp;nbsp; storage&lt;/font&gt;&lt;/b&gt;" style="text;html=1;align=center;verticalAlign=middle;whiteSpace=wrap;rounded=0;" vertex="1" parent="1">
          <mxGeometry x="-54.559999999999995" y="965" width="159.12" height="30" as="geometry" />
        </mxCell>
        <mxCell id="wpAk8EDqyKbmDjkC3AnI-120" value="&lt;div&gt;&lt;span style=&quot;font-size: 18px; background-color: initial;&quot;&gt;Data marts&lt;/span&gt;&lt;br&gt;&lt;/div&gt;" style="shape=datastore;whiteSpace=wrap;html=1;fontSize=14;labelBackgroundColor=none;" vertex="1" parent="1">
          <mxGeometry x="55.17999999999995" y="1020" width="110" height="120" as="geometry" />
        </mxCell>
        <mxCell id="wpAk8EDqyKbmDjkC3AnI-121" value="&lt;div&gt;&lt;span style=&quot;font-size: 18px; background-color: initial;&quot;&gt;Data marts&lt;/span&gt;&lt;br&gt;&lt;/div&gt;" style="shape=datastore;whiteSpace=wrap;html=1;fontSize=14;labelBackgroundColor=none;" vertex="1" parent="1">
          <mxGeometry x="52.99999999999995" y="1163.75" width="110" height="120" as="geometry" />
        </mxCell>
        <mxCell id="wpAk8EDqyKbmDjkC3AnI-124" value="&lt;b&gt;&lt;font style=&quot;font-size: 14px;&quot;&gt;API&lt;/font&gt;&lt;/b&gt;" style="text;html=1;align=center;verticalAlign=middle;whiteSpace=wrap;rounded=0;" vertex="1" parent="1">
          <mxGeometry x="305.5" y="1155" width="60" height="30" as="geometry" />
        </mxCell>
        <mxCell id="wpAk8EDqyKbmDjkC3AnI-126" value="&lt;b&gt;&lt;font style=&quot;font-size: 14px;&quot;&gt;API&lt;/font&gt;&lt;/b&gt;" style="text;html=1;align=center;verticalAlign=middle;whiteSpace=wrap;rounded=0;" vertex="1" parent="1">
          <mxGeometry x="305.5" y="850" width="60" height="30" as="geometry" />
        </mxCell>
        <mxCell id="wpAk8EDqyKbmDjkC3AnI-133" value="" style="edgeStyle=elbowEdgeStyle;elbow=horizontal;endArrow=classic;html=1;curved=0;rounded=0;endSize=8;startSize=8;exitX=1;exitY=0.355;exitDx=0;exitDy=0;exitPerimeter=0;entryX=1;entryY=0.355;entryDx=0;entryDy=0;entryPerimeter=0;" edge="1" parent="1">
          <mxGeometry width="50" height="50" relative="1" as="geometry">
            <mxPoint x="210.5" y="1078.75" as="sourcePoint" />
            <mxPoint x="390.5" y="1188.75" as="targetPoint" />
          </mxGeometry>
        </mxCell>
        <mxCell id="wpAk8EDqyKbmDjkC3AnI-134" value="" style="edgeStyle=elbowEdgeStyle;elbow=horizontal;endArrow=classic;html=1;curved=0;rounded=0;endSize=8;startSize=8;exitX=1;exitY=0.355;exitDx=0;exitDy=0;exitPerimeter=0;" edge="1" parent="1">
          <mxGeometry width="50" height="50" relative="1" as="geometry">
            <mxPoint x="390" y="880" as="sourcePoint" />
            <mxPoint x="210" y="1060" as="targetPoint" />
          </mxGeometry>
        </mxCell>
        <mxCell id="wpAk8EDqyKbmDjkC3AnI-135" value="" style="edgeStyle=elbowEdgeStyle;elbow=horizontal;endArrow=classic;html=1;curved=0;rounded=0;endSize=8;startSize=8;exitX=1;exitY=0.355;exitDx=0;exitDy=0;exitPerimeter=0;" edge="1" parent="1">
          <mxGeometry width="50" height="50" relative="1" as="geometry">
            <mxPoint x="210" y="1060" as="sourcePoint" />
            <mxPoint x="390" y="880" as="targetPoint" />
          </mxGeometry>
        </mxCell>
        <mxCell id="wpAk8EDqyKbmDjkC3AnI-138" value="&lt;font style=&quot;font-size: 14px;&quot;&gt;.....&lt;/font&gt;" style="rounded=0;whiteSpace=wrap;html=1;labelBackgroundColor=none;" vertex="1" parent="1">
          <mxGeometry x="530" y="1120" width="99.5" height="100" as="geometry" />
        </mxCell>
        <mxCell id="wpAk8EDqyKbmDjkC3AnI-140" value="" style="image;aspect=fixed;html=1;points=[];align=center;fontSize=12;image=img/lib/azure2/management_governance/Managed_Desktop.svg;" vertex="1" parent="1">
          <mxGeometry x="1017.25" y="750" width="365.83" height="340" as="geometry" />
        </mxCell>
        <mxCell id="wpAk8EDqyKbmDjkC3AnI-143" value="&lt;font style=&quot;font-size: 14px;&quot;&gt;&lt;b&gt;PROJECT FIELD MANAGER&lt;/b&gt;&lt;/font&gt;" style="rounded=1;whiteSpace=wrap;html=1;" vertex="1" parent="1">
          <mxGeometry x="1017.25" y="200" width="260" height="120" as="geometry" />
        </mxCell>
        <mxCell id="wpAk8EDqyKbmDjkC3AnI-146" value="" style="shape=image;verticalLabelPosition=bottom;labelBackgroundColor=default;verticalAlign=top;aspect=fixed;imageAspect=0;image=data:image/png,iVBORw0KGgoAAAANSUhEUgAAA/IAAAKRCAYAAAD3dZJ4AAAAAXNSR0IArs4c6QAAAARnQU1BAACxjwv8YQUAAAAJcEhZcwAAEnQAABJ0Ad5mH3gAAP+lSURBVHhe7L0JoGVHVe6/uzvpdMZOSAIE0DCH6TGE2SdhxoCMCoIoaOCB+P4CKvpwBpx9MgmoCCIGFURAFBRQgozK/IAIhCEMIRMZSNLpTnru/te3aq2qr+qcfe+5U6fv7e93+vReu2pNNex9Tp29z7nrNj7u9P3DGuXkzScMF519ju8JIYQ4VDjvvPOG5z73ucN//dd/Ddu3b/fStcW6deuGE044YVh/+GHDcOIJw/Zdhw+7r9413OTk2wx7jrjRsPO7/zms33f9cP1124brr7/erdYmGzduHO50pzsNb3jDG4bTTz/dS4UQQoi1w/79+4dzzz13eM1rXjO89a1vHdZ7uRBCCLFmWL9+vS101zq7d+8ehn37h31XXTPs37Zl2L9n+7Dlqm8Puy7/dFrE7xj27d077E3PtQ7GGs/DDjvMS4QQQoi1BV7nTjvttOGFL3zh8BM/8RNayAshhFibHAoL+R07dgx79+wZ1u/ZO2zavX04ev31w4Y9Vwzrdl897N+3Oy30d+XF/iHAoTDeQgghDm02bdo03OpWtxpe9KIXaSEvhBBCrEZwi92etIjHbfPYrhv2D4cdtn7YkF7Z9+3bO+zatWu47rrrkrzPLYQQQgix2sFdhyeddJIW8kIIIcRqBYt5LNi3bdtmi/br0xPb2NciXgghhFhbxFfJtJAXQgghVjFxZR632ePqPH7cD4t7LeKFEEKItYsW8kIIIYQQQgghxCpCC3khhBBCCCGEEGIVoYW8EEIIIYQQQgixili38XGn73e5AV+iv8MtbjXs3XfD/v3ZDes3DOdd+E3fWxgnbz5huOjsc3xPCCHEocJXv/rV4bnPfe7wsY99zL4zLtY2RxxxxHDnO995eOMb3zjc9a539VIhhBBi7TJ1IX+v2915ePuvvmw45UYne8kNy8e/8oXhJ1/6q8NFV17mJbOhhbwQQhyaaCF/aKGFvBBCiEONiVvrcSX+YFrEg/vf4W7Dn/7sr/ueEEIIIYQQQghx6DKxkMft9AfTIj54yN3uMxy58QjfE0IIIcbBh9J4ikMHjPf69frpHyGEEIcGE694N/R34sfYeNjhw87du31PCCGEGOeoo44aNm3apMX8IQLGeePGjTbuQgghxKGAPrpeBvanhxBCiIOHY445Zrj1rW89HHbYYV4i1jK4En/7299+OOGEE7xECCEODbQOOfjZt3+fS8vLxI/d3f7mpw7//af/6HsHF0c+4d4L6oiV/LG7b1196fCyj75leMcXPzRcs33bQXsQ3eSYGw0Pv929h+fe/4nD3U65rZfOxs6dO4frr79+2L1797B/v04Sc8FXg7BdCOjf6667bti1a9ch2c/oO/xQFfru8MMP91IhlsaOHTuGj3zkI8MznvGM4bLLLhv27NnjNWKtgQ9rTjzxxOEv/uIvhkc84hHDkUce6TVCCLE2+a8L/nt4xcfeOpzzjc8M23fv9FJxsHLY+g22Jnvq3R8+/Nz9f9Tk5UBX5BfBm/7fe4d7vOqnh7/89LuHq7dvPag/Cbts21XD337u34YHvu7/G17z8Xd46fxce+21wzXXXHPILi4XCvoIH3xcffXVw9atW710frZt2zZcddVVZnuo9jPajUUX+gH9IcRygA+HfuAHfmB47GMfa7JusV+74MPTRz7ykcMDH/hA+zqFEEKsZX7lfX8+POQvnze8+yv/qUX8KmHPvr3DxddeMfzxR9483OdPnzX829c/6TVLQwv5BfLu8/5z+Jl3/vGwY88uL1kdIN9ffu+f2ocQ87Flyxb9uaYlgLsYcIV9PrBonUXvUAL9oT4RywEW7ljU/Z//83+GJz/5ycPRRx+t2+zXGBhPfIXiMY95zPDLv/zLNsb6wEYIsZZ58TlvGF75n//ge2I1gousT3vrbw+fvfirXrJ4dGv9Ati1d/fwP1759OGCa77rJauPGx9zwvD55/31cKMjj/OSFlyBx1VlsXRwq+fYwmHv3r3D9773Pd3tMAW8Eb/RjW6kRZdYMji+cEv9JZdcMvzpn/7p8E//9E925we+zrJv38p8X02sPDhH4Gs4mzdvHs4888zhec973nCb29zGzhlayAsh1ipfueKC4Z6vfsawd4W+by0OLA+81T2Gf3vGy31vcSz7Qv4L3/rqcM11W4cH3uVeZf9dn/jQsOX6bcPTHvLo4W63Os3KF8MNvZA/5/zPDI8++5d9b/Xyhh/91eEn7v4I32vB7fS4zVssHVwdwtWiaehq/NzM1XdCLAQs5rFox+L93HPPHT760Y8O559/vh2D+iBt9YGFOs4P+CHDH/zBHxzucY972K31+LE7LeKFEGuZX37Pnw6v/vjbfU+sBb7yi28ebnnCKb63cJZ1If+uT35o+N2/f50t3plTb3yz4WkPfvTw3Mc+1fa3pIU+yhbKDb2Q/9X3vXZ4xX++1fdWL1jEYzE/jSuuuEJXqpYJXDHCleVpxFVBMZ25+k6IxYIPKXHc6Yr86iauyGMBj6cW8EKIQ4F7veaZwxcv+6bvibXAG5/468OP3+1hvrdwVuTWelyRj8X8LdOCPRbtH/7iZ4ZffsPLrf5rr3u3lS2EG3ohf9bbf394yxfe73urlwfd+vThfWe9zPdaLr/8cl2lWiZwhejkk0/2vRZ9YDI3c/WdEEIIIcShxs3/4PHD967f4ntiLfDKRz9/eM59H+97C2fJP3b3pv9493D7Zz9mOOLx9yzPZ73qxcMFl19q9d++/BLTedIfvGB4xG/8jJW97Vdf2iz2hRBCCCGEEEIIMRtLWshjIf7Lb3jZ8MC73DMtzl82/Pvv/sXw0me+wOqwmMfCHc9Y2L/+eS8ePvWKN9sV+lz+EtMVQgghhBBCCCHEbCxpIY+r6pf93Ydsgf7Y+z7IfsgOWyzqd/7TZ23RjmfIT3/IY+z2+vv8wlPTwv6SZPci8yGEEEIIIYQQQojZWNJCHr9MjwU5rrjf5CceZM+4zR630n/ki5+1hToW77i9/uG/8Wy7En+3W91++Kp/Rz5ut18rbN509PCLD/zx4f63/B9esnb4q7/6q+b59a9/3WtmB3b/8A+L+/uXsP3IRz7ie5VLL73U6rBdC7znPe8pfYzn5z73Oa+ZHfQTbBcD4uPZs3Xr1nn7GXXTbIUQQgghxIHjbqfc1p6zctzGo4Zn3O2Rw8/f54m2vcWx8/9W0RPv8EB73lAgV37e6aRTvWZ2or1LAXHhh/sM8luf8Fsz9eNiWdJC/tXvfrMt3D+cFuy/8ZRn2631eOIK/fFHH2u/YB+31+MWfPzwHepxxR635a+1RTx4xGn3G/7X/R43vOSH/peXrB14EYc/3YS/3TttYT0Xt73tbYfb3e52vjed5z73uVMXoSj7gz/4A9+roBzP73539f59f+a9731v08+/9mu/NrzqVa+y/Vk55ZRTrK/nIvqtB/F///d/f2LB/ra3vW3efkYd7IUQQgghxA3HHz/y/xsec8cf9L25wWLzYz/16uHOJ9/S9rF9z1P+cM5FKBb+97/FnYZ//+anveTA8wtp8fx9x+Uckc/fp4XzQj9Y+PIV3x6+fOUFvjcdLMixUB8jPgx44h1r7Iu2XjF8/OIv23alWPRCHov4X0qL89948rPtF+if+5in2kIdnHrjU2xhj9vucVs9nnELPm6//523/IUt4vFdeSzs1xLPut9jh5d/+M3DLY6/yXCLzTf20mF40t0eOtz5prdOi/zHTlyxx1X8KIdegP2oC1+oRznKUAewz7H6/eXkUY961PCMZzzDFvFnnXWWLe6w4MMCj7e4eosr79jnK7THHnusS/UKL57xgQB0YY+r0GNXotkffPQLR9SH3/CBLcqxRTmIfFkPYB91Ae9P870ScD//6q/+amkj4kbf9jmhDHUAHwDgCaaNBXKPZ5T1TOtXHr+x/mMwrjG20An9sZhCCCGEEOLA8lsPePrw/m99ZnjBOX8+vPJTb7ct9rE4vd/N72SL47jqDLDAf8bdHzVceO0Vw5188Q/4qj4vqLEfdfzhAGTW433YIGb4G7va/rbzPmw5//bH3jT89kffNDwpLabhBza8Hcvt2l3Xu5TzRz2ej7jVvawMurc47uTh/qkf0Bc9sPmhW9/bckDsA8miF/LnfutrtjD/zR//Gfv78fjeO67OxxV4yCjDoh231WOLW/BPS+W/+9bX2QcA+N48bs3HhwJrASyesYB/2+c/MPzbVz+RFvWP85phePLdHzq84Sm/bvK1O68b3vDkXx/OPO1+thh/20/9/nDcEUcPX/7ut+yDACzEwQse9NTh5Y//easDr0gy/AB8EAAfAHrfd8JNTAb9/kqDq7BYnOEqboAF6Oc///nhmGOOsQXh7/3e71l5LB6xuPyxH/sxK8OV4ze+8Y0z3XL/yEc+0j48COAbZUEsauHzpje9qV3dx4KTF5EAZVgoY7ELPVzxjjps+apz7I/5PpAgPu5KiEU6+vVjH/uY9TP6G/0O0N5YiKMM+ve4xz1Md5ar+30/YzHOV/nxtQq0H/2AMtw1gJgM+gvjirjoJ+iEPtqhxbwQQgghxPJx6vE3Hc641d3tuXnTMWn/JmUfdWNgIYoFMYPFPBbHWLz+wn3z4hZgUfzWH/mt4aK0iMfV7N/6wafbohcLWlwRx7rlExd/uSyaAa6cv/RhP1vWNAEWyLz45X3YvOgBP5XWTdfbIt58pxizAD+wf1mKGcAebcE6DDGiDmV4wjfuSgBoF3JHG+YDV+HR3r/6Qn7fzYt95LCSLHoh/3OP+XH7YTt8Fx7PzUcfYwv7uL0et8/ju/B/88F/sQU8Fu9fSIv/n3v0j9sVfHwAELfXX7NtbfzgHRbuWMBv2XHd8G/nfWL4oTvez2syL/vgm4e//MS77Pmi971+eNI9Hjrc/9R8Zf7lH37L8L5k+4y//70Bt+YHb/vcB6wO/FBa+D/zrb9n+89Mev/17f+28gNJLGaxgMQi7UlPepLXDLZQw+I4vjuPhT0W69hiAcmLXiwyscCD/hlnnGGLTZThSjQWjKjDs+cBD3iAfQgQMbD4jw8EAGx//dd/3XzCF27j50X5q1/9aouJWD/4gz9ocaGH3HnhOo35fC8n0c9YdGPhzv185plnlg8h0K+4Yh/9DHhBHTL00Z/QRZ9F/+KJtvTEoj0W2+gb/sAE/Rf9gC0W9dx/sMM+8o+r+NAJfcRdqb4TQgghhDgU+eNH/X/Dvz/jFfbE9+Ofdo8zyz7qlsKz3/Myu+qMheu/fePTw9u/8uHh37/1GSt75t0fVRaw2MfCFvq8EH67XzlfyK3mb/j8eywOfG0+4ujm6n+ARTkW3ViY484C/kAi7jDAwh7ADxbcz/rXlw4Pv9W9mqv8j7j1vS1v6KNd+BADV+MRHx9a4DZ51PdAJ2KiXw7kVflFL+TjT8jhB+2waH//777OfpU+bq/Hwv6Pn/kCW7TH7fW4Ao8F/Oajj7Ur9Lhif8Zd7jk897FPNZvVDhbuF159mV0t37LzOvvUCVfdg4u2XO5Slm1C3vRWdhX/7T/1+/Z85eN/fvjyd7/pWoMt7gGusKMcHxIEscC/IcBCD4s0LMoClIHzzz/frhAHWMhhUcgLNyxCv/a1r9niDk8sWtlmLrAYxGIUV4nhm79zDx/whUU6/Mat5iDyC3gfPlh3GnP5XikQE/2MhXgQfY4+RL/y7e7Q76+Mo9+jn/GBBRbRs4CFOxbs+AAGY8oLfnyQgv4Pv9DD1XYAffQTiNyQFz50gM+zzjrL/AkhhBBCiOXjx978m8Om33ywPT/yrc8Pv/vBs8s+6sbAumUusJBlfug297bvjeOJRfyXrvi2LbKxYI5yLKzPo++eY3G8UPi29/nAbf5Peedv28I7iA8NsGDfSr7gF7nxHQLIHb8NEPnjajrbTAN+YYOr/PggA/HwAcGsdw4slUUv5HE7PW6Lx9V3XJmfdns9fsU+bq9HPW6xx/fqcXv9a/7lLfY35/EhAH4Yb7XDC/b7n3oXe2LhzVflURZAxkGD2+kvuuay4Yln/5o9ccX9Rf/2l65ViQ8I4nvx2GLhD7C4x4cCIOpXCizmsKjEc+xH67BQ5KvvWPBicRkLPQAZC2lcIccTV5PjtvD5wNVpLBxxxZevVAMsenHVHotG+B0DC0teTPb5BbxYn9X3cjBLPyNf5M05ot+RY4B2Hn300U0/84cCc4Ec4A82fDUeICd8oBB+8QEBjwXu1sCHDPGVCowV8sC4RZ0QQgghhLjhie/DM1jMxq3xDBatuDL95LRoxhNXt7F4xu3oWPBz+Us+erZbjRNXywFu218o8R15PMd+tA75chwstG3hTR9QQMaaaiH542o8fONDDLs9P63HsPjH1f0DwaIX8li8YxGPK/Njt9dDxg/f4bZ61OMWe1zBx+31+PNz+IG8tQIW7LidHlfJ44kF+Y/d7aFlcX3mHe43vOSHnmVP3D7/8g/l2+kBvj+P78bj+/I/dNp9rYzBFXzckv9vz3mV6eH78Rf6FX58J//Fj3yWleM79Tc0WMjf/va3tyu1uDKLK7C49ZuvgGOxiSvKWOhBB4v4uF0eC9SPfvSjo9+hxlVeLCyxEOdFK0AdvisOn1hcjgF7LFIjfnwtIOqwaEc5tgF8I6/5fB8o0J/oV/QvckJ/o+954Q8Zesg38kYbABb5c/UzwGIeHxb0H5jEhynRT+i7uOMC8dBXGFOMEe6eiA9OoIs+1xV5IYQQQoiV45od+feUZuElHznbFtHvefIf2uIdi/hj02L3rz4/+R4Rt8hj0YrvxkP3vT/+R2YbV9xf96gXWDm+kz7fghaLf8SBjX3X/tb5B+aWGyzwseCODyeQM27b59v8/91/fR93EkT+dzop38oPPfwOAP9IHsDXDOAnPkjAE/sH6vb6dRsfd/p+l43b3/zU4b//9B99b35wxR1X5v/hV19qf1ce4O/GB7jVHov9Htjgz9P95EMeXezm48gn3HvYt3+f783PyZtPGC46+xzfWzpnvf33h7d84f2+14Kr5f2t7yDKsfB+WVrc4wfxNh959PC+tOjnW+1xRR+32f/bVz85fMlvrYftx7vvwaMMf9qOPwQA+DV7+MWi/k43vfXUXIIH3fr04X1nvcz3Wi6//PJh//5mShSwoOtv5Qa4IoyFWX/LNm69jsV2LC6xkANY+MEOC0ksAFknyrH441v3OT4W4fggIGyiDsAWdfFhAT4YwJb1AcfH4p0/aMDiFvrxgcFcvvv+CNavXz+cfPL0TxavuOKKYd++6XMZH2iM+UU7+35GWbQ/+gv9jLK4cyDGArZsj3b2/Yz4KEN/oI/QP9FvnFv0X/THNH3sR1yeD/APuM+ZufpOCCGEEOJQ4+Z/8Pjhe9dv8b35OX7TMQtazAMsVnF1GQtsLHxxC7r94vsRRzVXu3FFG4t0XOXGApjrwgeXY+EPf9OAfyyIIyZ8wg42KIvb6/t9MK0MID/k0MeclhsW7QCLcBC/Us860V7cjRAfWIzF4PK52g1e+ejnD8+57+N9b+EsaSF/zXVb7Rb61z/vReXPyuGWeZQzWMjjCv7mo/Kb93O//TW71R5X5HF7/awczAv5+cBt8FjI9wvzhRJ/wg6LfVyhXwyLXcgvFSwascDEVWT+gbq1ymIX8ksF/Yxb2bGwx4/zrUa0kBdCCCGEqCx0IS/mB4t2/CI/rqLHr84fSJa6kF/0rfUA323HD9hhoY4r81jEP+0hj7Ey/oE7LOLxC/Wof/en8g8Q4Lb7hSziVztv/fwH7Hvuy8H3bb7x8PFvf9H3Vhe4En8oLOJvaHAnway/OSCEEEIIIcShyCs++fYbZBG/HCz51nqARTp+xA4Lc1yZxxV5fBf+C9/86nD8McfaL9OjfKms5ivyBxM31BX5Q40b6or8WkBX5IUQQgghKroiv/a4Qa/IB1ik48/PYYsftMOv1ePH7fAjd1jgx6/ZQ+5vu19NHLZ+g0urmyMOO9ylSbSIXz7WrVvn0iRz1Ym8kBdCCCGEEJm53r+L1clS113L/m4Zfzsev1h/2d99qLm9/jee8mx7ruY/NXfbE2/h0urm1jea/PHBYMOGtfFhxcHAXH2pfp4bLeSFEEIIISr4wWyxtrj1ieNrsllY9nfLWKjjV+h5wY4r9U9/yGNW9SIePOy2K/MnEQ40P3S7+7g0ycaNG10SS+WII45waZK56oT6RwghhBCCeeJdHuSSWAscs/HI4W43zX8Va7HostcCuOfNTxseepvVvZi/9y3uODzstuN/0/Hoo4/Wbd/LAK4ob9q0yfcmOfLII3VVfgT0C/pHCCGEEEJknn76I4dTjj3R98Rq56l3f8Rw0yWOpxbyC+QVj37e8P3H38T3VhenHHvS8PIfft6c3/XHIir+xrdYHPgg5Ljjjpvz9nDo4G+x60OTFvWLEEIIIcQk+LvwWIccsUHflV/t3Pf77jz85kN+2vcWjxbyC+T2J33f8E9P+8Phf556Vy9ZHWDCvPXHXzLc+xZ38JJxjjrqqGHz5s36nvIiOOyww6zvZrk1HDrQhY3IHyLN2ndCCCGEEIcaj7/TGcObn/Li4ZYnnOIlYjWxft364Ufu/MA0hi8aTj76eC9dPMvy5+cOFDf0n59j8CuDH/jGZ4d3funDw1eu+M6wc88urzl4wEXN/3HT2w6PucP/HB5623sOGxf4CR7auGPHjmHXrl3D3r17vVRMA4tQLEDxXOjVZPTzzp07rZ/37NnjpYcG6Ct8YLTYvhNCCCGEONTYkdYd7/zSR4Z//cp/Dhdde+WwZ++h9f5xtXHMEUcOd01rsifc+Yzh/t9/Fy9dOlrICyGEEEIIIYQQq4iJe6c3HKR/K/3qbdcORx0x/uNhQgghhBBCCCHEocDEQv68C785fPwrX/C9g4e3fvTfhm07rvc9IYQQQgghhBDi0GTqr5n95Et/dXjfZ/9z2LVnt5fccOBK/Gvf+7bhN//m1V4ihBBCCCGEEEIcukx8R545cuMRw87dN+xiHrfTL/ZKvL4jL4QQQgghhBBirTHn3xfbvmun/bjcDfnU7fRCCCGEEEIIIURFfyhcCCGEEEIIIYRYRWghL4QQQgghhBBCrCK0kBdCCCGEEEIIIVYRWsgLIYQQQgghhBCrCC3khRBCCCGEEEKIVYQW8kIIIYQQQgghxCpCC3khhBBCCCGEEGIVoYW8EEIIIYQQQgixitBCXgghhBBCCCGEWEVoIS+EEEIIIYQQQqwitJAXQgghhBBCCCFWEVrICyGEEEIIIYQQqwgt5IUQQgghhBBCiFWEFvJCCCGEEEIIIcQqQgt5IYQQQgghhBBiFaGFvBBCCCGEEEIIsYrQQl4IIYQQQgghhFhFaCEvhBBCCCGEEEKsIrSQF0IIIYQQQgghVhFayAshhBBCCCGEEKsILeSFEEIIIYQQQohVhBbyQgghhBBCCCHEKkILeSGEEEIIIYQQYhWhhbwQQgghhBBCCLGK0EJeCCGEEEIIIYRYRWghL4QQQgghhBBCrCK0kBdCCCGEEEIIIVYRWsgLIYQQQgghhBCrCC3khRBCCCGEEEKIVYQW8kIIIYQQQgghxCpCC3khhBBCCCGEEGIVoYW8EEIIIYQQQgixitBCXgghhBBCCCGEWEVoIS+EEEIIIYQQQqwitJAXQgghhBBCCCFWEVrICyGEEEIIIYQQq4gVW8hvPOzw4fTb3HG4y6m3NVkIIYQQQgghhBBLZ0UW8iceu3l4wv0fagv5+512V5NRJoQQQgghhBBCiKWx7Av5293s1OGH733GcOyRR3nJYDLKUCeEEEIIIYQQQojFs6wLeVx9f+Bd7jn1VnqUoQ46QgghhBBCCCGEWBzLspDHIv1R93qAfR9+PqADXX1vXgghhBBCCCGEWDjLspDH4vxmNzrZ9+YHure/uW6zF0IIIYQQQgghFsqyLORvNOWH7G5x0k2GP37mC+wJuUdX5IUQQgghhBBCiIWzLAv5q7ZucanyqHs/YDjqiE32vN8d9L14IYQQQgghhBBiOViWhfz3pizkv/Ctr7k0DF+75DsuVS656gqXhBBCCCGEEEIIMSvLspDftv06lyqf/Mq5wx/8w1/a89xvftVLK9ftuN4lIYQQQgghhBBCzMqKXZEHF115mT17du3ZPWzdroW8EEIIIYQQQgixUJZlIQ/GFvPTuPLaa1wSQgghhBBCCCHEQli2hfwFl1/i0vx854pLXRJCCCGEEEIIIcRCWLfxcafvd3nNcfLmE4aLzj7H94QQQgghhBBCiNXPsl2RF0IIIYQQQgghxMqjhbwQQgghhBBCCLGK0EJeCCGEEEIIIYRYRWghL4QQQgghhBBCrCK0kBdCCCGEEEIIIVYRWsgLIYQQQgghhBCrCC3khRBCCCGEEEKIVYQW8kIIIYQQQgghxCpCC3khhBBCCCGEEGIVoYW8EEIIIYQQQgixitBCXgghhBBCCCGEWEVoIS+EEEIIIYQQQqwitJC/AbjooouGT37yk8O1117rJUIIIYQQQgghxGys2/i40/e7vOY4efMJw0Vnn+N7ywMW4f/4j//oe5Mcd9xxwx3veEd7Qu6B/eMe9zhbxKP+gx/84FQ9cXDzqle9yqX5ue9972vP+eZOz81vfvPhR3/0R03meD/yIz8y3OIWt/C9Sd7//vcP55133nDxxRfbPvxgPiKHWecacj3nnHNsnn7qU58a7nOf+5jtwx72sDljv+Md7yhxQbR9Pqb1zfOe9zyXxllIvwghhBBCCLFW0EJ+geBK+k/+5E/63txgYfHrv/7rzeIJC51f+ZVf8b1h+Nu//duZFjri4OJ2t7udS/Pz3Oc+1xalC5k7APMC8wNwvLE5g0Xt2WefPXqnB+bhT/3UT825QMaCGvMTuY6B2H/4h384ddGM9rEtPkB417ve5Xvj/PVf//Xwe7/3e76X+frXv+7SOLP0ixBCCCGEEGsN3Vq/guAKY79ww0IjFvbYYqEjxFL53//7fw+vfvWr5/y6Buqg88IXvtBLWnAVH3eLzLWIB6ifRQ/AJ57zgYW8EEIIIYQQYjZ0RX6BYPHCi3NcdcetywwW8Hx78Z/92Z8ND3/4w30vL6iwuBm7/V4c/PCV4GlzgMGHN3j2cwdX6ueCb62f68ozrmTzQhh2yCl0cIs85iQv8nFFPXwDzEfkxjrwgVvqceUdV+pxiz3f/o65i1z4w6j+ijyAnz/6oz/yvUn6fglmuSL/2Mc+tnxQoCvyQgghhBDiUEEL+QXSLzqmLR6w6Hnwgx/se/XWarF2WMwt3f3cmWWhGozF631iUY36/gMiLNCx6OXvzX/oQx8yGfQL8H6hH/RfDUEeiBf0fgBymeu3IHCHQP/9eDBL/3C8WcdBCCGEEEKI1Y5urV8BcAVz7Jb5uPIZz2lgsYQ6LN7i+aAHPciuvPIV04D9wT90sDi65z3vWeyxiOMFFnTYDh8+jAFfoYfcAvjA97Lhm3PF/rRbpae1HXFxWzjbY7/PZ5Z+W4m+PdiZdoV82oIZZXxVHAt69BfAlucGPniatogHKOc7CWAXfsZAv+IH+KaBummLeCGEEEIIIcQ4WsivAFic8OKGF/Wow+InngzqsMic9mNjWHhhcYwr/f3Cif1hAQwf/a3UsEF5LKiwsONcxhZT8Ie60LvTne5k5fCHBTu+c93ng30sjFHPOfRthx6+a90v8rCPcl7M97bTmEsHdYvp24Md3DYf4Bflx656A1ytxiI8nscee6yV9/3/0z/90y5Np68fmzs879/5zne61MKx5/p6ghBCCCGEEKKihfwyg4Vgf+sxfz9+LniRiQUZvlsci65Y5GBB+rM/+7O2nQYWTMgBcfHs7wzgXwaH/2BsMcbl8IVn5MC3aWNxhzyxjcVk3xc9+BAARK68kEOMqF8OlqNvDzbwQQfnioX8fOArHvGMX53Hd98DjMNcHwYA1EMvGPvwA/lE36Lv+7ssAH5lP5jvA4T5mC9vIYQQQggh1gpayC+R/jZtXIWOq4xYJPL3h+cCi6Gww4IEdrgVOhZd+BNesSjHAnps4Y0FE3RhjydkXrDzLdVj5QzHCX2UxSIeOSEG/swe8sSWb+9Gm8YWeljY4bvTnCt/8MBXm5fCQvuWrxLPAj4cwTyY9pwLnjfTnvMRYxAsdiHLHwZw/88F601boAc8x3jRDjAuMTfgb9bYYyzVXgghhBBCiNWCFvIrCK4oYzE3yxVeXjziSma/KMEiDR8MBGOLXCycelssrpnIBz75boH+wwEssnixGIsyjo2/S94vIBGfF3BjC2O0h237Ni7XlfH+w4hpfYt2BB/4wAdcmg30Ez5AmfZcDcRiGsTt9vPBev0HCgzPg35+8e8ocP8LIYQQQggh5kYL+SWCq7v4de144uoufvE7FotYzM2ymOfbm3E7cr8gxJMXTLz4YqbdXt0vtJknPOEJLk0uuHnhhQV/+EEuAcr6PPHk9n7lK19xqWXaVw7mynWx9AvVaflu3brVNYbhy1/+sksrS3ylYOx5oOAPNrgf5oL15hoz3L4f44w5ET+WCJk/EJr16yc9/HUMIYQQQgghDhW0kF9msCjCL3tjgR9gIdlfjZyLuJLfP/n77ct1tZoX6P1t5Szzgp/BL8xPy5Xbu1y5Lgez9O1cV5in0X+Yw8+5gN1cz/noF7GL7WdeiI99QNTDev0dDj08d+JuB8ytyBdX7Rf7AY4W8kIIIYQQ4lBEC/kVAgsTvqq6kO97Y2HUX52d9lwu+PbnyBNXqWNBi7aMXTGdllf/nG+hdyCZpW8Xe3X4QIOr3bwA5rs6xsCfC4xnfLedxwfjPt8HAqiHXjDf+PKHRVjAIy7/ij3Pv4WC8cLXMfgrGUIIIYQQQqx1tJA/SOAFGRY2067Q9s/lYtpCnq+o97fr81XQ+HG7uZ79d/QPNAvt2z/7sz9z7YMfHhuM2VyLcCy+cUdCPOP2+H4hzd9dn0ZfP+3rHD0cA7HjgwDMJSzGFwts40cLhRBCCCGEOFTQQn6FwK3HfNVyvluAH/rQh7o0fvUePuNWcFxRXS5wRTXyw0IQV005h/7PgvHCi2+/Z/Bd6Mh1TGcpTPM51m/3uc99XBrXwVitRN+uNLxAxtjxVwSYvg7jHVfS4y6FAL8uP3aLPcr51+dhN8tCnH/Mjj8k6j9EWAwYu7l+OV8IIYQQQoi1xrIu5G93s1OHM+5yz+FR93rA1CfqoLOWiAV7PHG1EgsmLAiZ+RYsfPsx/PQLMixUXvjCF5Y4830wsFB4sY6/uR5XdnnBF/RXV/tFNfL7/d///ZLrfLdez0K/WET/wDdArlh8j11JRr7ct/1CHX0b/vBc7r4dA3nM95wP9At/FQCL5Ac96EH2QUq0B/2CP4vIi/N+PvJdE+hP6PN8wxP7KI+5AWa92wJfA5i24F/KQj7yxLH24Ac/eEU+MBJCCCGEEOJgZN3Gx52+3+Ul8YT7P3Q48djNvjc3X7vkguEjX/ys760cJ28+Ybjo7OlXYBcLFjT9In0+sFjB3y0HvT3/IBoWX1hEB1h8YhGMBQsvwrAgwi3gAf/NcZRPWzDNp4PFLBZDPVio9VfkARZ1fGUVi18s1uCHfywOtrHYm6vtwVw6fcwe9DPXL0ffjjFLn/csZu5EG+aKhzbAL7djLng+Mn0fzQf+OgN+2JFBHmgnwPfW+Zb33j8+gOCvMcwyP5hef9axE0IIIYQQYrWzLFfkcZV91kU8uH3SX2tX5qeBxSIWsdMWTdPAogiLo7h6jAUaFiv9QnMlvsPNfyaMGfv+M9rEC3ws3pHr2CJ+OYCvsav7WJzOdXV3lr7tF5arBbQJC9hpH7j0QGdsPqKP8OcT5/tQAvXQ6xfx8wH96H8w9pcQZqW/c2I57vwQQgghhBBiNbAsV+RxyzwW58xhGzYMp9zoZJMvveqKYc/evSYH/+8b59lzJVmJK/K44jzXVWGAxQoWFdMWRL39tB/pwiITtwnjV8hjYYzveWOhOW2xwrdgYzGLRXnPLDpY2OIZYKE032IN7cH3zpEr8kbbkSs+AOhjzNL2WXRwZRd/xgzxkCPag75eib4dY5b+7Onzm4Vow6zxprUPfYS2TRuTMfABB/x85StfKeN6hzvcYd5+wthEXIxJfwxwfT8+s4xfD3LEd/YxhviQgj8oEEIIIYQQYq2yLAt5fP/9Zr5oD447+pjhf9wy3w7839/++nDtddtMDi5Ji/v3fOajvrcyrMRCXgghhBBCCCGEuCHRr9YLIYQQQgghhBCriGVfyN/11qcNj7r3A4b73+FuXiKEEEIIIYQQQojlYtkX8g+5672HH773GcP9Trurlwy2qMfi/nY3X/s/cCeEEEIIIYQQQqwkB+TWeizqsbj/4bSYF0IIIYQQQgghxOK5wb4jv2vPbpeEEEIIIYQQQggxK8uykN+243qXhuHjXzl3+NdPf2T40H9/evjO5ZfaEzLKUBdctXWLS0IIIYQQQgghhJiVZfnzc7e72anDA+9yT9+bjfd//hPDBZdf4nsrg/78nBBCCCGEEEKItcayXJH/+iUXDF9Lz1mB7kov4oUQQgghhBBCiLXIslyRD0698c2GE4/d7HvT+d7WLQdsEa8r8kIIIYQQQggh1hrLupA/2FiJhfyXv/xll4bhqKOOGm55y1uafN1111ndve99b9tfK3z7298ubVwOrrjiCuu3o48+2ksmQV9+5jOfGU4++eThTne6k5eOA58A+gz8RN31118/6uvDH/7wcK973WvOnOYjYi1nXwkhhBBCCCHENG6wX61frfzOb//28OUvfcme73jHO4Zf+ZVfsUUcFooXpEXvWuNv3vQml5aHD3/oQ8MFF8z9NQz0K3T6hflcvOxlL3OpAj/4cAVjEwv6aVxx+eWmsxSQ73L3lRBCCCGEEEJMQwv5RfDEJz3Jni94wQuGo486yhZxuMp8L7oajyvZWETyAjKu5mMbMj4EgC4DG5SD8BP7oY8tytk2fAZcF/q9DoO4qJ+26O1jgWk5QI4402wC2CJOHzP2TzrpJNuHDOAHNiB8hw0W/BiHPtZnPv3p4YEPfOBw6qmnlqvx0/oB4xYfGkyrj1yjLuL2HLWEK/pCCCGEEEIIMSsbNtzhlBe7vOY4etORwy8+4em+tzy84+1vH574xCeajIXdu971ruGRj3rUcMkllwx//5a32MLxTW96k90avnvXruF9732v6eKW6+c997nDlb4g/MxnPzucf/75tsB8+ctfPjzsYQ8zPfCrv/Irtv9Xb3jDcMmllw7XXH318O4UBwvSK6+8cnhDKj/vvPPM/7ve/W6rv9Od72z+Izfw6le9yvLBAvcvXvvaYdi/f7jgO98ZzjnnnOEHfuAHXCvznve8x2JAh3P+yIc/PJyXFq/I+QMf+IB9aHG3u91t+HRaJNsV6KR//je+MXz8v/7LFsRf+MIX7M4ELHbRRuTJsbAQPvnGNx62bNliV8zRb8j/tSm/293udnZlHL42btxoi2vcAWF3O6S4yOflL3uZ7cMG9ps3bx5ufvObm+9zzz3XcgPIb8/u3RYb/YxFPeL+4R/+4XD4YYdZfrBH/3A//e7v/I59KIN+etc//7Pdco/Y6BP4QVy0+6SUW8QF8IfxwDgIIYQQQgghxEqiK/KLAItLPLHgPjUtLrHwC7Cgw2IVV+tx1f4X0/a9vjAGT3v608vV/PemxTO+l33LtECPK8BYTGJxj8UjeLrrP+dnf9YWnuD6tKgO/9hisTwXsIM99OEPC2S+4oycsVD9zd/6LdPBFot3AL3IGW3B98kBFrPYD5/XpcU1cseCGGVY1MPvc57zHNOfBq6il/YlPXxogLYjvzOSn7iKjsV05I3ysMH2s5/5TNHBYj1A+T1TGYN80NewxRO+mL6fYB/thW3ERX985CMfsXIhhBBCCCGEONBoIb8IsNDF81WvfvVwxzvesfluNBZ8WGjHYh9XkFEW8A+qxUIVC0osYgEW1FhA2vfw0yI6/Lz2z//c/IK4DRywPAaukMM+fGHBC/8B8jvjjDN8L4MFLUCOkTO2kQMW7mhb+ESM+J45rt6jT7A4n+sH5OL2eQA97icm+gmgvW9/29vsO/G48yFsYA89XImPW+D7Hx5EPW5/x+8aoD/6voMNx8IdAPFBAcY54H4QQgghhBBCiAONFvJLBIu9fgGKxWAs9vHErfBzAX0sIrEA/fYFF9gCFLeBY3HNfvCci/472lhsAyxYcfU8fOADCFxZDuJWcga32s8FrqZzXvAZi2As8M985COtb5YTXPHH4h1X+3EnAq6QM4iJK+X4WgP/XgEDG9xe/6NPfKIt5uEzwNV6jEEAeZYPSgD0dFu9EEIIIYQQ4kCghfwiwKI7nvjOPF+txWIWC3vUAWxxxXo+sAjFAvhe97yn7dut4p/9bPmQALd4YxE7F4iNq9UAC/G4asx3DWBxiivS/OFDfBgRt5HDNq5Ej4GFciz2YRu/3h9XunHVGm3nhfJSwRV/+I580fcMynFnAMofmfqzB+1DfoC/DhHgTgj0E9ph/t/xjonb78eADZ5CCCGEEEIIsdLox+4Wyv79tsiLJ67CPupRj7IqXBHHYhKLcPwwHH4sDYvPZz7zmfbjbbDtr9rGVevjjz/eFoIPfNCDbBEM/dve9rb2A3T4jj0Wnj/+1KeabsRhsI8fevvExz9u+pDx43EoR0xcncci9Qvnnms/iNfb3//+9x8+nmyRM2KXnBONrrcB/r/+9a/bD/zh+/xP+fEfH2584xvbwh25Rv/s3rOntV+3riz08eQr3twubFHPfQbdSy6+2BbYV1x55fDYxz7W+o394zcL8EN0d7/73b0kA1+40+HylBNyRj/A/s7uGz7QX+gn1H/5vPOsn+Iug7lyBfjRvvNTf/TjK4QQQgghhBDLzbqNjzt9v8trjpM3nzBcdPY5vieEEEIIIYQQQqx+dGu9EEIIIYQQQgixitBCXgghhBBCCCGEWEVoIS+EEEIIIYQQQqwitJAXQgghhBBCCCFWEVrICyGEEEIIIYQQqwgt5IUQQgghhBBCiFWEFvJCCCGEEEIIIcQqQgt5IYQQQgghhBBiFaGFvBBCCCGEEEIIsYrQQl4IIYQQQgghhFhFaCEvhBBCCCGEEEKsIrSQF0IIIYQQQgghVhFayAshhBBCCCGEEKsILeSFEEIIIYQQQohVhBbyQgghhBBCCCHEKkILeSGEEEIIIYQQYhWhhbwQQgghhBBCCLGK0EJeCCGEEEIIIYRYRSz7Qv7YI48aHnb3+w1Pf8hjvEQIIYQQQgghhBDLxbIt5Dcedvhw+m3uODz5AWcOD7/H/YfXP+/Fw9de9+5mQQ+d+512V9M59cY381IhhBBCCCGEEELMyrIt5J9yxpm2kGewWOcFPXTucupt7ar9qTc+xbWEEEIIIYQQQggxK8t6RX4MLOgff/+HNDrHbDrKJSGEEEIIIYQQQsyKfuxOCCGEEEIIIYRYRWghL4QQQgghhBBCrCK0kBdCCCGEEEIIIVYRWsgLIYQQQgghhBCrCC3khRBCCCGEEEKIVcQNtpD/zhWXuiSEEEIIIYQQQohZWdaF/K49u4dPfPXc4YVvfMVw+2c/ZnjTf7zbayrQ+fAXPzt88YLzvUQIIYQQQgghhBCzsm7j407f7/KSuOkJJw1Xbd1iC3UGf0P+N57y7OHYI48a/u/b32gL+F5npTh58wnDRWef43tCCCGEEEIIIcTqZ9kW8gcjWsgLIYQQQgghhFhr6MfuhBBCCCGEEEKIVYQW8kIIIYQQQgghxCpCC3khhBBCCCGEEGIVoYX8Eti3b9+wc+fO4brrrpv5uWPHjmHv3r3uQQghhBBCCCGEWBj6sbtFsH///mHbtm3D9ddf7yULZ9OmTcOxxx47rF+vz1KEEEIIIYQQQsyOVpELBIv4q6++ekmLeIAr8/CzZ88eLxFCCCGEEEIIIeZHC/kFsnXr1mH37uX5O/hYxMOfEEIIIYQQQggxK1rILwB8t3379u2+tzzs2rXLnkIIIYQQQgghxCxoIb8AVmrBjdvshRBCCCGEEEKIWdBCfgEs1y31PXN9T/6aa64ZXvziF9tzOTjhhBOGV77ylb4nhBBCCCGEEGK1oYX8AsAP3c3FVVddNZx//vm+N9gP4mGfy6Yxl99/+qd/Gl7ykpfYE/JC+NCHPjSsW7fOtsHjH//44e53v7vvCSGEEEIIIYRYbWghv0xgEf/Hf/zHw2te/Wp7gre85S1lnxfTC+FP/uRPyuL7n//5n710ks9//vMuzc0b3/jG4UEPepDvVWaxH9PBXQOzxhdCCCGEEEIIsTS0kF8mzj333GG7/0m6uAIf+2DHIn4k79vf/rYtkB/3uMcNP/VTPzX89V//tS2aGdxyj9vl73GPe9jV97POOqvcjv/gBz/YdLANGTpxmz70oI8y2MMP38Ifdr/wC79QdG51q1uVRTvyQ33ExxY5CiGEEEIIIYRYObSQXybuc5/7DDe60Y1MfqBf8T7yqKNsC25285u7NDu4Gn/88ccPP/3TP21X5QHfXo9FN265f8UrXmF/k/6d73yn1eM78LBBOcA2ZOYJT3iC6X/wgx80+xe96EXmjxfzWLSfeuqpVg89LP6hA7DFYh51+HoA7PHBgBBCCCGEEEKIlWPdxsedPvcXv1cxJ28+Ybjo7HN8b+ls2bJlRX5h/rDDDhtOPPFE36vg6jdug8ft8AALbyycP/e5z9k+6rHA50U6roh/+MMfNhvczo8r5liAx+30uLKOBTcW+rDH4j8+JAC4+o7F/be+9S2zxcI94gHUIwYW71i0Iwb83/KWt7R67ONrAPgAQgghhBBCCCHE8qMr8ssEftjuDW94Q/N9+IsuusjK3vx3f2f1CwGLaSzacUt9gFvscYUc5QDbBz7wgSYHWKDHwn8uwkf/w3d3u9vdSh3oF+SbN28ut/fjAwQs4PGBAJ5xNV6LeCGEEEIIIYRYObSQXyY+9alPDf997rn2/fh/euc7rQxblKEOz4UQP2yHq+K4io5nLJRxy33Ai26A/YX88Nw0+1nBgj1uy8eiHgt85LsQH0IIIYQQQgghFoYW8isIf0d+IWBBjNvXcXUdC2V+4jb4+J485LPPPrtcIQe49T2+wz4XuNUeC3H+UAB+4I9vtZ8LfLCA7+PDD2ye//znW7kW8kIIIYQQQgixcmghv0zgx+7wvO1tbzs845nPtDJ8px1lZ5555tQ/+TZGLNTxXXbY8RO32mOhDB3UQ8YvxuNKOLYojwU19LHIxoJ72q/J4xZ86MMOHwBgi8X8tB/GmwZ+BA928I8fyMMW8fR36oUQQgghhBBi5diw4Q6n1J8oX2McvenI4Ref8HTfWzo7d+4c9uzZ43sthx9++PA/7nrX4T73ve9wk5vcxMqOPPJIK7vt7W5n+2OsX79+OIqu3uPWeCzC8QFAzx3ucIeyvd/97jc85znPGTZt2jTc9KY3tTIs2HkhDR+o5wU2fOO77dDHVX/8gB90UA57+Apg0y/MYQvdeMYdAWGPWEIIIYQQQgghVgb9av0CuO6664Zt27b53vJxxBFHaPErhBBCCCGEEGImdGv9Ati4caNLywsW8kIIIYQQQgghxCxoIb8AcPs8nsvJhg0btJAXQgghhBBCCDEzWsgvkGOPPda+075cHHPMMcvqTwghhBBCCCHE2kYryAWCK/KbN2+2K+lLAYt3+MGPzAkhhBBCCCGEELOihfwiwHflTzzxxOG4446zhT0W5evWrZvpCX1c1Ye9FvFCCCGEEEIIIRaKfrVeCCGEEEIIIYRYReiKvBBCCCGEEEIIsYpYsYX8icduHh529/sNGw9b3l95F0IIIYQQQgghDmVWbCF/xl3uNdzyxjcbTr/NHb1ECCGEEEIIIYQQS2VFFvL3O+2udkUe3OXU2w6npgW9EEIIIYQQQgghls6yL+RvesJJtnhnHniXe+oWeyGEEEIIIYQQYhlY1oU8FuuPuMf9fa+CcnxfXgghhBBCCCGEEEtjWRfyRxx++HDJVVfY30q/3c1PLc/rd+4Ytu243rWEEEIIIYQQQgixWJb978jj+/CfesWbh+OPPtZLhuEL3/rqcJ9feKrvHTj0d+SFEEIIIYQQQqw1lv078n/5vBc3i3hwt1udNvzmU37G94QQQgghhBBCCLFYlnUhj8X6GXe5p++1/MZTnj1aJ4QQQgghhBBCiNlYtoU8bqnHYn0upl2tF0IIIYQQQgghxOws20L+bre6vUvjbE6LeDyFEEIIIYQQQgixOJb9x+6Ynf/02eGIx99wt9Prx+6EEEIIIYQQQqw1lv3H7oQQQgghhBBCCLFyrOhC/prrtrokhBBCCCGEEEKI5WBFb62/oTnQt9bv3LnTnrt27Rq27N4yHH340cPG9RuHy3dePmw+fPNwxPojTMYW+9fuuXbYsXfHcOMjbjzs3LdzuGzHZcP3H/X95us7139nuMmmm5guy7PaX7j9O8P3HVnlGx8xvz1yni8Xtof+unXrhuMOOy752pJ87ZzJftOGI5LN5kaey77Pn/ty04ZNU+NfvvOy0n7En68tc/VF72taW9getrCb1pbx+FtSbfTlbPNirC/miz/maz77+XIZG0vuy1n6AvppWpmvPpe5xoL7gn2xPcfnY2Qsl/nGYr62zNUXlydf3zdDX2xcd3h6HjEcdthhwxFHHDEceeSRdtwdKPbt22fntR07dgw7d+8crtt73XDCESdY3Vx9EPOhHwPug1nnQ9j3vmafT0s7tqbl0tvPNp+mn+fmy2Xs2MR+yHMdGzX+tal2vx+n430x1zm3+ho/ZyP+WFs4l8UcW0s9z3BfxnlmsfNi1nPuuP3k68c0+5D7cRmzX/i8wOvP9HPuLH2Z7Rf2XuDKXVcOx204bjhs3WHNue1Asnfv3uH666+392w79m4f9uzbOxy78diJPpy7D+p83J/eTaM/lzofenseQ54D47ks7tjCNubDLMfWhcn+xiP2MR8W2xdjuSzcvu2L/nV3zNdCj63+2Kzxx+fFXO8B2mNr/vPUXOfssXk167zgOb6Ycy620RdLsYc+mOZrofNi8X0x/ZzPcwG+Tt54sskbN24cNm3aZNuVQrfWLwN4k3vllVcOX7/y6+mA3W+D9o1d3xj2bthrg3fNvmuGfRv2mbxlfxr89TtM3r5uu9VB3n/Y/uHyvZebjOfley8rNixfs+/qYQfZb9mf7VHP9pftIV9Jhn/IiLdz/U6Td6zbYflAhn3r6zKT8YTfsN/C9imPHSkHk5OvaMuk/WXVPsXbnnQhoy0hz2WPtqAs21wz7HcZvmAHece6neYPMmJdtqfNn2XOJcaC+wL10ReI1fuq9teU+Hksc3z0S/FlbZkeH/o1/k7zAXmucW3skw77Kn1B8Sft23Gp/VrtMb48L69we8jjbUFf5HmBMS39l+rZV59LxLe+9L5A/JgX6B+2b+Z1M6/4GKu+sOV5wfHbca2+rC/CnsY127c2LNe+rPG5L1DPvi4b6YsmftpuXbfN3uBetvuy4VtbvjV873vfG7Zt22YL7JUGcS7/3uXDt67+lr3Z3nv43nRuO5/y7uYD94HPh50b6rGJNvLcGJ0Pyb4cG2kb9nk+VF/tGLTHFvdhHFv5OPf4E/btfGI5fPGx0cfv51NpC9ljPkT+uf3ZJvvq+jLiW19Oxkc9n7PG5jPHh584tvJ5Zvp5AscZ2/O4xrjkuT3/eQbnj/DVHhv1PId6tunlpi0+r9AWnAMhIz73xWhfJv0yF1Ie0a8oa8dl+ryETviCHL4wLiX+RF/U1y/osC8eCx7Xsb7AGNf4dV7k89TkvLBxac6ZbS7IGzL8hC+Mbzsu1d7GkvLn1//Sr0kOe4vftKWOxVV7vzfsO3xffr90/fnDZVsvs/dR27dv97PPyoH3addee+1w0RUXDZdvz+3DefbSfZeWvHHchdyOZ3ds0+teHBt5PkwfTz4eoBO+cn/WMeDx5GMbctj04xnzCX7gD3LOf/p8svEgez5PlfxTfTOfyB6vYRy/Pc/U44z7It5P4MnzAe1lmXPhvujbEjaIP/081Z7n2tfd8VzquCZ7jw977ld+P8LnTBtL6osid33Rvwdo48fxtLPkksd1el9MnLNJjnmRXz8mX3/wvGLfWF/UednPq3ZetPYog7wlPbgvuP1jbcEcCXvuS4zpNF+T8bkv6zkb+fIxWvrC7Nt5xTLbx7yGH47Px+iFu79j5zU8P3/N54arrr1quPrqq+0Dw5VAC/klsG//Pnsx2Lp167Br/a7hu3u/O2zYsMHq1q9bN+ABcDVo/bra1XE1zXRcHvZjv+psWLeh2KM86tavJ5n8Ztl9JVjmq3c5ZpaxjTrLtviqMYDZuAyjYm+lbg+b9dVXa7/edc281KEt1TP8hs46a3+Qc851OUbVi3IQ+fd92bcF9ZVqXyB7+OxzCfuce7aHfmkX+bR+8XIAOWq5/WhH1FiMKE+P1j6Ve/zsK+xbneiXbJ9lsL5pC3Kr9qGGTbVneXJcS18kHdbLlolUH+W5X11OIJfqD1Zun3Q4L55XG+aIH76sLeELj7Cx+Gzf9kVkluXYS37TOBnz2Edde4xiO5ZLxMh6EXP9+nrsZxsTzc116YEXh2u3Xztc8b0rht27d3vl8oIrVfjAAC8816TH1vSIPu7bHeSx8byTbskbbU1tAtxOKw85wXV5zmTZykscjEf2Bd02l6SffJrcnyfdVyZklNf8zZfbZ+9Zr5lP8OUNyzLHrzKfvy2O23Bbcv6TMuC2rEvzP/cH9FKdHw8gyq0vm1ySr7BPcrTf7D0OYlS/NUfA8bOV68HG5dwWL0+P1r7mYu11X8g99Cy++8r5c/tZruNiYxEx07b6QrmJ7it2XCb7qMuxswz7OM5R0ufCba5twfnLfeWNM9mX7K/44vM/HiWvPH+CPpcaHzZRV2OGT2C5Uy44RkvMtOG+ZF/5mej6MuuETSvXvuC2tG03nZJ/zWXPsNfemOOq/OVbL7c3vVhsrwQ4p135vSvN/2X7vjvsXre7yTe2OO5C5j7A2NQ2pVqvyrZVr+hYH9Y+iFgg+8512Na69Frn87G3x/GQY+XxbOtyOfxEeY4xNp+gHza1DjYRA764f3r7Rs/l8BAS/s8y9Ng+yT7MFqPMDe6X5IHjj56zgeuZTdaDjZubzz7/wGTKpdokwXdQXs8TyJHtyS+9hnsGRcL/RorVvp/h81zVo/A5/ljMVF7ioJzbQr7GXj/Rs0E9Mt1X3WvsA8htW1Di9SmPmmdfnmWUcVt4v+/LKM9j5DpJnugXbz+fZzKdXiL3a+2LXi7REbPu+RP/t/Z8/t417LaFPi6EXHr1pXZxZLnJrRALBi8CV1919XDxdRfZG2v0ZDuR0kD6LgY1XpRsgPd7RSoqkz8VYboFNll8lydImi7Fl23Cl9XU4WQbyDH58gHuNmlby6u8Pz34oMq+cl1ui4lQrCQZGYBpBwV8mkz5pyWybYPSF/DV9CXlkmyiCv0VvkDTl03+LFd76Jf2pycf1FEOWDYd342TCEAe0WakFL5yX7I95Lyf2+911o6Q6YOMVDRxgvJd5FX7suaC/ou5ZGNBdX1fRO+hL/aXC7wYP8/f2hLj1Lel8+vOkFdbN24T86KMHUBQ92X9WvLfb+0JLK/oi/3Vl7Xd7UGJmYrH86pjgR6LGmxjnk70ZdEKvzmozRcfl/37KP9U3M7R6NcsR9ugz3POXRkl5uHDcP6O8+2DxD179uSyZQIfDlx51ZXDVXuvsk+XQfTb9Pmc4bGx84TPJ7SF21OOm1QUbwqAtdvVoFNsUgeUfkt9UcphH+UJk70KvtD3gPsPhA1iNfFTAY9BwLkj/kRMh+eDtTFySXLJgduSKPbIhfrPysMebXEH+D/ywbbkBvuQE5wXdEp4PL1fJvoyPYI8FrkOY1nlti2NfdMuL0/kfs2yHaeUTMwF1Lf2PC51XqCN5ZyfzpP8GtIcp42vJEd8CG7uRZnkM9qP6n4syrwgX9bfpS30RjYV98d25Gzn9WJvHgzkVfsfe1Ez6StygUUZy0RtM47RaAvkat/My9RfZV6lTcioLr7SThuf+qLkmzB7F9MWuQGojtt35WmLOlyJvHjHxcNVV11VcloucLX/0u9dMuzZsMcuulh/WuRMaXci2mdtcBnkOZvzgj6f57zYCL/T+iD02vIkp3kEsm3YYz6zXi4Hfe7lNTz1WxxboGlXL7sLHJtlEBNhj5IyU9OmyQX94lXNfEjUzGqd+WriJ62w53LoRyppG3V5Pk+35/NUtqe2lPjd65eXA/gN+/Y8h/7Peqht5nZjj9GI+DUG8g9QWvJPO+0YoSDL1hbfQR41l3o8o76dF/CVFTm+jasDPzXnKX3p5A8r8j7roCR8Qz3Oeei36DuAvGLX3guUBkDX/aX62v6US8krx+f3c8VzKiq+0riUPkrPpi2wciOMV/FFOiiq/Ye+LFEsZpBt8r75NSmXtDGrTX/sRf/grofvXX+lvW9bTqhVYiFs2bJluHbvtcN1w/W2j8FqJiIGzweWJznNlQSVp0d80gf4U6RmgsGXl5sN1zVvilubwKxLzEnfIPvlEwTZJzH27YqAeck0vrjctPI+JniNk2NlmXX6+NSX/H9Tnh6Rl8XoT3CZLGc9s4pcLGbVaw7E5s1+F5Nld5t91fJ+XgTQi/jQZIov2HMufXxX5LHgcjA+L6ovWDXj5zG5LabTtKXGYb+g5AJ7t4GMvQB7RY9l80nlpf19fOoL8802VY7cWAZjczy3q8asNamO+7Lp1+Q5+swsPGbyFcc1ylmnH9cAqUT+yDfqmvamx670wEIb56Lde5bnyjxeJK+55prhsr3fHfaty+8K0R/RPznvtt0Byku/p01pd9opecNXyPDlMsj9WetqTZLdr42N12Db9mF982Mx3cYsWE6PTG0XsP71fT4Xs02ud5nKQX+c1XFr7Ztzi/cl6vt+rTZpr/iCTHqer9nz60fSiX3osF7pC/PF5dW+lV1I5Pwpputluc0/yHK24b7IVlUOX4DlrOMxG3vsu5BgufcVNrm9WUZZaT/5tXLOn3NJct2vvkBj38cvcdhf0qT4OIcH7VhSOctsb3L1i7os1TYCy6XUVX+5NPSqjO1o/O71P2TEiPgorTLq6hyppdmm+kqL+fTAFSws5pfrK0S4Eo+rYRfsvaAEt3GPPkDeLlu5K9mY07FtNaks5GqT7UwmHey1fcjnyVre0/YbzQfUuN3Eear4qzGhMzYGqAnfWd9tUhn8gbytcuMr9UvRS5sxG+6Xxt72puj5NkN9bDL1RZNnBfZRDo2wyfbU/onXcPeV9NsxC7n6hU4dY+i0cwRxAfqfbTiXKAeIX+os/wy30ayqSdEHsEd9BnpZ7t8bVmq/gsYXYoZ92jbtL3rVL2j61fRzHY8FttEvLGOvPcb6NmcZfqMc/1cZOfK41r7IFpOy+cqi0bSf5wWV5zzcF+eS5HYuVcc5TtXbuX6XXXzBndzLRc1QzEx8PxW3ZMUnUvlTojp4McCgHgR5UsR+ngbZHiXr/NNY0Ewe+uSpOdjxKHLCP6gCfIKxT648JvtNhcmu2ocMIh5oTlDJvtbh4HH75CufSFCa9wPOJdvmOpSzPbelWuc2B/mFI2M2vpcP8KyHsWj6nLyZhdc1fQFrsgm/+L+WwqY9WVRfNb7J5JtfbLktlkvIZl99tXqtTYD8Yw951fyhlW1Q0tg0udSaPI/zXvabZWw5PvdZrnMZNh4feWzgk7LboL5mnGLyiS/J1XfSCxt/ZDnrBTU6ymt8y8Xr+rFguTleuI/N3mU8vM9Q1sQkGTbxSbH1X+kLjCTrkexb0PZrkiM35O8iyiJ/lOLWS/jDG95rtlxj5UsFi3h8OIBbXWuuiDa9D3JJZh3ycxnzkbVirNFHtQ1Jj+cj9Y31h+8jjzpudW4AzqUfj8g/b6tcrpwm+uMsxrDxC1+0H7e8Zq+1HO0PUF7mAx6Riz8Czpnl0AypkFyGXtaoucTVPAOhPR/ri9BLeXD/hTzZLzVq099JLuNEvlDC7W9tal52/vZ96PD4N69/JXovU19afD4fkC+W7fUzk8+TnrNtoybplPIqg2oNexpX5E+5FHt7VpsqZRu2L7WpCG0LIkfA/dLISSfiWHyKxOdJnhc8rpPtzzLa1Jyb+TWP80LGvp/Hwn2hLXyMkA3qas7syzSLjGMMV8x37d81XHfddVa+FPA1SHzgibsnc+9nLK4XIHrTVj5nWW3G2hxjaO30Oswz7wPrDy/Pftu2hjf0WZWThdujvH2tq4QOwJwJDzh+Q7YYHtPyZxvKhdti8yn0UhHPgZBRy+NWI7q973FbUNa0n+VikWPU9tf3M2afHkUm+3xVNtPkRfE5CsrKPE0g4wA69Zzd2Xh8UOInXT5nVk9JpnmB/zlmzauLn3xFfIvtevi/5GKPHBMlrd+aS5tX7Ys8r6iuOTe0NiUX8+Xxk33kApqxzOpG5AgsY9fL45JleKnvraBT/fJczrZRl0pdD9vmPFV0YEPlKUZtP85Z1b7Ns8qNL8R0uckz9V20CyX963+APq7zKukn0S7AbN9iv6+2HNTMxUzYr5zuuN4GwiZHTIr0KN9pSmCwYzAxcYts2yjnyZtkPnHTi0JMFhBlgGPAnuPXcrf3SWYxvQ7bclCjnA4qtodt7OeWZJm1TCq5IUabS2ji08Fos+XvMurrCcb2XG7t85Ztqsy++M1Ltsnkuiw3Y4RHOShrjthr2+I+EtZ/Lpse2cQJ0vxSLl5iUm4v6bE9taUZf4vo9qbjerYJmXylbc0RGm2/uqFta3yvc6JdKGOdnJfXwb7I3Ctkg3lEbeF5Va1zvwY2RmFvMSq5J3KJ2fC4hk0qL3MklbHvZuFivt0XydwuxGd7+A6y1qQ9iFxQFvZZY3pfcP65zGUqBzGv8Ib3il2XL/m7V/YXN/buMn/cbmyjD7HHfcBzk+cD4DZU62Rf2pC2fJwmOTRhG3H68Qj71heoesiF+7rpdz5npEcAndi39kcclvEoMdM5l9tP51/EZ1/QDZnzL+X+CPgNSrbJvs2X2wM+Z7bzmWTya1EofonZHZvtWFYbaxXJFZRX+2oLX/hQJ+/DNmRQyvEge9axxb/v59jVJo55yNyvoQ+sLaWuAjn02B4+uW1N/niEL8oF+nUusjzF3uV+jvCbWn7NaMaSbBAjcuH4Vt/0Sz8u1T7q4KfKVZ99gf4YzZLrNeVew3Ji/D1Siu91zevi4euG7113pb3vWgrbtm4bDj/88BwHcdMTsDw2/3KWdT/3k9unbckbvrzctu4373W+qS5ktnetIrX2NG98a8DefWEbc8isaWHD44na/Mzx8QThB8C+7EGn7iUg533LKuyxT3OrltcYwHTIpmA5ejnZg7HzVNP/pu/l6Xxf7JNfPraaMU9yyZPszWeUp0fNv8YD+RVnUi+XVZl1mrZwXbKt/Qw9Ki/HUCrn84RZu17SCZn7xWxcxjbGCFSd0HJ7PKgtLJe8rLz1hQeo/ZWp+1UHcFtQF9j4+T7iFRkPV8tl1SZrVb1yPoQ9xW/aBb1CL7se2WPLbanjgja2crGhuWg/onht/hX+pVKjiZnAnyrZvj//qqoNpHchxgZ7gR3UPsZ2SMUOtFzG5Ck2qYgnkg2+77cHSD2oEKCZMOErweX2Bi9MTKj2EcOIE3wq4hdc+3TM1cyv7yCPMkH9YXIqa+LjpFL0Unk5YNOWD7AoT5umXSRHDGDtdRuO2cefPPEHNWfr02h/wvLEFnmN2Ge52rPNpF6GZbQXumCyL8mXxwC5L7MMXyHje1CwMtlsPE5qUxOffLUvIp191KWiyAUyzzHLzBNge9DYuC/o8mKD2wLCF4ym5pIofhOcv8lubnmRfZkjePQ2jrWL7FOly9jLeihpbHqZ7OMYzW0Kmfuite8XYdEX8FN8pUfR6+yv2bdlyb/2jA8C8OusAG3muNEHiMt90OeNemDl1O+lIjGnvWPxOL7X5fmQ35SiuuSV4PiYAbED+9qf1jKTzX6O+O7KynMbIFNfJHqboJ8nodf3RbR/IhfouFruyywjfuSCTc2ys0+yN9ly4fyD7Ivid75CdaJdcZ426zZm0Iwr+00y5xIyxodtmv5zHYDyaIPZNB94TM/F2tLIsUfx7ZFt4H4ivptAJ2waX5ZTUUparX3MP6ssavlR5PJaln0HLHNe4cGkZBT5A35T2R9jJRW3BeHHSHON52VjT6/lKA/ZMgk5bUsu8EW5WP+VUElw2eL7HLfXLGrLVfuuWtJVedw9ec3119idSyCPYYbHE5S+TkW1D5IW9YHpu0lpp0F94A+TTd0NEubL28rlvX3ERBHH5/60cXYX6LMSk+wBx+FyyDXmiH0qKvMu5d0fZ24OC7OLvdLGpMDxoRdM5NLIeS/bk17R6uYm5YK+qOe6Gt98sQ35slxiDrJNepT5mIr6nAP2y8cGkgpfyKnPOej71YKZ3NpHznDf5NLMhSS4zOOCbYkPld7e4Rxz9GpfxiIV8XHKueT2Z9ni+461hWOO2Dcy2WNb6+DZZeTS2CBOyLWcf3vAWhI2nX0/RuHL2hX2aIv7Rj3HmRzLDLcFH1Bs3bd1Wf5KR40gZmL7zu3D3vX5x6UwpBWeYDGQud7vqjCyDk+ETDOpEjwRIMfgZ9y+WEMn7ZHN2IFo09B9cTm20Z4s97l4LJzIQ7at2ySfzYRt4lc5vxBkG+hwLgHkJn/SA8XGYlb7sVs7QwdwzL4vwsbKaNAaX7AKf9SW7KFKRU71/bjUmPmZqVZmY1KG7XNfeq2lSB6KX8QkX2zPbUEubp/1slxLs6/SL/4IuF/YnnVMHhsXagtihjzhy+0hN/bI3/VsLKDrRDn8Zt+Z5gTN+v7IcvVV/BvjL8KWS9g0/3N83GLlIsrJntvctgXbLNs8pr7g3CDiO+2LvVVrz549w7a92ybaa/+nssgbcftzS8B9YG1wX9hGH0AOHStv+iBphY09s2ySx699CVp7O7bYxn3l45/s3Fdvz/Fzg7MMn6Xcyrw8lfX2gfVF8ZU3ma4vig3L2RfiGtSXpufl2JZx6XLJMVwv6dRzYLIq+ZQIiSQXnZx/sbdnyFUPPsMCZc284FzQFrdBvjWOeXM57wV9v4ZNzt3l9Ki3f6Yybxfk3j5soB59Ab3il2ToNn2J+G4fGgC5FHt/FHkifqbxRTG5L83DXPYc02XsBeaX+gKPII8R2buM+MgMmE+3Ny2Onx4V6Feb8FWlKG/zD5u2X9MDcSGbTQbSjmGnnddirBfKjh34M1H1yhfnAEpcPKLfUE/hom9Am7frJrgPTS791h4bdp4qMcnepGpfm9vOR4vi9vZ+xG3MV/j1LYDM8eE7aP3S/9CZ0hcoZ5ssV0uOX+T0iH4xe5cB7CP/HCNssm6Wi4b7beOHHtuDsMr2tbztiyq345IeIVvMWh7jksvnz4V9YY/tx+LDnm2m2efyap97NutBJ2TshD22JX568FyAfQC/NSao9lFqkjtDObcly25jT7bycvYFme2hVeLnloHYAquntvC4Zl9ZF/+Hr3wO8fLOvu3LrAO4Lbm5bt9otfZ9X4Qm7Gsb1g3X7b/OLg4vlRpNzAve7O7ejx+VqsMXA4YJ0g9e+V4EySAOHpsIYZOqJyaCm7C9TXiPD7nE7OKzL7tqUezrpLKtx4D/KDeZ7Nv4yT7y51x8C6DLuZhc7Fub4is9altafxyffeXcQy9t3ZfFb+zrVRv2ZfFNSlBeZu9XeiA3JwjoRPyJtmQ9biNyLO1KQCfim9UUG5sfeALYh6+E5RL5ky/ECPvsKcvWFo8BuC3m11MxC49pW5cbe+RCV8CsPHJh+/QIm9a+nVcme3zowA40/QdfISM+2ef4LkPHc8me3Aa+3GaiL7q2RF/mFngu6VH6LFUXv4mSVyLn4vGTzPalzbD3PoIu54I5GvGzTbWvL7Zp67K1JT0C6O1fv3/RC3m82d2+b3vJwdpQcqC2Whs47052e+SJh4nYUt7xZtlk1wGIUfoA8b3OPJU4tmeS9UEXP+zzXHH7LpewsfhsDx23b3wl2L7Q2Y8dW/DF9mHD+U9rS+RiNiahvD1PWhyXq1a2L/lbP0zGt9LiC+e5ejygPOwb2ew9DuWC+uIr0ZwzIXsq0C/zKm1Dz9rfn1sc6HAu0U5sa/sRP+TWnvsCvkp8PIucH8ByIXsr9/yTQc3FHyan8rDp7Tk+KHLalJyxdXmafWByxE/6JT4e4QvV5GvsPAc57OEhgFTGclounj6YFp/7YtpYlPxh677MHvuQqV1hb9+XX+TfYMY5cfv++mYZ/kofcNz0iFxRz33Q9CH0ow1Jp+Rq25CT5G0zX1wOv9FuyqXxRX2A+qYPUT5mH2OQHsUmVXP8sfdDHNPGwH3FGJg4Ry6wb9/bVrmxp77kvoBmUshSKq/2VmByHz/blwSKL9OZEh+62A/M3oFc+tIfAG0KmeOb7OVg9DwF+8glbcOmt2/iQ89tOH4unx4fctg3curvEj89mvg8F7wcWIxsbuVRY37cV7anXFwGPC7WF25jbXG/sAnPZs/xMUfcPucRdbDIMv63OCDpcHz4gk+TKRfI7RzNNhPx2VeSw1e2mW7Pr3kTvsge/4eMW+3D91KokcW84IVk77r6I1A2QU2CTCeLBOSqZ0NmctaZLMemsUeBV0Eu9pDCL5Vjb8LeyZPNbRCT8gob80Qy21tbfB//Vxk25Kspp1wofvaVMb1yOyH2nCT0bSlxTCvL5ovjuw10mjeFrg8aX4hJNqFlMsVDy4LsN9f18RubuE0pFTXxYeP7zQkaD7fHXrFJG+6LrE82LJf4oZe3jT3Jvd+wwV7EN/tS3tpk2fWatuT9LFevqbD1RTLqGpuQUc63EnJ82LuLrE82YZ/Oka4Cr6m8bXNgL3a+jxjFBn7cFwqbedXnUq1qfORSykMPTPZF6CHHKmNb5Vi8o77PZd2GdYv+Lin+5Bw+COC4RcbD2wOavLk/Tc51dqXIbSxv1zNfPp6QmzbQGOD/iGK5kK9SjgfHp5j5xZo0yT79l+VsYTLIOYYearJsEtlXG8gUn3LhfkE8tg+/Waoy2+QYXpf6q/oOi0z4BY19kqOuH4sqI4rbo5w855opNlzuW4B62ARNX3C5Pcme/LIetyXXVL3Q4rxCK+j7kvXiDaq1v8jVM7Y8rhPHWehRfLMmeWIs0mNCxri6bDYeM8u5HEzKbg9fETNtm5iuA188FtZmsqk55zqToWMSaP3CXzAxr6IvoePloMnLZLdhX9YXGZSHX4AaLORxjloMu3bvmsgnYufvEmdsG+3xRwb5jLUBJi6nbbFADPI10Qeu2PQhnlNspto7kNkGD5ORi5ejqLFxHQA5bBpfaSxZLyToNvaNX8huj/ghN//P1ZakE/Ht6XLSiZjT4+d9vrXc2tEc20Gy5+OZfdme+4KN5wKbIpmvvIct+8o1Xkf2TTkeVN7nEnXcl1mzSqP2SQ5Nix+yP0xGedinbdP/7IvKs03ehx8ei+LLZPIFmeLgkUkSxilL4+8F0j5KTbb45CtkaLkMVewHiA+flWrPcmhAHu0L85Q17Tw18poxeY7I5HKy95xja/N2iSzdwyGE/RmU1Pd18Or/IMoBy/lkTbLXYctynHgABj88mFbYW3m1aSYM27sOQHmZNFST7UnPa1DEk9L8upodPKGHB9nX766m8j6XsE8Ld57IRbZnjpllN0j0fRE7kEPPth4TLtv41Bbqv2xV7aMvzd7LseE2Wnmp4vL0jA8lSM45kV7ar+3nvsQz5JpLhuxZTn4otVIHv8U+FU2MhWPxfbefV02feTlofDVy1bL4ZF8+9bW2k1+Ln63mOi5Q4ztdW0pNjhE7SWj7OMdEEduTQVee7WwLHa+zrDg+tQW1+Jel/DA5BY1jLOcUctYLzJfv2riGHumAsp82ZY4lssW6Rb/ZBXvtl+qznMcz7+R8og9rOWhk9E3Y+yPkGClrdxwn2OH+xMMTMIsik409qN87+6BGbMtBzM3sn23Sw3fb8yJ85X2zoHGvWtk+aGTuS38E3C+TfUFyFo3SfisMe2yrluXo/uyNUBbTtvfmJF0ub9tYbew84YnlUu9L3w8mZN/FcRp12JY5DJUuZhDxQI4fMVN0es2pcm9P42eVLucCl2GfZVRwTOsb0osqPkdbeXqYDHuXgdWEDfrL5cljLCqwP9IXeEyzT886l9AWsud5Bdn3s73LFB/bcs5ONPaI4kZmETuJMi7wFeOaCL+gPX/CPss2QmGfHiX/VI9yvNld9LnNfLT5xK71ge9w3jm3yXJg8ynsISMAZPNb5aYPoz0J00sPYO2M8SgjCDnrxU6RE2YdcZJt1Fk5ycUb6WSqzOV5Prg9+txzRiiWGxs8fDefZ9y+SLCBLy/HtplPad8V+dyQ5Qy2aE3QyGhb+Lb8M5BKTJPZPrQgc3l6ehXKqxbppXjN3JyYF3m/6Ut/BuELqk0usA+Zyg1qSxOz60vOP2BfWfZ99B37Yj3qV7Q36lBW8+9kyiXPuUw/LhEz24Sc6wKWm/j+MBk2YW/PLINWruPCx4LFj7GkctD3a1TZCLkv/N/GGZHRfrfB+T/q8D9fxV8Ky+PlEAKDEIPSnOz8EfT7edjy/8U+PcubhwQParZ1PSsPm/Qg+6CZlIkx2T24lPdMNvvwWHUA7GOf8zWbUs4x2v1snfU4Tyt3fyirNlUH2MHj9vxiYQc45VP7r7MnnbAF+YcvMtlP2Usxs32O1trHfiOnePzCUduVfDW5tO0Kz7AvNv4IubcPvZyjy1QOQjJPXcwgy2RDObMc8VkGTS5m43r+BOaL5OhXwLLZuK/eJvaw5fhZv9aFnuXlsmm4X+yxfXMrFGxcj28xBmzTyB4DwFeNn6SI2b1AVPuuL00r65lUcq726C+eY828dl9L+XQ35+P+qQ08N0EznxqZ34ixPuTYb/OePOdlrA99fkzGzzK2HB/7NT5sJvNkfdDEN9l94+FxLJcSs46zxSN71AScc2tf29/at23Jsuv5I+Rinx6cfzOfUUt6ESfHzOWIETZtLpP2gUn+Jod9oYYXLtwXiBM+8H/xm7bcFo7T2GOvxGntp9P66uXYxzb6HL64PGTQ9ivkST38X21qOcjypB7PC/TpWF8042JytQ+yft0P2dpF9pAjZo4fdeSL/Xb2OSbZF7nqNG1JWx7LJr6VR131letdTg/ocU6LIXwDjsttQFnkDfj1ids3MQfcBtvwleUMl4NWzvWA+xb9VPrQHwGPRytXrbC0/1M5H5v9OY/jF3uT2VuVuS9y/FyXLVyGvetl67CfPJ6Kjf2fMZuwT9vIMbelaoYO4P7LXqtNlJu9jV+GffGxZfm7nnlyvVye4XLAfrk85z/py/dcDvu8n+O4nB5oj8kod3ts23mJ8km9PK5ZBnzOb/qSdLhfrcb1eFEK2v7r51ius/ic51R7ROfyOuYcn8n9Ol3H3ov4fltebbBYb/uVc2zlyA3bRqYY4QuMtRdSsfHxxt1GS6VGEzMTw4KB5AHnE1RzsqKJkEaxypBIr5b3Jzu2oEmVdNqT0vT4fS7wAvKEGos53d5ixsT0N3QBx2/aNeK3b3tMcNDHjJrGF/SbN5W1rrHv2lJ6M23GcmtONiV6K+eYed98hpy20Rco535hGfoRv+QEkjiXfegix5Db/kqlxb6N2fYfyU3Lctygjx+wL8hhY7LXWZn3C2j6lWSe14bXoayPE/RtDqz94SvJs+bPhB624Qv/j9n0ctjkMaI6Lwdj9hwTcvQTNr1ekOf10uD5z8cJ/ue+bvqd22ZtDRl5e106RquvdjzG2sMyiJgojzr44lw4fwb6NbPqCyWT/Z7hcpPjPINHjEd6cp4cg0cD9lGX7Skm5dy0pZMjJuSom/A1IptekfMzYPux+NV6Mn6j5zmCPq8Sn/Wb/zGTWpugPU9wNr3euBw2iBF1nC8YGxeUt1EzVh5zIcnFb3r0fVnsm5i1Nfk84b7Ss53X1aY93tq21Pg5Zpan5VLlmNeIX84z6RHtn2ZfqXmBqLMYpMcy/JZ2Qs/lbBPx2zhsvxhye2quE7l5XMRs4tK2WkMvsva8m9rpMvchy03bmjGodZY/6eWYLlN/WnnYpG3YoH7s2JyYG7Fv86LmwvHRmwHsI771csk/P/IOyYlejn3EbuVMo4MH5dLk1cmcC+tFH4PGJj2C3BfVPvpprvjsF+VRZzYmhdzqBTxGNq6+b/ONcmE9Hoveb+wh38jNypuYlD/5yuOagVR91TmDsiY+5cXtMk16/WzqqF1cnvP3uqQTnnP+NU4zfzkXe2Y9Ls9+M2j72Fj2fVRzqfEb2Z7hGTFJHvWF3qt1S2F5vBxy1EGqg5qGhwfMHya7DrABph83iBro8vcyeJLkT7rcF/04Arb8N5Gbidzk0k64AG7iCp7lWnRwUFVN7Fu9yU36pXzizXqUJ9qDkvWqbG0xKZdx/tlX2KAuNCtWzjLbd20JzG80BvlT+/F/yP13h8JHlrKM/HOe2AnrTHMg4+FxuByU23li6xS/iYhn9P1A9qUm6bD9RC5eZ/PI7e2TSuqL6EvWB5hvsY//+Uc7qlaN2dvbXsThtiD/6qrYYNvP8VKX7EPu+yv2TKb2sy9+Q2L5lnmBH3GpHpq+JPu2L9KW5xUfo9SvPBaQqz3Ms33e5nIeV+iGPshy3V8MSI191hzwfy7v4/KxldsTetUesB77avuTfCf9MjeqG/PJc6U9zmsfIl7YWR6RCzbFfjI+ykCWXKZ4oI57N4Yj5wm2t/yjPD34/BvloJnb2PothKD4SxueT2N9gfI6FKnM5bHjHNh+egDkGDKo86I9Z+f+y3C/oAb/Zznh8eGG7yDhOdLkQm3J+uGrZtXIyQ/Hz2/23IbOc2xlV5pCTo8mLy8HNq9CD/mWtnTzsrFpfUUdyqMvzaLETDLb8J0ONBbYNvZenoxJxr+uLZxnyOYmZLQli9me9P0BmnmR7EsusM+S1Tftb/qoYn7cHpvIy8ay0VwcTR+mfCJv/B9y7csct4wBcuD3Zm5lcqoLOz5PoT9iDjW+Ejyfrc5la2f4SNtcmuE+yLLbJPsg/Bg2BmTDY0DlOTrb+TZRjgHL0cX0mDhOfdeKS/5JiH7Bw+ObPZ8ny5yHffVrMdwX+pdj9n2BB8D/RTZ910NfuL1pj/RFPy/KuOJJ8atOOzdtXEucag9ILG3p7Zv4aRMypLC3vgid9Gj6pcvfnNim2kMIi2xPfUG+sh+3T2NU7X0Lkn6Y9L6wH30Bv+E5S+43PZr2kzwxRtT+4g1lHsN8NW2hXJJK2HD8ib4oe20ura9UTn3QvBfoXv8DmxfuD//HvLC2+HvDpVKjiZnAgJSuT+PRTD6S+xN/ndTo8ixnXz4EqaiZiFbnstsCvOEIvWztdWZf9RpfNPlgEXrQiSgoCl8mk31zUPEtK64PLBcvB2Mny2ZSm5yBbfQF5wLatpA9tQVl1d5qTAa9fQCtyBM24RewzL4sZ69q2pjk6rvmAjdN/DQvwnfjF2VT25JtAvOV1ZKGCwlri+9b+7s3LkHfL2Usm1umIEf8nE3Q+Cr60CNfvm8y26dNa99/tSFjcyH207wtfs2e9Io15BqfY4DoC7NnG/Jlyfmu5dzkHzKelH/3JqTkiUfIZl/lNhfy5Tqg6UtsywsHPFFeTV/CxncWSfgG8NceW5EP2j3L3Gpvs+dcoxyb5jzZ+EqV0W7YR7tNInv2Sx2Qy/M+y9mebapsOZc2UzkeoUfzETS+PAaYaG85/+ZHEG2ZGE9ouVozT+EnFvXmk31Nz8X6n/arTVs+2i/QcjWUR19k6zEbknGcuD1sI2a2dr1UFMcGKGOcsDieQNgCSBEf1eXYQinlMjEW4SLmV8L6v1S4njM2R/NrcdbL1m6TNv0xEvlbXkWNbDCvQk5w+3n8+zHm+EUv+eL2N/Yo93Zzf7fRa/+htBnX1K4yFjEPE00uaZv2TE5C0xbz5buNX7N1+/QoNl1bFgufq9u+pdcgPCgW9mMbMuB8uM7aHX2QHhGHdYCNoe9aTcjWN6FHY2B+a8yx8y/HgH6zTzLb2BzwKit3GTHLXLMxGDkGyK/FrI3JT6f0C4rJxrKMOvZl5TnORPspl6b9fV4+z1HOx007/p29V9m8KPlbNi67b2xTfZ9L1LEM4thAedhk++l5IZdin9pRYtrDbVJR2y9tW8JbtuG9as8xR/sV7w2LHrWZjk1rS/hNWP+5jel4+20sw1facMymLdAKNSt3e3tk4LfuQa/KOWbIGMssZ/vYSVLETEVj7bd2hQm9T8b/xVeikcke5TV+zdn6gs6hS6FGEwsgd74dnDEQ3QtOM6iprnw6h4MyJgIG0qSs3x5U8OV6qAkb0kFZuEU59AL21drX/w23R1n4Mm/UFrta6fZQihxy/lWOvoDc/ymjEt9OCo7Fiz0qh8x9SfalHxPZgq0qE29eHMglF/s/g4M19lHfyBO+3N7a4jL+i7Egm6xR7WHTfCLndazH8aImsL7wfbgpuiSjPmJAbuYl+W77uMYx2dsCwj7rTO9Lix/22JJ9+EI522dbt6G+zGVeDp3iK2lQzhyf54Xpub2NaqmbtA/sZE15Vtr4zYsV6XF5to+6tOfHBah5Ipda3hyjSSVywLaUkz7g28pyv7b1CwXWtT/x/7S4lpHLqKP+IBntrMdgsih9WDFP1DcT88nlHDHLo2/4E2P2IOR8zs7JoKy5NY/0Qdjw3EJZmc+QKX7rqxvPkM0mYzLZNONpcsRv7YPsi/xSXdsXtQ760c7cFyY2vkDfl7DM/3c6LkMX+wH3ZfZcfZVc0rY9T7W+A5bbY6PGx14zTlzD7Wf7VMYeglxO8VmH87dn1rMyDw//HB/2JTeKD4qvtOV51bSZcjHPbpNx+/Tcv89EzyU7M31uC8bM7ZETakEuczk9SrpJaOa16wTT7HNp9dXO8foGn/sSMs/LiI96tl8sJWaC+zaPi+eKWCGTPhh7P9POB7JHmbcBtMc26dn5L8s8N+ayxxiUmJxLIuwZ1DfzuVmw1Fwsvp+PESPmLOzL/E1MnOfc3uavq6EMNSHXtox/VYPPkxSusbe2uA5o2o/fog456bPe/n3ZQbanmNwvlnG1L+3CluIzHCPaC5B/6GY/ZEeNa3LhtlQVKyu+ILsvbNnexqKxr/KYPR9bfb8GZkP27bww0WjbUn3h9Yf7JrA83B76fVugYVD+OccsmzSHfbSzOcaLhG16hH16zNn+9DA5PWtbqDzpjM3rXF59R5xpfbJYajQxEzyoNpA+KFbuJ0FgWqWuHmB5SoecHwHL5QOCRNgCi+N62JYJQ5M9QzaNTPGTPk8mnnxsY77KAVPbggkZWpCa+HSEx8ECWIdPnPi/OXi8HPRv9gP4qvbpQXUoKZA9l2cb2m98u5za0YxrNy54+E6xQRn3a9FJmI3H5JMNCNnsORfuv5G+wBWHMXuUBP0cLeNqOtW+tj/qQmbqXtOW1L4m/9QbAfd330dhz/2K7VhfcD7NQppzhsRt4blAvnhcYMty08+UP8+r9kXAPGQZj6hL8dq2tDYB8mX78J3lat/knx5LpfRTAnFKH6RtkzfFauWsC3r95tgoct4P2vNEGz/kbEE2YzLsfT9bkH3khngUk2XO3/rC7S2X4quNib0AFsFELhS/2FtssiG5iZ8efd8GzbGBct+HBtvnEpD22Ffp46oPGp2mZnKcKyO+/BFyscd51ssNaguXc1+C5MElygX92pzn8hM0Y4H2eptRVt6IwT5LTqp1vaa9LKdncw5qPFR7y9dfG+ErtHCMc1+Mvv7DorGPumTPdwiFbG2p9u05q8ZHjJIjcnF7L7H/jRzaQH8Ve39UudLOy4r1l7clW7gV90WiOWcvkv7YiLZaH0S7/RHwG3PGdEbGIGR7b9TYV7+NBWJP8ZU9kX2Xf2D6Xtfblz5M9dFGUCVQ7e3YKLf6dgsTt+L/QcQDZk99mXaKXHIxqg3L1l/T+iL5qW1BfbWJvEBz14Xpu316NMcG2TT9AjnmY5I5fowlSmZpC3TK67b5ypjX0hb8V22qVraP3PJccl94xBilXLn97ItzNF9eZ/YuA5abc07KrYnpevi/9x2Qp+Z4y36qr7CxUo9hc5RsQh9Y/qEHDyS38atNzGnQnJehH+1K2zEbLm9knkewj1zmmJfNOddy8f1ky/kvheXxcgiBF5UYvDwRMpDiwAUYsKi1rU8SHITFBvYjL7h28Pq+TYqwpxiQeJ8nD8umMyW+xSwv2HyA1digPZByfZWyjP9DB2XN7V+4Hc/1+AUO6mxT6PsCOVL7o44sjCY+1XLuPC7wGyeP7NflxjZZ0MHL42I2FJPjpJ28Tf45lxx9ij1kk7KvmEtZ7m75iZzxH+fPvlyeiB/lCfguNv4EKCvxTeb2k5w9+F5l4kXAVSCzPUpK/jYv2ab6DSnbt1dG/HU3KxW52jd+kjz5Yp/px6Xp1/LCmfZdBzRvDpKvYo8HxZ/Wl9Dpx6KJSXWotf/N3mU8KH+zcb3FAuvw0crVN7Y8n6Ic5JrQS88uv9jWttX+AJCLPXSiP/AoNuTLH0EzhlTOMfF/kdN2NL49s4w+55gx7iZ7OWjeMPgjYPuQQfQlyli/bQvZk55J5Lc557oOwDl+mj0I2eypvB+LkHNf1Pbj/5D7vgzYl51zOZciVx3QHOf+AM1YmGxiqQ+acTFfboNn2OPRzDFvV6rnvrS69Ojl3K4MbNf7eQL1PBdMjjg4z3kcs3fZrCIv+OL8S5QkW/95nngWG/S/y3iMnEvMnvxVX/lRKPbIJXLM+0UPvl3G/5xL876im5fFJm1KfMox6kG2r/EXy9h8tP/LHKh5WD3JE/bT8k4y7dW65J/nA2YH/jcZNuHL901GOc2n0AG2nx6g8Wu+qn3kbPJE/AzKiw2eNG/Sf1nGo4xBjQ14PAHHj3L8X3JJD+7LrBV62LJ9BjmVuZ1sETMwLc/ZdCj/qgW92OZHwL5yX1BuJSZyzjLeb7Av7lfzRfHjvUmO6O2nvMxv2cv2UYt4MRbhwSTkUWLAJ9mn/aJnz2pjdpDxbM5TWQbRRsC+Gr9JLnroi+I3ewtsjEv+rFflsAp4XrTxW72QrZTit22paw5rbxkLsqf8Ud/Edx1gcrFHzKxnMaktPBciBrAYYY+2UM5Va2nUyGImMAbc/fGGA7dv8ElgYlL64PHJIg+kD2qqZxv2ZbKHhH3VWzect/O7w39t/+bwmZ3fGa7et93LW3ubYGQfdfBjdU60an96NLmUGnxKTbfGJUpbkH/x1V5daeXql9+sJQfmO4vtp8Fm7y4g11t7UkTXwwEV8fv8x2TzNlIXuZivJmeSqRzpxT6fePpxhQyfoGplYo5g2/ZT1YJ96NnJKmTylq3dPhX18QOW0Q8lPoz401nsY4u8Ohv0ELCrM5Fn2rZ9Vsc5fAG2gX4xt2feQX2b53R7m5csh316NG32ctC3P4BO1Jl9ephsudS2sK8cL/cFbCM+gAcQ4x60MdGWKgecI2BfTbs6vcXQtK0bs/Cf49a6OE5Anqe1DwLI0R+TxxP1E9ngA9Mv7LrYzm1f2HlxseHjHDR92Mmxj9gRBfp13No+RF2MUd/+8JCl8ZgB5PBlfRRDn9yU/JNc85/MJUAuHL/R83LEChnAPrrWPnymuhCtdKz/06P0Bcloe1jANuxRX2uyfcC+uO9Ao9e0v5bnOcbxa12Mk8V3+3yc9r68LdaXGfiJmNYW8tvGqL4w//g242Jv+tmGcwHm23JAX1I5xQDRN7Bv+6K3mRwLwP7YhmNmi2zP50kQEnJv8icdnHPrWKaH63H/YRsxrS1eDpq8fOwAyiMm9OP1v7dfLGPtQQ5xDkIbOO+236bbQ46xZRmEHora89y64eLd1wxf2nlJ8lrLkWOxSY8as51PkMsYJF8RE/psX8F84jitHL4sfsRJReyjyGnT5xKwDP2whs/qKemVdrXzCblwW9KOydZGt7H50MSsr/sWk+09qtkXm/Fjy/rCj+3+PUTEhy+et21fov9q/OgPs69qc8SvMqzYiHOJ11z0Rcgg93L0JZfXeQEPuW/AeF80Mh6ei8luj6LqCzEjBuTaF5wj/E61SZsmZvP+s+Zvc8RlbCIXtKWZf0kvxtLa73FsvpgEnVTjNqjn+O0Yw95lygWU+KmI4/dy6T/EcXuTSG8pLI+XQ4kY0UQdkjxAPHgoLwPW2FTYhvUBD36eOlm+bt/O4Y3XfHx42Hf+ZHjgd14x/MYV7xp+9KLXDWdd8qbhhVf883DaN148/Pxlbxu+tvsK0wf4RJvjBBaTcota6HJbOBezMcnLXcaErL7avmAZNO10uXrKtDo1H2zjE/rcK1kP2zgpWCnHdx3A7bWFoMuIEb5AbS981XJrM+2HDbcfMh5ZhkbNJe95W8zWbfwRhAR77r+qketqLlxTsXzZL/liv1lmvSrHmyr4yTlncjtiv+ZvemQfTLSlkaFffQXZZ96fy76neggfmTZmlXM/BdOkDPdLY2+avTZK2Bf6r40Z2AsU5+Z22WvIna8ufq1dHGhbtI9fMLnNNrNpn2PmfKKk2oPIFWWNfdOG9cOnd35nOOvSNw1PuPgvhud/9212bnv+d//B9lF+/q4rilebDxSj7b8cy2SL5zL9bxocP8mccwV6tZx1mpidTow1SqPNHMN03D7rV/usN0kTI8ltv7ZtQSno88ID5Bi1Lo5zwHW5JRGH/k9+iy/Lnuy9HGTrah91sG30JvLPcJyJtvg+9CMG4HHJ7YqY2a6niZEe47mkKL5fLTKxV3su09jj6Tljy74CyE18qkN5tI1zRtubuejlFoOuaGeLiJnrQY5X44Q9aPPPD2C5mAQ/iJ/3Ygugw/ZsA0r8prTGx5bHdbH086H6r//XbY5bSlOOfZsCeIr8sl6WUVb1ajm4KC3in3jx69N7uFcNb7jmv7w0xwyqBNo+gBy61p+UGxPxocv928wT2Jc61qk2JrMvtmcb1Pl+zqnWscz5Zpvwl/aojssDjgGqlGS0xe3xf5XzI9Pm37eF4zNh39cjm4B9TZLteOzgi8e1GRd/FHlKXojH5Y3NWDtYP9mP9YUdI67b+6qv3+QrPebqy6hDCb/+hw+zp76wO4ciPp4jMZs9bovtu33asq+p/6f6Jv8SDzLKad9lxAhsXNmmqSM5+Yo6/M8xl8LyeDmEwCDERITcTJ5OLp802pBlUF4mcqrmAe8P5MBuTU82L/veOcOzv/vm4a+2fHz40s5Lzbv/hkeW0//X7tsxvPXazw5/9L1/tzfB8alvuYqNR+Sf4vGtVJE/dJuc2R421H78HzRtIRn2YYMYUWfxSi79gcR92eZfPmmzXEx0P7Hjvp1+jCIX03cZZaP9T3Jfzn0Revg/9JBrjZfjx7xAvMgz62Q9tDfKzT55Dpp2+dgBbhdktm9ubSR7PnFa/l4HP6xX2pw2zS2nSa+NWfNv+tzj5La4rwTHZ/uxXKwtjV/2RbmY7Pbp0SxQyKbNJc2rkJN+iYP4rDcWv+vjyMXyJ72QUN7Eh9/UvpBrXZLCV3q0vjp711ss3LbsneJGnRVxXJoPVN6/EWi+5+py3zdvvvbTw09fcvbwvm1ftq7w7sBvGJmM8rMu+dvhP677qpVPmw8RM58zTbQIUY5CtuGcOZfeb0wOa0sWjTF7zL9ynFu516UiXljVfp3My0NaeRPH9bj9Oa9WJ9rMCxeUx3GGIra3Ase8uR7+53NWiYO2uIz64jfRHg9oS7VP/7mMGG2bg8gLoLz0he1lPWtLeoCJcwvbk5zLPT4elHPIyLXxxXKyj7aYL7dBGzd4m1HL8SfsfWJzDMhs08Tnc256hH3Wz3rIne1LLpgj7AvxI3/oZNG2ERO+Rs+ZTXmN3xO5TI9PMrUl+h/bdsymx1gIE23wXcgcN9rNOUy0wdqd4Tyh0Ywb1bH9f27/hr1PA+/e9qVhq8uwDXvLxccw58J+SU763IcRE/oRE7WcC+fIMuKFb4vpdfDP7xPZhs//1ndhnx7FF2S2IRn9F/MR9tEWu4rrarCPvgDc5027PEeAuR11yGOs/TyWfJwhXuhhGxY2F9yX9XHjl3yl8hgzs3cZlHEhXwDloWey61lZ9H96hI3ZNzE3lGMrbEEe16w3t32VoRljgfLSFttW32E/cc5MNmxf8je5+mqPN/Zb5Wzjsj8m5GTLNs3rD5XDV7Wpxwto7Ds5cmP9xj5V93EC6IS9ZRwy2y+R5fFyyBGDasNism3jKErwgCUh17sc9qgvOqmsmVQYfJe379s1/MiFfzG89Kpz0gvATi/NB88+NzGZ4u9L735xW+qPpMX8R6//RolvV+eLZ+RQHJRcsm6rE/bYhgz4ZB3l2HIM80UH4vQTfGsfMoBcbNI26nK+ZDMlF9C0F+0MOT3avpi0N6k52FK5t8U+NXQ9w+3Nir/fxjq0n+dPxkrJPj/ntrfvrUW/mq+qx22xlVDAcqL48i3Inmp5yDZHQk7YfKVxxf+ZqmPW/J0s6kuU1rlA/5d+yGM3bVwydd/GKHKhhVK2rfYhg1FfVG6l7i+PV2tTQN9MyTPnn+2t1H2htj2Jo4Tsp/hCWePLyzPt3mJovFmsWsLeG5l0co3vw95lk5rve7qOjVeWf+uKdw//dt15ZQztvOZqYK9X7E8H8Cuu+ZB9WJn9kxJkt8/kOotJcnP+4fmY5KJH+bdXB9KjjGE/n7MOsLNs2HT2gcmRL/UFQF3omsTx0yPkQrJH9gX4K33B9vx/LYcu+zNfbm/5ex30iy/I1BehA/hNNdeZTch4hK/04PxDB1h010tClUEUk47JzQdH1Z/FDz3IUY4H26dHpd0PuT0ftPW1HND+WHwuT4/m3EB9mUei6oUNY2Uxdv4IJvYjZhc/7RSZX/9sPz18pzmWohx9z+Wm6OTX30mb2DMp2Td5FZ3Fg9kV2Nz0/uExtG3JG2ItDx3AOUGOtmarTNgC06Y+/MzOC9P/OYF96/YNn95+gcl8njBfniO2bfxWj3MJrMz3c31X52Trul8WWXj4sW195HKfCyj70Gvq3BfKvf25vurwfDZ7zxlEeV9W9I26bzlGnzE8n9IDMYPGU7KtY5n2wyZtOX88ArYHUcd6Zs8ynTM5X4vh+zwXoMfHk9mF7OUAUrFBHNcDIXG5SWxPueD8U+xT+TSbPC9qOf6vdDkXOT0jJuKRnH0ESY6+QJyw7+XSl/V/g3OGPvmaNsam72OcIZ3iKesXm0TI+L9qYV5XX824ks5ywpmLGbCBdBnEHsrbN3U0eNi6EfTr4Ket6xgkwwYfaF27b/vwu1e+z74Lnytw8g9FdwpSEa7IB6GDT35fe/VHh3du/bztZxWKz1Tzri2dHk3k4qvvl97eK21T2k//w5789vH9w72co6uhPCxMcp2cS/XV5JLk8JXjZb1JG5fTpiknGX7qXpLDLx4uA7bhAzznkevwf8Q0e5MyLFu/eEEfI6xsS3V84mpl7uP0LPGrDIrfVNbEZBl1YW96bo9Nl2eFx7WWQ4f1Rvuyy79UJf0mF5cB2/ALeuOL9C1eid/mxWNp9q7XanV7roNNrxVYzr4/JoMm/ySXvlw0yR+1IbCo0SepvnmRopiWT5il8rAx+258A9jgA8fXX/OftliPT/HRmDif4f+wgYwPLbHwv2TPlm48KS88Iue851L9H0Q5YJtmIZhrssRjgI2nC+yc75iG15lF+IU92TT5j7bF/WFr8UkOX6mw1uR+ZciqyCZRO9mmeVODGF6FeKUtZm+i1ffn2SDigTF7a0sf07Hy2Ie9+8P/JT6DXFwE3K/2pj7srS/DV9qSr7FxCX2jySU/Ap4LfFyYjsexBatXcDngdjVzocul9CW1xfLyclDKEybHLuff9cXY8cpyzneKPTYz2Jvku2bvOfOPU3GOS4H7wzzGfsRJWA6eN05DTa7c72zDMp7RBjyaulyOc93lu7c2r3sf8DuMzKbYV18g7IHJbm9z06v6MWvmEM/nMEg0xzzk8IW+8B3LdQ5fTZvdZlKusH0JCCgOSpu+8LahrM2fx6WWW8ywT/Op9EUqasaS5fSo44I6t/dHUGTocPxGp+5na5IjRoLvzkL+Jab5rjapIstpGzoG+WrnaNXJfty+7GcauesLpuSF+O7bjhFuS+e39GWi+oNEeqGTisbmqPWL75sUuaDM7RGL5wL7sjzDBvrF3n34TpETbI9+ibaMxc973H8V9gtiz/qyq1ssNbKYCet6H2RseSBYtk+rYsBJD9tm8hdfaRq4DMwmleGK+jd3f6+8Lu5LMyomFcqwHzQLeZaT3q9d8S57EQm/QRwwPKksF5eB1bhNbonL1q5M1qltCR2A22di33Q8tazl5XhEOeK7L2BxIj7Z523Ye10Ci4HwC1hmX7AP2eK7HuePnGorvS2ci9dlvzl+rq82kRcw3xQzsHHx/azDNlXOWqFHmXFb0pZqUvzpt6WZJ7fxvSx1uTT9yva9r7ApUpbDHmVtXmmPcw69JDd5cTnZ216xp5z9MSH39u4XcF7Q4VxKXT+vSo7ZJoDU9lOuy1uXu3nV9IU9Migrcfox5vxJXjTJf2D5RR/YM3LLsYPmFjbI7iOPRtXjvBn00z9c+1nfS3i93U5vUj6X7bOSXIZ5iA8o//Haz3V9UPvKYrsDlNW4NS+UsX2UgyqxhcuRWNrGrYGg/aS/H0+XLRfvV8hU3uRiehQ1bEw/l+cPPdwej8a+xrexKL5Q5zYUI8tkTzaWV7Q5lbf9WvPCI0DMAOef2LO8qK6PGfTjwrnUnKETMvVfyo/9ci4g9to8qn3jK8H9x7lwW6yM+qX/wLTo4UF1jew6oOmXTif2bRsxYUvxp40RaHIuUsL1Acr6mEH/+hc15qvYkG0qa4+Rap/jkxw5pO3YWCyG3gfL6I8SC4/ShkT0YXrWlrZtyLVZ5r4F0e8W38txrst3G+X9vem89s5tX7ALNtwHzTglXb61nONnrapX20L/p/LQAZEX4PM3dLgvuP1NDJcB+2pi4Ok55m2V2b5pC/tCebGp5f17ED7nM7At9ni4DZeDvi2xZ3n5Hv7nGFVqyyfy9zps2xxrOcdHW/I5HRrVxuzJpsjp2cRESZk/oZXwMkClRtN+kpu8rCbvm8R5eXzIzVcTrP8yvQ1T7FOOTS59/5nkMrUx2p/lam/j5/uQo1+Tpj1Mgk7I/gg4F9NyX6bF8V0P/vvX/8BsKBduM+qWgxpNzE7MiUQMEODB5wGalPM+5FqTBzmAr9dc9SH7LnzcVgr4DS4mT5GTI9abtNlvP4LX58ITjuPPUp6JtmR/QSOzPR5xUGBb1Vq9mv6oPfIqB0/a4pHFeoCDJn/XAVwOuK7I8Mv2nS8e/2KTcg/flkuUJ/q8ij3ay212m74tJUbCZLc3nbBP28gT9tUi6dFenxfrcVvYV5M/tDy+jRfFh4egjCVyYXvIXjdpn0EeJZdEE5/kMR0wk32SS1tIPx1kNee+/Z1c7JvyPn+XJ8opFyv3OuoXs+C+6Wwi/mJpxhO+u3HIAvqgxmnyGbG38vQIoq3QhfzebV+y/b12PstGfJ4D/fkMfHrnBY3fpj+Seq2pcp8L589jYJrRFuhHm+GX8m98kX0zntwQ2I/EZF9cbv3tNtCIuui/YExu+oVimM/IJW1H7fHw9qO89kvrD/Mn4HLTDxuKaX5Jb674gcnlTVmnF367fkH7Of/IBXmEb/zPcUq/GLV8IhcyGW//9LZYLt4WlEfOln+v5zTtwiPakhjTm1vO9vBTfZnnLCEXsplsi+vhv+h/fwSNTSOTjum7L+RC/c82i2XOYy7q0jbybtqNfHobBzK3I5jWhgt3X21fCdq/r57n8D/k11/9n+7XfVkuFY7ppsZEXnFscP6JMRk2kT/y5Zjc/uac38d0zFfsQz/yTNsmJufS20cuKKd2hn0zLgnz5Xoob+wJ3h/NBfK0+KmMzy1hY7l0fqfGhy3Zj8U3K7aP+GxvT/c9V3zou2zlRa/Gh+7oWLAvbCmXqpXkKE/UGNk+/WeyxSO9Jn7YsJwIHcDl5sf95lxqHbfF8vKY5plzCWDvOqCpG/OL8oifiPgTfcky+4JcYmKv1i0FzlzMAg28TQQfVBsSHvBGrgPGgwpwKOZt9hFcv3/38NdbPm6yXYU3KYW0E3XeQ2lcka+lmf5KPfbwQvKOrZ9r4gQ5w1rey7Fv23DNAZPMNs2Pk1AN21vbyVc5wPHsDopiTwdR05dd/OZAYtm0sh7nUraJrDE9Tl/H9mUu0HiDybaM6bmQfEXMrDHmq9aZ5GrcR6C5fYvtqTz30WRMuOL+i3LQ+E1yMzZkE4nh/8Y+6YQNf5preL9W7WzL9rzPssWeNi7pyXn149oQ9lYzXa+XY5/j4zCMcvxfj/f6ggryrKj21XNLc14hrYn+WwTN3GgySJFobKMNoL+iE/AbP8B1dTzyI374CXcOlWHrznOlPD3it0Au3nON2Qe53/J+nptel/TpdNi0bTx/aiNksg+gP4s9+rWpm2KDbWtPMvU32tHk73Jv38jwxflzX0SeSaWNT33ZjD37whzOdShv5ibJfV8wEcPsXQbcxg18nrFyr0t5VPv0dN8oa2K6DuC+4DnNxylge76izJh+9AXsOSbJfJ7mmZClGpNpfJFOb18WGJGHwza9fcDl1o7OR9D7iv0JewfdGq8N0Bi3r62x0hiP5KuOJfqv9sViacdjet8C7p86tzubJJe8MbbRdu5DagOAxcuuOsfkvWaa7fOHkuuG113zsfSeb5ftAYuZHgHHhxzxWxnbLFt8l3OplyfaNpJfnJea/MM+ewh5zlxoDJmx+NxHDOuzL5Rzncm+y8ezydwWV5pq79SWuB61Jb6LDbhf+FzOfWFbzjscN7m0fTHal0T7fmI8fg0IsfXD+825ncaCPCU6+1QbNP1CenzO43Jrv8dsyhN9fKZpA/er62GL9gd2/iGTEKHH58r6Hfv8CBpfJJtO2KftrK//DLeFbZZCG2EJPP0hjxne/7uvs+1aJzof27HBg8x6BUzwmMiQTQLtRMQvM8cP2zVX2tMsjNtE8D9+/CnAbVrB2NX5t6WFfID47YTzbZdLq9PlX4wgu4hHDen2kzYmU3mly8t0XM8fvhP/tX6rhtEcuGNtSY++nbbFg8r5xAf9iGR6LuNsG2oom2xLxmTPLZfnOovdxGGZT7G13Gzi+xeJiAndlIHJoMmFvnvUQ56Ljnlq2kLt5z7Gwx20NuN9AYqvZFzrWpsxOcYrKOPX+apy3gvgK/ZNDns8SJ4lFxC+2N72ipz2yKY/2acC35iHKkd5eiDjIGvV/cXAsbAJb+wbW25r0U/wi3dYFcmLcynbVF/NVfekEmcznO5iKQ85fv/jZhuOH83F9qivos62U8oBfBU9bguO5yxZ+Xj72/KoizwA60Nmm+ZNFR1byJfbgv1eBq0vakuRQvbyzu9Yu9gD22Sq3McPsnXEyftZTo+R/Lmc+4Ljm71JoPXFNRN9MUWv99vmUu0bX7AJGY8xezr/JiX852JYtzYml5q+XyCHffyXtzF/YD9LWyx+0cv7JqdtkwvZt76qDXaKjNeVcijPZe/6iUbGo+zbnsuLpz22sleTUzlHSgVVLmCv7k+OTbUJPfwfbUDZ5Xu32tV4kO82yh2UL7Lkrwq97drP1XZjS/bhFzR9SOW2xzbhK8ltv7f2eBSKfa4LxmJyueHvTc0+fKVtm1e1ybMx18FXyGZDMsfp5aLnjwnZfFXGfLXHVtr6HG58kQxGZcSED8hWXuUot72RXFKFC62N+TUpw3ssT/RLY0/ldG5q+wI6Wa/xBfvw5Y+Q+9evoLGB7DYgYmZ7tqkxIUEDZGuSm5gsk735dRvoRy7+CDh+k0uaB6HXtyVAfWPj+gDlsW9tiXlFvpZKjbwEsHh//fNePJxxl3vadi0v5vuB5AGLAQJzLWyKHiaIDz7qydPw/u34AZRcErZGepEsb3DT84nH3nN44ylPG379xDOHkw87LlcAMsoL/7x/6Z4tw9d3XW4yHLSTb/pEnJA9/1bGk6dTtQkd0Exq9F/kmXSivO8Ltg8dwAcr2xu0qOWTJfuFftj0Y8n9Mh6fvdV9xBs7qC1P37W+8B3behzoNydFastcuRRf/ghamensY99yzPmbS4o5JuOTybDPfTnZfvgqMQDbw6bkn32YbL6m22S9kKtOtnD79Bgby+whU6XOPm1CBr1eocmL9Cfsx22mjR+XQ79pi+sYTbsWR8QEdmyVOVDzMThWI1cdnttg2nwAkO58xCkmw5W/D0xydQy35ZyXTqxxt9GxG47IRk7rN8leZ/lH33ZtqVJizJf1g+8nnaausSGo3MaMcuFju5ZDniwHOeNcN5n/uE2Q5wzpOSjh+cQakCPNiXiRc+wHTXyCypsrGNYXNT7rjfWFnSfI++RdRc5ILtk6l7Af6JdybBr7qmfWvpvlsLE9l9OzaUsuA6EDsn3OeWJcR8alzau+/mHLv4Wy4L6AfuilbTsvyKqLH/vQqL6SNBq/+mpe4/xhctcXbL9omvnUxR1pq7Uv4Db0eft+U9614eXf+w+X4Cot390ftiFjoY/3ZwCW0T/4n301/cF5+SOYxYZlG/Oy3/oaP059mzAL18O22Cedaee8TJtvqCFe6c/OvvhNQIqqthy+8n6WZ8s/4Pj9WLLc23MurDcmj8XP1nmf45s00hbyWvRBtvb9pD86FnPkUkg643XTyyGX/c5+rnEN8lwK2QWntaHKkbbYuPo++nWWvoCHALbF30RfECPxrS2x29kvBZoRi+dp3cL9AWlBv5aJzse2nizyJAns4Is621Y59NqTFbxV+6/tvCyNc54Ne9MmTvZ716UXATd56y3+1/D8Ex8ynHnMnYezTviB4bU3/fHypphvrceVrvCF21I/vcP/3EmKHVf3IePRywBS5Gk1kXOiHgjVBvXcF007CUpxSl9wjFpnNSGTT8hczvHZ16i9P0xGuedmvprbhygXqoMc5RnX8UdgeU054ZkW27tO9ju9L60u7FnGI3T8ESD/AGM3zVc7Fp5zAmV84jP78E1jmUvJL/kq+gmO2dqn+C6D4gs1FB8l+Zn+J1+tRt2z/Js3/lTXjWulesgxqj3rNX2JR6mzvSw1OrVfQWiD0A9iz2xpXtYY2RfvLwZYl/zgn/IIGeWcdy+XHOjgbttZ/eYY64cnH5dfL/buT8t1N8/nrAy2cTs9FvRxRf7hR91x0jfnH7kkIiYIOeIHzRha3aSvphyPJn7XF64Hij3+87agvuY/2a8lDsUHTTnJY30BQoZOnfdtPeefZfdtjwz77eX2eKoytwVtZ5uYJyjr2x+YffHNfiGTL6f3hbZwzNCEFHoWg2pa+2qV/VRfTNmnNoLsy21SOefClBhdDfIPcP4q9hSDsfKYY0me6IvGewYl3Bdsz9qoK3ma76itWWeJdTh+ergNhp6tmdBBOdsvFvZhfejxIg7o28Zy0wboRX5kD+p+snb5nOu+Mnx+50Umgz3UcFyRD/na/TuG37ziX0zGOJWK5CdyAZan+25y9ofJZIMtH5tNX5AvpBJ1Zu/l4QdAGrMvfhI5OpXT+5kJe9ZzefL1o+qEPuB+4rrsqxL72PbxA7Mmu5CwZXuO0b43TPD7NtdrYqA8fKXHRJ3bhA6AFHumEfZp2+bf9uU0Oet7eXqwfX/+nhYHWy4vcucLpSjLct4Cs4ly2E7pL2BtId/YzyQ5yjtfIQPLk+vcBpRybJt5WXX6fml8TZPtwTbcF6EFOe+bTPZLpUZbAn/zH+92KfPRL9KvEK8x+HtLoOynQWknwoY0SVymwWJ7qJerrWkT9vh1+X2pvCy+07PcQo/yJD7r+P85nHb4TZqrtces2zT8yU2eZHJcwQJ2+5afGPEGedu+/F0sm7ycT+SZVJuJODEps17WqXI/eYNGTvmGHmL3dVlo47f9SjLZ28FGfcF6bS7Jr3dlH380/8Yv6aDcfUE/9CCXfk1FE7n4LvuFSuiZ/Uj+XG7zynfZFyj7UBnxZX3hWL5RBZvYSbZtfP5OULXpT0pN/iUXtKvGtO+eelX+ZetqExXQb+cCXXWi/M02wqTyJhfWa/q8s3eydd7HdpZ5wX3JfYF+aGxC7vqisfdHyPg/5Lb/Rq7ALZImh6ZtNR8wNp/6ceK68j3jVNTarLOF/PcdfkI6lOo5D+e5+DASW3vDm0ARnvjA8kc3n97k0h8zEaeN188najO1n48tzB/2VWKmzZiv/jiteUJ2vfns3cTGwrsFfpqcw2+qjxxB4wsZUD7h2NpCNo1M+ib7PtugHeXYSkVt/t3cdHdsD4peyr+1r3Kj37SFfKUN680t1/1CKmr0qP08FqW9CeQYNpDLmKdt237y1djDOtdhW+3xb3pfNPZmVe3LMTvRl16eMH3f5fxLocP2E+fJsLdc8o756uM4Y7LZuw3ngi32fKfJf7E0uaGffBc5RFuhMzHuDvdHyS1hWbse8sYjZNTh1+h/+fJ/TO+7KjiUm/d2LmPzmR3fGV5/zcesW8IXaMajL/fdfpxLW9KG51NrTza9feilTR0PmqcJ9sU2UJnWL4Blzr85z+WezTJijuTf5EzjCjnyzNFJbxY52VffOZug6KVcLaYDrahifTA1l7SZGFevQnuLnm2znPsiyvN+YLLvNn1B+oDjc53l7zQytRE0NlGXNs0xgvNfqcqPXgY8l1r76bJZuw1suf3NvGSZ41G7UNz65pjsl9rSjHeyGM2Z7ZPs+/l1IeR67lkqy+LlTWkh//Ov/7/DOZ//xPCsV73Y9tcyMUmwjQWyHdQ8+dMjTtDQafRikNOkiEmG+rDfvH7TcLcjbzHc78hbDT9w5K2H/3HEzYp8j03fN9x706l2FZ4nK+zx6eCdky5ovi/PMRNf3nmpbTEpo7zkl0DekRewyU/1XMcyt3FiglfzIsM24udt2Ne+ACZX1yWO9Vm0y+uNJDc5Utv5AOM2W2nski/ocFvga8IO21QeMRsd23D8+qcwuP35k8GqFzqT8akvk03RS4/wlfNwpbSZGAuHcwFxkjL7EoNskhxtBFYe9qiL+Glb7gih8t6+Gdekz/Zswzky9ml4VGFLauyr2KdN8Zto3hyQHjah1dtz/zW+ILsaH1fVE/x25wGqy32ZZZSz79DjMvhhe8PtlwT5iHh5W/PmNxJNf6RHaV+i2Fu5iW2OSUbdceuPHF55kycNe3BF3skL96yMaVnOpel59PqN+QNLt6+YYobqkEfRQ/0UHYC2RP62Yb3Slrxv2BhMh89fdp6PYwt+ojPg1z3YeHoMAPumL10P2/3RT6iuKnkOOjlOlvl8jm3rqyg1Y4ljg+vCFwh7UHWQfzsXAkhjbRnzy3I7LvvoPIUCE/OW5Ik3UlGXKGOZtqHF8cyexo/HAluWeczyORzb1h/ksLE8XLR54XpZx0TTba/0tb7CHvqlLXhQLhyP5yL3JZ+n2B4y23Nf2BwpVXVeMX0ezbxCndtzHGzDCvYlvJVX+8Uy1oZ9OJZcxjbmlpWNjmc7H+p8rFrRhrMu+Zth676d9hc5gj3p7Baa+IgywJ1GOO/91hX/Mnx153dzDoncBzV+M4YoL3o1T/s/QqKcxoRl0wxf0d6E6ZB9SR++PAZoji2qg37JkeOlIp4P0A89BjYlDqpDpbPnsTQaV9me24JYrX3NjfvVDFyEBheXNqbHhC/Xg37o5fZn2Wh8VWyOeiDkEf1mPUF5ci7NvDZ73wGk1+TC9n1fOiaTr4huW7IPLN+iFXGyguXvddwO2HNbGnvI5L/pC9QBzFeyR22Avoj3DNjEuHKemO9lvNOG28/nnDYXGpe0jdfiEstp7bvzhUlZ7swWTY22RN75Xx+w579++iNesnYpEwEPmphRDjApih7JgOUQURYnFSzGX3PTpwxvvtkzhnfc4tmN/LpTnjr89c1/yhb1sAlfZp+e+AQYxBUsYFfkfR/yHTfm2++Re2RinmKCpsfkAV7rWK+0P7kf64tGho7vZtF3zD5ikt9EY58OvtjPkstJv82Zr4jU8ubNZrKJOBwPlHKKAfJI1rqkSLKJJrM/PtlazKpYaPRTjhhNkLVrHb/YgqhrY6Cc9tm+k2Pftl5lpZRPI4dSIpfnfW4XtpyPTz2jse/l0MNc8Dr2C/gq9MQbD4f1AddNzusM8i0xbVtlnkuNL2oj+wKcQ9hkX1Vvmg6AHHU2F8g+ylkGrLdYJvz5PrZN3nO0oezTmIPRdnsf4nz2ayedaTLAi1ycw7KcwZ1JLz750eUDSx4D/nXxsb6wcqpivZx93m/sG/0UscRJ2hSzic9GieIPc3uKHrbcFuxHHV4Xwj6XTo8zNi7sF3DbxsaFx591rJxzKb5sz+Xept6d0dhjW00a+16ebl9lwDG5L5rjl3zh/1aPfVW5sUnlIVsuLs8531mvh4ojJnT7uRBM5Ohxc14V7heu4fx7mwDlnH/TFvaF1+KIg3nNdS5j25Q3/dLqWYHL4dfk9Fgq7KPtQ84nlY+EKu1MQA5/zRy0jZenx8uv/oDdXWnvvuhHEyDF+7FamuS0E2/4f+6ytw3X7c8/dmzRRuI387SRcZ6q+zyfJu/kcr20aced/IVOojn/NPq1L0wOm9SksTxRHnptjPiv1QesN3accB9hG/FZBv1re7VBW7LvZoyBi1m7lnO/WLsoZoCyti9aG2gDs/XJ0cj+CNq2TO8L0/Hd3p7b1dr0bZneF2FjXrnc3pvRftSldnCc2WTaT5uQ4ZP1+tf/aXomcZ4suw4Y0+HXMmtL9Et6jL3+Q45927o/7uOlsnyeErv27B5++N5nDPc77a7D6be5Y3meeuObDRsPO9y1Vjc8QIAHaOxAghx7jU4a0Ev3XGs/cvInV31w+KXL/3H40YteN7zse+cMf3/tp4eL9lxT9AI7wRRvk3X4e6QAV+EDiLGb5bz3B1e+b3jt1R+zW7nO23Vp8ZvzrX6Z0TamPHi/uaJAdVkKven22PIJuj+pBNx29gVqjEk59lm2PfLXxmzbHDZo4+gLCcnNyZbbZVrT6ziXsbx6nfBlved6KEOcoG9X1Jhe184g8rIIHJN0WAZjOc8lhw3bgjZmpYnhOQKURz5ZqjL3BdO0HfZNzLCvMuA5nmtcr8mrloMx+7G8ehpfXY79hzwLhf0BjoW9/H9+BNP6CaA89tHOWpP23Qb/c78/5ti7Dv/3xj9icv5TdFkP5yss6o9bv2l45y1+ZnjwUadZOWjGjeYAzyfMjZDxP+fJ86Y5t7AOfNH+mH1vE7B976v2RS0DzfmT6iA3fU5y0xaSQfho9CdyaWMWG/t/Oo09xWxyJB0uBxyjOU92/RfwGOcMW3/BLOMSHkDui7YuQM6hl6XJmKbj+fc6yCX2chzXY79mW22Y8Av6HNuYuS5LVa/tP/ZF/1MugGWGfTV+KUfEbuZvkz/7pfIu/lj+i8E8NznQGGBvpH9Gyzk385VhX+/c+vnhb7d82mQQv/EBcJt97PJvgeDDypAv2n3N8L8u/btyYaaPWeF2pYe3M+cbcno27a/U7JOcco92Zl8Uk1+ruLzJpSX0zO+IDZdzjsig1Yu8Wr3IF3Belr/LGd4j+zFf3fm3qfO8YNv0BdpZ9Ko+KDZWnut6e1skRx0enJvLE+XpEVQp60cderLRG7Hn829LW179psdYLhY/w6//KB97/R+T2S+XgzZ+ax92PI/615jWN/tq5X7ftkl/WjkYa0sfk/9M91Joe2WJXHntNcM7P/4BW9Azt7vZ9w9POePM4aYnnOQlqxcbujIR88N3Jog60+8mCT6pfdolfz380IWvHn7+srcNr7zqP4YPX3++lb/0qnOGl37vA8MDvv2y4WHf+ZPhX7d+sfhicvRcvm3/zuF1aVEOW1BfHvCmOMm+ix+UuuPGm5p83s7Lhj+/+qN2K9ejvvNnw5kXvcY+RNi6f0d9RUmMXQXGpvQFJjX1S2Mf+gnolAOZbSCTHttDrnVVL0vT5bH8Qwf0NiwHkV+l2/ddzh9ynLqsrG9L8ckntSjLMvsa6//YApyseL+Fyv0Tf8PESRv4KTFKrhmO0eh1Mo+xF+d6Hhd7uh6e1BdFTtuqU2WAfin7aRMyttyv03TAaL92MV1ERWtT74ps9Ng+12Q5S1Vme7vNdkrO2E6dI00MH3/XWyy4UlPikq8ciWO1dYGNx5Q2ZKg8fGPLx0biScedbrfZ46sZUYUFPRby/3iLZ9vdROHX/LB9kktMlhPRhyjlN2Itll2VvB7/t+3KTItf6OIzUZ63VafRT3Oj5pdqKNeSS9o2beH4CY7Dcu2LVmcCL0KUIJ9nMtkr2XP8Zm6n+sg5yXxuKLnY1uUpcH6s1fRFyNAY6Qtsik2UAegXlfSg45znez/3wwfLsWnwmAzyiFyQe9hnqeo35xzuy06PxaCpT7AvjGvUmyfyG1iOHD9R6tOm2EDPZTI33aKf4H2zmSb7FkCOOb4UeNwM383lebLkDCgH1+HcDIxBqcQzy2GDCzO/cvk/59v2E/DOV+QjHuD3aXbnkevhf7w/+5GLXjds3Zfej3VEX0+cc10GJcdc4zJo5abORS5jDfPfNKXeqpxnk8vQK0bp6e87qicH5zkv4362OK6aS8MuSf3xEHVmkuV8Lshytp6UDWpLUwe/5iORNuU8i0eYw5bsjWJSfcUWcLnZdufJqGI9PjeAkHN+tdxqPDnWB8UGj9CB3+bYrnKj54+Qy7GUNqW882Wy22dIL8qpvpQF6P+wwSPq+3KXDR4LlhNVr7UJv7mMyqktfO5obP0R8mh8yhkUmxSb745ZCks/Q3Zs3X798P++cV7zxHfn//1zHx8ecY/7Dyceu9k1Vyf8iQoGonzakgaLP3kxHR87fiHatm/n8LOXvcWuvH9y+wVlXYUTPX+PCsc3TvJf2nnp8FtX/svw5IvfMFy4+2rzVSafx8fi/y7f/J3hz7d81MoBvocVhC9w9PojhocfeyeT8ea43L6aHhfv3mIfBJx54WuGz+680MpBxANNG2HqKdsbtP25Dr76iRvxc194/ulgKX3pD99pPwGGXKqS4LKNBfXFqD3l39pTeZJL22DvBzJeXIvfBI8l2ht1ObrrpaaWT5pTUfNpNPcfKj2O5U/59LkFZuO73H4QMnQiDvq9iTlHLuYbcvJT6tAWL8emyAnIZVyTfpsnxWG5zyVcJ1uO726tLMrzxuWE9ZHvWoxQS+VxKLHfTGfvmI7vxjwGsC/5J5/tvCKZ/WJek++il4pYZp2p+olcnuuQY6njcUkctu4wlxbPYekRLu3YHGlDUUo07Ya+93vTBjy4rdGfibY8y/jxu589/gw6Nw3DC2/0CLudHvrNeFCc/jwRvpv/UeY6cx7bVG75eruyT7JpxorsKQ78llzSNmya86Spu5yYOP49Pii5pbLwC/o+D3pf9DJTbZIKt5/tYd7su8xtQRHn0stxy3C2dXt7uD3a4uVgQvZdxGv62e1tLOn1pzlOoRP2fM7uciztRziuI/tUUeScS94xe8qL8x/rVyv3sUD3lLq0aWwoF4vhNhwfTM0fvjivVM423BdFTo9ig7x6fd+110jPBa//8ebX7D2XZo4nzK/v5jf7WW77iHJOO4evW/rdnIeRD+53BIj5hHZy3PJmPun2fch5c/v+8drP24UZuI93YJibu31RD/Cr9fG6uT/FiGMDV+ftVqREvDfD+z+897vOf6AYWLxs0owNcoxcJtri5YBl5B+5cL/APvRsDOM1MdW3fZFkd8fHpRWGr/Tov94S9H0ZMr83BKWdaTNxbvRdsw9gT3qlzuyrHttYPDex6D7+nAdE3m9jJNnbnMciA53QM5nsuS1N/5OO7ZE95zyRf8RHubuwXJo4JNN5kmP2MtsXxzYXyFcjtzmW/O0xGbN/LeZ4Nq+iX1J56EGO9ps80pamvdQX5iuO8UTTr66TSbLvcrtQVPahwm0m+6YvOH568HvNpbA8XhI3u9HJw11uedvh+KOP9ZKW71595XDehd+0P1WHW+1XM2Xy2FBmbHB8sgEbPNqHjNuknn7J2cO/bzvPi/bVHwVLvqqcT+QBfgTq4zu+aVfncQs8+6UMJj4ICGAf8/Xhx9yx2qey+AQY8t592QofGJx16d/YJ8sA7S2TManXdicpJiy2IaZHc1BgnyZzxDc/NeVGp+lbf4Tc2BO838jkt80jadEBF1hJHGxpy21pSCrFOuUUvhGby9tckuz584mH+yHrV5v+RMTtD9924iAfJUbS5/jcllra5mXbkFMxt4v7D76Kb7Lp+zR0UM65tC/WJCc/IVup+4PM8a0uPXqstNjU/OG3tR/3xTYFVNM+62OOxX6WMxiXose+Es24dn05VU4UKQncluX4ZJfngPl2mccN/zd92MslQYi+Q23o50B7nqg98nMnPmi4+eHHm3yfI08dfur4+5scORlJOcYZmN8p+Zsi2UVM6LdtSSXuz9pCNpGz2fAbBorf+PJHwX2hJMqhHy02v2SfNTOmFXllzSwj39BL/ptcXCeTtKIOem5j1mTDIJfim/QsZuRJ/QOZY472RR+PfIzZ517y+Ni6TdNe5Ms5un5Q4+dN0OsFMS6gjxOM2aK80YO959zkac+Q86PIFDPKC7QbIrcZ2+jLXFoN+rxKHORHY1Fs0obHhf3ZeS7ssS0mpJMe3JeIEXuhE9T9Vp9zXiz9B52Rt2253dQfRU5wrmhP7Nv/bv/XWz5hv1AP7L2dSUlOSvx+LL9Ny/a4QzLem+XFe9bE4jls8OPEeD+G92XAontuTd9QOyD3OQf9HIj93CrXg70nZvVeDP2+XxobrnPZNKic408c247peHtg28xntieZ7WETe9mmxqg1rQ3n0rw3S5Q4yMn7xfLi+JDdnW1GYoYNqrktpuNq0Akb20ZflP9yedOvtp9lLs85ZzH3S66zrZcDbkuOnzFfJT5ieI1tXE71TVv6+ETEByWXpM/nGYtPPorMvhBz/aQvYG3xXR4XY1pbEq3c90Wuw7b2Eztt+49zMXzXNhEf738p5lKokZfAY+/7oOHjL/vb4Xd+8ueGT73izVMX8yj7lxf/6fBHZ/3C8LXXvXs4YxX/rfkYJP4UCXI/kDFIKMft6rhN6su7LrMygPGMBTtO3HtjUZ3Aojz29sNP2rl2347haZecnRfzVpHieExoxye7gMSm/OdOeJBLiVS817+8BRWL48AGnyxjMc8ntf4EBx+xjb5Au8cOitAB/UI2bKzvSA9ytIE/6TJ9il/qKBfQy7Fv8Rv7yKfqmEQxeYwhcz+zHiyDsXlRYgfsK+xT2Vj/wU/0C+sA7tveJuhPVkzoWb5sz3LSKXrkt+lLy7+1CVjOfUkd4KBsPH6Xv5ubjsv9+DRj0cUPUM65RB38jtmjro4FZBMn4yM3yHiM5dIdY5xL2Jh9egQsLwVuX0CnpcR43FyTvzb0lZ3fpZrq18Yz2pr8Nu02Oe/Dz/NOeLDJP3LsPWw/iOM84gW2F3XkF+Cc+aWdl0zE7O2Z4ovKm/kIX1THMvcjjyeGsonP/dLZ837MZxD27byocwtwDMuF7BluC+eM8vDf59XE9TrEa9rV2UQd5wKdKJ/Lnssbkh/WC8wvlXO7OH7TJ+wLMtmwP9u6neVFvjhO8ZUwa2pn6dekX7WS/cg5m79HaX3pddiWoUjb0f7r5NjHlseSKb7QLsqL22hQ/JDhk9vLfQn7CGl+Q+78xj63abnIOeTA0Rcg90zNm3No9Ng+ybj1He+VfufK91gZQC3/5Za4zR7gbsl4d2f/F7UUw8OgKOyxbjwvnU9xIQfn1j5/zjl8geg70/C2gOY8QXJP2Nt4jtjwuPF4YhsfBFiuXm79yr7SfrQFtHGcWm1M5EK+g9xHvpPgusa+salyE7PzEzbIe6IvSy61L6BX2ki+UNTnwvsB9w9E7vPWvraZffHxi/jNXBjzlR7hqz1LkR58udznnvem1Fn8KpfcIEd5ougnTPZcJvDyHKG16fcBtxf9Ok0HjMopRx6PqMOW9ZrjIslFb6Tvl8qyeMJV9gBX2+96q9v7XgVlvMDH4n+1Y0PHk6+biDHg+9Ni+ZmX/K3dJpUX3FZsczCmBLZ8RR632sfJ3hb17npLetF49qVvKT+CEg4Qi/9W6d519YUjflDll270sOHmh+WrXABlESNHC2fZBvzWFe+2W+5LFf1qC09ca3utauowYaMvoFfqUhHrFd9Jt/GNh/ct3BSZc0GZl4PQAXyCaA4e8mXxqru8n+gP9t4+MD++D7n4hUz2kMuJAPG9LvRBY++PwPa8Du0vcpfntLYAzh9yY0OUcspxrr5AObeB+yJk2PfxC5xvsuE4haTTx2z60uObfcj+CGaVY5/L52p/35ZiT+3PTLeHfrSF5zVocvC6vi+XG8SMqIgYe5N9kGW8wfzJi/96+L6v/5p9bejRF/75cOr5vzGcdembhq/sqn9KiUHfNH2Q9nk8b+FX5PE35nk8Q4X7GYQOQD8hLuLf6hu/OTzqwj9Lb4RfNdzq/N8cnnPpm21RD/22Le0YBuy3j9fsN3Xt2ESdbaOJNIbmieL0Y8t1Yc/xAMc0f15v5wmXuRxbnmuj7SS575exnNkG5TyuTOhNzqvqa8xvEx9+OTfWIxk6sW/2VDdn+Zhvj4+y0sZEb8/tLzknwoJj5HnR2gcsN23BNpwBV+v7lWP3fmPfdNzX1L5wGpn8Ap5X7Vgmq9ClfJu+4/gUY7lorgJ3+XDenF/TVjzc5ss7Lhl+7OK/tAseaEJZfOM/bzbeu/EV+bqMz3Xx3g6Lfe6HCIkyvB/DhRycW8/e8okSfyIvki2hhM2BaGNidDGR1MMD+zKatGpNY59g+2illZE9SoImStKJ9ufyKXqpuj8fRNvsPMftdBtsx+cj51+P0xIvAZ/Nvst5O1lu1HAN5inGbprfsCP7rMW+vRLjSuVoS9kn++Ycnx48x9h+wlf0a1KPOmwbueh055le9pBNudsC6wveZz08vK63L/vIsbMvY4nyaDK1xYi8kk4/r4JmjkyJAybaTzawL33ex18meBYvmo98Md+CHVxwuV8xJvqyc7/1NZdWLxggvuWnTJYE9mMCvP/6rwwf3/4tk3ErVb0Kn54xpmmHzP02eZ8kVAn77+y+yn6dvpkQaXLVm7nSiwIdvIj3Y8fec3jBiQ8zm5iI0CjxU3nJK5WFNV48/o/fLgb6CV/kZMCfrnFuPMk5PrZFTo+wx0EQ+sBsfN/0PTnOxeqjHI/asBTfBQCZ7EM2wiSVcV7mm4h9jt/4oRhNuVNy9hgGYkYctk9w/JxNjR967Zi0+k0OJJeTS6Lx61uDRI5hwJz8hR3rmVfqyz6XsOG+jDLA9kYXj3WjzspC7m07+6D3xXZR3utw/8HvVPtU3hwXY21J5TwvuC/Cht8Eo365vl81jfzDd5M5YItHgAtNuBqFN5if2PGt0iQ7lyTd92378vBD33nN8Patn7Nys6V2tzK1226Zy3G4my2+5wI4F/6qxp9c/cHhzAv/1OLjzXW8wcZXif7tuvNsUf8PW/5fY9+PR+xnr1mvaX+qL3KCZbNle6/i3K2tHHMue69jHc7FtiO+MP9K3Fps1HNusqBzpnmmXBvfUU45NnKC46M89vucwxf6IsoN8tX4TipFj8sTpS3+aHA9i8/tciy+l/e25o3qin3yGbqNXyoHZtPtx7bMd7LPZVWf25g9uX3EC3g32kv6Bt4ikL+ID5r8Xbb/u/hT7VMZt4XHoj1PVnvoRW7Ysq/l+hGoadificphcy6RXirjPghylmEQ+4P9tZ+nXPLG4cv4m+8JnPPiEML5Jr6qCF/x3gqY7Lt4Pxdyts8O7JxVbOp7M/A7V753eNKFr7db7fvcUgNcqG2Z0Kmu8uLX62w8Gvs6huUW5mTb+yr2XJ4o5eyXYgPoxLhjzvB8DDgng3xYDN+3ORd1fRz3wfpG56uZw9x+zp/SMX+O6fk+9EOGnxKfyuGryAmW0ZbYL7ETuSz2sVfr2je61R/7AiFn68lyA67cneXMOVBbxnSMNp0Kl4c9YtPrjzHF3uJ4nrENJl6/oj75KbmlTcg8LhaL4jW+uZzi81zNpdNtLL7XwYbtlotl8fjqd795+KU3vMy2D/+NZ6dF+yVeU0EZ6qDzrFe9eHjTf7zba1Y3MUAY4FjUA5THC9hvpxNvHddU7hJOznGCxv97015gJ3WWy0Ga7FPI16UXEdyuH5MC1fFmFfCJH7emvvwmP2qyTd70AIgQJvAf8XFy51z+6/pv2nf0QTN54yBI8ATHpsgJsylVSaipFRr7RCOnumg/x7f+Jl99/weNDdrveVvEkNM2FkYTubgO6E8Wgdl7HJQXGeWUF8qjLTlKjR9xzH6kLdCJmWHWZBMyJggeJqYHtz/KgcXwXVsEha+0LfFTqLBH3o2vpBc2pk9jUXJJlJhpw/EhR1uMKfacC8cDsI995FVsqByMtb+RWd/jgSZektmm0RvxlS3qftCXzyJjr+//lST89+3muL9z1XvLb2nYnUM+t3GYlHNbkl9w+TtMz3yFfaru/Za5nYwu3pX//Cb+DCf3dfTBRF4u44OFl1/1geYciBxsm55R/guXv214f1rUB9yufmy5rpwD0qaJzzrIzfezfq2bOh/Ths8t9mGc7/b6kRv6OmKg30ZzIb/QCT3LsasLTPbus3hehVzCBvbzjQWwOs/HtFwGIU3kzzLbp9hFTtvSN6moaQvFaMaSdcgX2sp1/fgHVXKdOsWaD9ZamxpnzC/gfbxKB/3482th0xfhO1X3NkEssIHpeP7cX5DDBqHY3vR8t4nB9uhX70uM60QuVbXAOiyvDLV9JnnuyJnHJ/KwuUnt++T2bw8P/86r7K/9bNm3vZ5b0jamg8lRnjox7nAEeJ9W93DOy0C/OWe5CG1+bwfxv/w3k1551QetHiDfpl08HyOZBLeF50Mzhv4wOZXze6P+QkHMRxt3smnicL+S3MRM9lPndnrEWJhfjwFsL3zULmrt07aMZfJf9BONr5Fy0OiN9GWjg8dYndujvimHft1t61yGzmhfdG0ObFZQedjYvG7sSUa570Y80Nj3fUn9wjb9WBSbNF7FF3IhXzZHfNfsYyfB9iVOKmp0coEBX+UYgd+gt6f4va/Yt23MM9iHv96+8xX74We5WbfxcadHWmuOkzefMFx0dv5zbMvBtm3bhr179w4bNsz/aXGckL6869J00n+1yfnAAfkNawxqTDLsxWBg6sZJnWW2+e2THz086/gftNtacUUM32WNYwknW5z8cTv9L574UHPMkwvABncK1Pg5LxD2AH5/bPM97c9CAc496Mv4IO8PeCbsrL+SCrdvTAYcq2eWeEGJT+UcY5qv3kdQfFFb2Bfo/Y35GqPJjWQQvufyyXVmj1Q7m96++J2SO5gWq9cFc+mPMZbLhNzrdfugjz8tR2B6U/oFjNqMlINpufT09rPYTGPHjh3DSSct/M98Xn311cPhh8//69DchzjvPPHC19VzTipDLede9SEPwytu/MThyelcgvqxNuK292dc8jfDhWkBHzq4vf6vTvlJ++X6MTuU/4L9rgeutINp8xrU8s0bNg2fvOX/GY5bf6SV5dppdjVeM+9Y7myA+RqbM6Q/F70vmJhM9qwD+rqQQezPZdPT+PP2TCsLxtrMNPbpAcbizwf3i+2P+O7lafoZ6E2x7+JMw3QSY/NiLtv54FzGmK8vZsml0VvgWPb09nPpzsXu3buHE044wfdm58orrxw2bdrke5PM0icox3sl/Hnej6fzHnp30i6DEWIZ9O/nIIVN6EzLATJo3wOyzTDc4rAT7G7LHzv29Fw2ZazYJzMxNjOMNTOr3yDaM62tPdPq4BdFYzbBXH6Z0Tz7fpnBX9+2wMqRtvsb88Xlozrz5DXNbswGW/yblteE35F+CuaqtziJ3ncfg4E/VE2rL/YUs9cfy5/LIYNpNmMyYF/4V+TELPY9WFNu3ry0v+ZGH0+I5QSDiydu7cRAxkDj/yrnx3HrN9ki+ZLb/eFwaXq+A38v+Yj8t95B8ymtPwDeSDPxhhr+npRO6p+65QsnbqdnEAdvYu98xCm2H35B8wlwMuVY0yZlX8bxpsUOws76i3zMJfP+NGaJF8Q+l+cIXj7FF+sybFNkfwS9P66bBfbHMgjfXNbT6OMxxaa3LzpTcu91g14XzKU/Rq/Pfhu51+v2QY4+3Z4xLa9jfTBqM1IOeh/T6O1nsbkhsL7x3P4B3wulNHGeinNIlvi8lfmFy98+vOiKfzF5WhuxiMePgn5nz9XFHlt8nQjl9t32KXbgFy57uy3iASzZvspt+TV7t5c7CrhtHKOPx2PVyJ1N7I/OGa+fj95XkX0Lcmm7H7AMYj9bjOsxjZ63Z1pZMNZmpo/N+wuF+wX0cuz3csByZsS+izMN06H2s/58tvORo88Qn3RmkXsaPWrLGHP66uzn0r0hmKtP8FtEOD/gCjwufOB90NznlgzLgN/DtefJSuuryqB9D1iBfGE6V+IupPte8H/tTqT4dXtmrM8nxmaGsWZm9RtAn23G7MG0OvidyyaYRQeM5tn3y4wxp+lZKfmbpgO4fFRnnrym2Y3ZYDuWV++n99EzV73FIX8h9zEY+BurL/ace6ff24ZurzNmMyYD9tXI6RGMySuFrsgvgIVckQ/i5D8XWFD/wJG39r0MTsa4dQrfUR8DC/av3ubFpos31eD+R916wtd84MUK3xmd9gLAfPU2L7IrV0KIg5OVviLPnPaNF895fpoL/K143FHUn0/u8+0/mvM8hHMbzpcMzl/PT29k8aHpYpjmUwhxcLFSV+Sn8b5tXxreuvWziz6n3NDg4gzOsbhjUwhx8LIcV+S1kF8AK7GQxy2juHI+jfjzb3OBK/jLAW4Ze+lVc/fVtA8chBAHDwdyIX/K13/FpcWBc9+ZR99p2OyLeXzf9PXX/KfJc4GvCwWwwTlysR8oBMt1HhVCrAwHaiGPu35wYWMtgHMl7soUQhycaCE/D6thIT/X1SBcmcJtU3PBC2v8iup8nyCPxcKbYXxwMBdayAtxcLOaFvIHE1rIC3Fwc6AW8ni/hvdta4Ezj7nT8MZTnu57QoiDjeVYyOs78jcwX9x5id0aOg1cscLCea4nc+3eHfYiNNcTnzZPI/+Ay9xsXr+w29OEEGIMvMnEh4NYROM5dmdST+jjCXv4WQo4zwohBJj23mo1gvMa370khFibaCG/wsz3JhG3hOLPmCwEfH8LV8/xHXpcFYtPj4/bMP9CG98l7T84wOJ+vlv4AX4xWgghQPxI5kLBb3u88ZSn2ZUifsOMcyW+1zkXfT3s4Sf+osZiWGw7hBBrE3xAiN8EwnllNZ0fcA591vH/czjn+59nH4zqPZsQa58NG+5wyotdXnMcvenI4RefsHy3Fe3atcv+9AD/7c352JIW6u+7bu7b3b+081K7In7R7quHHzhq/JNgLOCfeskbhzdt+aTZXLF3m5XHG+BN6w6zurmAzT9vO9eu3iPmP2z97PDCy//Ja8fBi9nTN9/P94QQByN79uwZjjrqKN+bHdySv5CvDIGd+/cMH7z+a743G1jE/yO+onPUbbykBec/+IxzG4Nz0GtP+fHhiHWTXwG4S3rDClucI5HXQvi5Ex5k9kKIg5d9+/YNRx658B/bvf7664fDDjvM92YH5xmcF/C+55HH3MnOK3jfdTCC94C/ffJjhj+5yZOGBx992nDjw471GiHEwQzWlAv9Mc4eXZFfYfACMAu47X3sx+ZwBR1X4M+69G/m/EVnfPo63x0AAD4QC89ZrsSD+a6UCSEOLXBOmOV8E2ARf873P3/Oq0T4FXss9HFLaPjGFvson+uvZuDqfNaZ/UURNjq3CSHmAucsXJ3HVe6D6bZ7nOsiL53HhDg00UJ+hcEbz6WcYLGIx99PnnXB/YIV+E4UXiz0IiGEYHBuwy3ysyycoYNF9iwLf/jFLy3H7fLYYn+uRXyAN9yzLuZxhf+NN3ua7wkhxNzg/IXb7mc9760kuIX+07fSAl6IQx0t5A8AWFwv9qSP788v5HYunNQXcpVsFp59/A/O9CZaCHFoEQvnub5HiitYeMM515X45WTWnPKCX+c1IcTCOPOYO9s5bak/tLkY8F4SHybgVnqdv4QQWsgfALCwxkl3oeAq/KxX4hl8Wrxc4M2w/g6pEGIMLJxxyzzOO7hKhEUynpDxhhPPA/2G82DMSQixdsD5Az+0+dsnP9pLVh6cw/ABArZCCAH0d+QXwGL+jjyD77nPtzDHn1QCuKX+3t/6I/tV+/nASR1vTBnEme/vws8HFvG6aiXE6uFA/h35leZl38u/44Hvx+vDRCEObQ7U35FfDPiNo7MuedNM79cWC+62jK8bCSHWBvo78qsMnIRn/fT2vdu+vKQXBZz0l/I9Li3ihRA3FPhBztdd8zGTse3/ZKYQQhws4GLKfF/nWQp436hFvBBiGlrIH2CedfwP2tXz+U74/zDjLfXw82MjP3aC73Hh9tKF3IaFhT+ugMFOi3ghxA3BWZfWq1vYPn+JdxcJIcRKMstvcywGLODxvlEIIaahhfwNABbWWChjQY8r59OumuNWrfnACR5+5vrV0viV1XO+/3lz/hAecsKnvvj+lW5jFULcUOArQf0PfL5v25eX/FUhIYRYSXDxYzkX83iPN9f7OyGE0HfkF8BSvyM/F7h19IvpzSsW1F/aecnwsO+8ymumg5P7Um61ig8KNq/fZJ8kCyFWP6v9O/Lz/Y7IUs97QojVycH8HfmehfzG0Ri4sKIr8UKsbfQd+TUEPsmNW+C3zHDyv/8CbpefBmLhqUW8EOJgYJYfA12OH/EUQoiVJK7ML/Y3ivCBpRbxQohZ0EJ+lTLXjz+d8vVfmfP5W1e82zWFEOKGB+ek+RbxAfRm1RVCiBsCXCRZzJ8dxm35uutICDErWsgfhHzfYfPfPobvjE5jlje4m/UjdkKIgwR8zef11/yn780GFv76JXshxMEMrqyfecydfG9+cAUff5teCCFmRQv5gxD8IN18t2ThzS9uMeU3s+/b9qWZrrYv96+qCiHEYpn1L3Qw+O6prsoLIQ52/uQmT5r5FvtfOvFhoz9ILIQQ09BC/iDlB46a/zvweCN72jdeMvzoRa8b7vPtPxrOuvRvZvpxlVl8CyHEgeC9277k0sIYuytJCCEOFvB9eSzQ5wMLeH0vXgixULSQP0h58rGz/8kRXJ2/cPfVvjc3uM1Lfx9eCHGwsNhfdr5wz2znPCGEuCHBAn2+K+36XrwQYjFoIX+QcuYxd16RW+D1ia8QYi0wy2+JCCHEwcALbjR+VT7+ipAQQiwULeQPYhbzi6dz8azj/6deLIQQBxWL/cDyuA0H9m9DCyHEYsEP341dlcd7MyGEWAxayB/EYNH92yc/2veWBt4sz/I9LSGEOJDgDe5iOPPoO7skhBAHP9OuymNxjzswhRBiMWghf5CDW+EX+0Y3wCL+H2/xbH03Xghx0DHXlaox8CHnUs+LQghxIHnklD9Fp6vxQoilsCIL+d98ys8M7//d15XnY+/7IK8RiwE/goLnrH/ChMGP22kRL4Q4WMG56Y2nPG3m8xs+mHzjzZ7me0IIsTrAua7/u/L6uqMQYiks+0L+wXe9z/AbT3n2cMZd7lmer3/ei4cTj93sGmIx4OrTOd///JmvQuHN7jvSAv6Npzxdi3ghxEHNnY+4mX3gON/35fXBpBBiNcMLd9yJhHOfEEIslnUbH3f6fpeXxKk3vtnwwLRov+mNThp+9Un/azjqiHp15aIrLxv+4B/+cti6/frhPZ/5iG0PBCdvPmG46OxzfG/pbNu2bdi7d++wYcMGL7lhuHbf9uG92748fLz7s3P48ae7bLyZvdnVi4MQhx47duwYTjrpJN+bnauvvno4/PDDfe+G5X3bvmR/UvNLOy/1kvzBJD7E1HlNiEOT3bt3DyecsPC/VHHllVcOmzYdXD+M+fOXvc3eu+E3kHROE+LQBWvKzZuXdqF72RbyT7j/Q8tV9xsdtznJx5sMsJDfvjP/reAvXnD+8ImvnmvySrNWF/JCCDGNtbCQF0KInrW0kBdCCLAcC/llu7Web52/6totw9cvvqA8YxEPbqRb7IUQQgghhBBCiEWjX60XQgghhBBCCCFWEVrICyGEEEIIIYQQq4hlX8g/8QcfPvz843/Snk976GO8VAghhBBCCCGEEMvBsi/k/+PcTw3/+umP+vMjXiqEEEIIIYQQQojlYEVvrccv19/u5qfa80j6c3RCCCGEEEIIIYRYHMu+kH/IXe8z/PC9HzDxvOutbu8aQgghhBBCCCGEWCzL9nfkn/6QxwwbD5v/7xB/+/JLhnM+/wnfW1n0d+SFEIcS+jvyQoi1iP6OvBBirXFQ/R35r118gUtz8/VLvuOSEEIIIYQQQgghFsqyLeQ/8dVz7fnFC84fLrnqioknyt//+U8MF1x+iVsIIYQQQgghhBBioSzbrfUHI7q1XghxKKFb64UQaxHdWi+EWGscVLfWCyGEEEIIIYQQYuXRQl4IIYQQQgghhFhFaCEvhBBCCCGEEEKsIrSQF0IIIYQQQgghVhFayAshhBBCCCGEEKsILeSFEEIIIYQQQohVhBbyQgghhBBCCCHEKkILeSGEEEIIIYQQYhWhhbwQQgghhBBCCLGK0EJeCCGEEEIIIYRYRWghL4QQQgghhBBCrCK0kBdCCCGEEEIIIVYR6zY+7vT9Lq85Tt58wnDR2ef43tLZtm3bsHfv3mHDhg1esjguueQSe4Jjjz12OO2000zu+cxnPmPbm93sZvacRuhM4173updLy8/f/d3fDS996UuHn/iJnxh+6Zd+yUsPLr761a9a/2zdutX6Gf0x1tdCrAV27NgxnHTSSb43O1dfffVw+OGH+97i4fPR2HkLxyOOTYDjEcdmD+v0zHXOFAc3/Nq3nK9PeC3CaxJei/CadEPBrzkAbVzJ1+FDid27dw8nnHCC783OlVdeOWzatMn3Fkd/Pho7b80yv1lnrvd2ADFjLs2nu1QQ5ylPeYpt//7v/35FYzHoi2c961kHPO4YOH7jdexAv2+cNgYxB/S6tzbBmnLz5s2+tzi0kF8Ay7WQ/+Ef/uFyIsfB+ZGPfMTknnvc4x62/Zmf+ZnhOc95jsk9oTMN+H7qU586arsUcOLFyW6u/JeLd73rXdZfs74pwonvF3/xF0sfM7DHmz2dEMVa5IZcyON4w7ktePCDHzy8/OUv970Kzhs4f4DXv/71U49p1pkG3uDgOEYMsXp47WtfO/zFX/yFyZ/73OdsuxDitQDj/9jHPtZLh+GMM86wN7uYS5hTB5q5XnOQK46DlXzNGeuXtcQNuZBH/77oRS/yvWH0A6NZ5jfrYLz+9V//1eRpxLwGc70PXA74nMvtW+m5NRb3QIM8MMbTjmGcV3AM4/3uSjKtL7CP8sWe22CLJ1jJ+SMWx3Is5HVr/QEGL/h8osBJGifKlQC+8YKBF47lBieZWBSvNO9+97utHXEymgv0L0580cd484Q8401UnCinnayFEIvngx/8oEsZ7Meb0OUGxy8WTrOcE8TaIV4LsGXi9QiLnQMN5ji/piCPeAKUo36ljgUw1i9ieej7dbn6GXNj7ByG94UrOWd6MF+xUI9nsNJzayzugQSvVdPeN+LDCxDvG1d6PFaiL5A7xg9PsTbRQv4AEydDnCBicfmhD33ItksBb2DwCXA88SlvnITe/OY323Y5Qe74dPCGOvGOgTf3ONnik1Pkh9uTYvuSl7zEdFCvk5oQy0ucZ/gq+XJ8SInjl89tfJV/Jc5tYvWB1yHMk1g8H0h4wYUPFJBHPOODbtSv1Af2YmXhxXac2/oLMkthbIG8UgvnucB7JDxX+spzzw0VF+DYjLstEB/vFeN9I95H///t3QucJVV94PHT0zM9D+ZBMzMwgLyVh6ICChqIwkZMgokQgwm4iSYak90Nm+xuoh9NNqvR3U3i5mXMml0fkbC6CSRqshCFRFBBRQUfRCE8DO/hIQwM8370a+tXU//hUNTtvt19u6er5/eF+txbdatOnTp1zr/Oqbp9J24Ocs5now3vy7JQOzmQn2URCLggvPa1ry3fz8STKwbxkT5pcyGKp9VMEZT4Kixf3wpcnAhqLONr+0wMjlk/x98kkg6vOY6Fv/GJbUmH9JqOj/3n65KX/NsDfB55BRc25jsFU/YdF9d4QpOjs0dQZnk9P+yD44y8MNWPm/d5+ZHXKCdeZ+KbD1Ib0B6i7RF3osM7E51R0o62TZvP0QaJI9GG6zElROctj3PEonp6aIppxL16DGlKs+lbA3nspNwiv3kMiViTp5PvL0+Dcs/XjXgb+YnlEbdyrFMvM461HmNjfyyv54339UFNvSxIn79hb9KUB6Y8/tavBZGHyGdeHrn6uYv6wD5DpBXp83nkOz8nneRpxc35wFdjueYw8Rnrxr6a6hplxmexT/Iz3nWpU7nk5cC5GS8NxHaRVl4GlFnUYfYX56mbspkP8vOUD7B6dRORMs3rEDhn9bhRR9nnbSbqdi7qBxP7yOMB6+fHVq8DMc9r/nletyLNqCtM1K3xYl5eH4kJ9f3W12cfef2lPcd6oZ6PqJv58XeSlz/nt96G+Tp600M3tqmfg6ZrSH4slEsejyZqh+MhrbxcOGbKII4l0sqvwZG25hcH8rOIBh6NjM5u/jSbYDLT2DeNn4m80OgJqnnDj05cLAPr1gMU65JOHmzYLgITF7vouEQwzdNk30z59uSFJ+Usj3n2EdvFPK9N8rQ6fVOAoMyd1vypHmnmx5cPEvKASj5Ylym+qhR545X5/aFjI9VFZ4F2z0D7nHPOKedpO53aa6/RhmmD7I/Yw81M3ucxBbRV2nU9zpFX4lce52jP9c4W29ABzTtE7IcOXVPsjH0F0oo4wmdRPhFDSJt98nkgHZaFSCPynK/LvkiH5fl+WSdPA+y/XmakSXnR8Qyxv7vuuqvcJt9fPd2m8iV90mu6scPyPA/EX+pRlB3LmdhPpMcr8yxHXh6BdMlXvoz12Rfp1tNiirzknzGfl2NddPLB8cW2gWsOUxwXE/uqDwTJG/vhs6i75JNyYJt6ubCfTuUSx8xrp2sby1kXsR0T+crLgH1QjtRL6gXz4POJymY+yL9pRPnHTcoo0+mIb03W04oyjfNVx3mg7ONcgPcsy2Nd1A8m6nZ+ruK8NtUB3sd81IOYj7rF9pONebyyzzjefD/5vvL1ow2EWJbvM/YXy3ilLDjmSLuTb37zm+Vrfm7r6C/Wv2HDPuvnII6P/YY4ligX5kN9GelGfvPjq+NY2S4vF9ZnOeeEPEVaef4ibc0vDuRnUXRiCN5c/PPA0dTBmQ4acX73MO9sgIsT+46vAILgw3asy7L4in5sywWiU3AhWMQFhKcP/ABefEWJ4yRQxRMZgk8E+ViXKYIkn7E+nR/yEBcz1mWe5U0iINePFRHA8imOJfJNeZAPjp1X0mGdPCgHjpeyIT+szzGi1+dRaoNozxHPeI020asnV4HYEB2fiA0RM9gn7ZG4Q/vkCUv+OWjPsS6fR5yLvEd7p43TUQM3BqO9R5qkEccdsTH2H2lG/iK25tiemMe6ESfBumwXcTHyRczKO2UgDW6axP5iYEC+2B/b81nc2GT76PzF0zD2G7E6LzM+r++PdCMO53kjHfKHSBdxfKxLHurpIcqQdMkD5ccEjoH81q8FvDLf6VrA/uN6w36jHDg2jpfP49zm2F+c5zyuj1eHKYO45nAsPBljkEydaCrD+KZc/XzGPtgneY5zyDx5Ij9xjicqlyi/qHfkjzJgeX7eoq7nyFeUAecEpEF5RXvJ6+t8vuZRT+IcxXmLm5QszwdSU8GPEaNev6JMY5856kW0GdoX55Mp7z/F5znyG+c12jg6nb+oS53qFvUh6ifL+Iz0o25R/+t1P/pd7J9tIi51wvpRd0k/r49xjLxGvOHzWJfyYL2JxDpN/cZAm+P4Y508dkabYL9xPHkMDJQFacQ5iB/PY/9N7bAT0on1KetIj/LM04vzFWUG5pk0vziQnyU0rgj6eXDu1ZMrgjF36GLirlwEEr7eFxfdQEAikNDYmVg3OmIEQJaBABZPrzmGWKcujo31884V+4mLVQy048LBPliXvDGRzwiU07lA1o8VednExDHn5c5xx7a8xoWx6ZgJjtFp5jgigE/nHEptRFuNzlC0ddpPdOim29mlUxJtlgESU31/EVNohxG7wHw9puSd4Gi3tOXo3NKGiQuxXnwW7Z1tYjtiWh4XWa8eOykL1ql3rvO4QR7jPSIWMcUxoh5f+DziLfuLddlfHs8iliGuC3mZRRmB+TjW+rljvfhVadKeKN183bxscsRSpvz48/zEuZ6MyEOcuygH9hFlVD8fqMf1qMNxbJ0wsM23jfpD3eVanHfUSTPWy/MQZR3lEHnm+GP/LKPDztRUljnqSl4vIz1eyStIt16n8uOoX8sjb7yPsunUJ5gPoh5RZnG8+fmb7u8bRXlyHuIcUw84J+wzbxOh3r5Yj4n3sX6sk6vHsGhj9fPfjTyeEQPymJfXtabYT0xk/2wT+emknl5eHyMuxDkgvehPIi+PXosbL8SS2Af7zcu4fg74nGOPz6lHET9pQ93GOcqUdev74/gjvVhH+wcH8rMkD2h5cImLA6bz5Cou2jFFIyaY5Z2tkHcOkTf6egeBQBFBPy42dbE9r/lgmSkCWlzwY92XvOQl5WuODhF3DPOAPVmTuTDlx80d5Dzfeecr8h7iYhGWL19evZP2L9G+8ziBXj25IuZEXIv4E52YiJ95Jzhvw0wRDx555JFnxK/oAAXSjCcWHEfceKzHQ7Bv1uM1TzOP5yDNKJM81jTJY0g9vnRSP4a8/PN8N6U3Xpnl8TxXj9n5/mPdKO84/7mmmE+s55pIfvhTBuIwN2umI46tfj4Q5dJ0PurldOihh1bvJsZx8HSMJ3MMtPMBMU/o8j+7ipv5+bUxyi2uzZRJ5IdzwpN+XjlfpFs/93X5dTC/GcaUX9vy9VBPN8qrfu4mUzZtFYPVej2Kec7FRO16PJzfSCv6f1Enmuouom4ff/zx5Wsuzkm9v4L6ee02xjTpNuYRc3PUpTxGTaSpjte3j/Jvii0zVUdjn03XhiiPvIxAvutlnpddff1OYt+9Sk/t50B+luRfm+PiwEWdiQt8BKvpdHYJKHQcYuLOH52KpkE8JhvEJ7t+juMjfxH0pnPhG08Ecjom9X1EB50OVpjomPg88j2d45fmK9pZxC3aSMQ1prwjMZ0nVwxoIq5FOySu5TdEx4spdHhow3Tq8vWaOolN5vuApSm2RZl1W0ZNuo2Z8dSavy3l67oMQqaz39xs3GClntdvMlF2DOy5MR3Hkj+hi7rLtYrt8sFbrE86XMOp95wP6i77oby40THdjrrXtvHlg3Re89iWL59Ovw1xU4d0qA+RXv1hS4h9N523fXEux9tn5LWXen2M0d6abn6Eehsfz2RizlSOZevWrdW7Z9sX51/7ngP5WRAXaxDY6KzkU9wRz4P4ZDGIpeMQU94hmKzITyDPEeQmSpPP46t/TRMi2NTv1iKeHORfOewWnZLADZIm0WEiD3SOctz8aMozU31dSc+8+UiMq8e2wHpT7dTR0Y24Fp1b4kSeXrR94l5T+2Vi+zxGNHXK4okln0Wbb7oJQXxhPTr1eUxs6gzW4+lcEcfHk/Om8mLKb5Z0K8qjqdzqMZ84H7E6vuXA4JVYPB3j5aHX5yOuWXyToI7rTOQlr68si6dntJNoR/W/iWZ76m18U41yYVn0I8YT11lQtvVzG5PXtmb5jRfOTx7X8v5Jvt5URF+Nc8rNLHBOOp2XiGH88GRdtK+ZPqdRp9HUZ402Nhs3QaOeN52H+FbVePIn+Z36jZwX2ni9zTXFkog5eRmhad287OrrdxI3CnqVntrPgfwsyIN+p8FiBKPpPLmaDi4O0fDrnWTmQ94RzkWnhA5wvTNLEOSfx4iOTnzlknLJ12VbAinL8k5IaLpw5chbXMAIuPWgzHyci+igsk3sq2l98s3TIknPFt80ot01xTUGECCeNHX4Jos/FSJOkV7eXqMzRvvOYxfvab+042j7EcOIEfU4R+xh4ngiTeJSHsOZZ9uIU+RnvNgZHa6pDIpnUpQDHeB6mcU/4zSVcxbpUmaUVWA+L0fkndG8fOrr1eX5bZL/9kyeFvuLznhcs6Yrzn1cv3JRnxDlEvInsRwP6eR5YuDAOcivvzHoQ1MZ5Muow7FufQBCnkib86xnoxyj7lMvm2Jb1FfKsmlQNRlRF6K9dHoajzzW5e0rr+tNf9YyXfkxUq86xVFubsa6vWpj44ljZZ/0NaPNxfuJcB7zdpLHC46LdOJ4Yl9x7lk/L5f8nNTPAevlN/tIO9ol+488TCTKlPQo65Cnl7f9PN38PGn+cCA/C+JOIQ2QiQBYn6JxxkV9X8h/KIPOLx0JXiOw8RW/TsGGwBHBje0IfgQZvgJIenR487/9Y32wbvyAVfxdJJ/lF4AYaJMO6+QdmzoGDrE+69FZiSm2I32OJcRxEwRJn3yT/1g/X1fSHnQkotNCR7QpruWdpOk+uQJtO9pj3onKB/jELDpMtF/aM+vk8Yn2TjrkPf7umG1iEEZaiFgN0ouYSJrshzQizbhhQZp57MzT7BQ79xXKkWOgfKLMmOL46nG4W5EuaZBWTKTN8lxeJpQZsZf1okNaF+tTzqTZ6VpQP3esG+eE4yUfnf7sbLKiPoH85HWK11AfnJHH/PjrT+NjnjoU11PSizaXP0mM62m9XOIYuYazPK5tka/xBoz7sxjEgzLKY1pMeb8gX38qIo6E8dodsYTzXW9fTNFuI4b1Qj5QZh/1ulWPedF2I58zjbKL8uM8kA8m3ne7//ybLsSL6DPSluPccs5jP/XYyf4oG7YF69bPIevTDmN90o62PJlYlJ9fyjov+6b08jIgj6yr+cWB/AzL79aOd5c0PiOQTPeiMFUEHgJadIgj79Hp4St+46EzGwGGYyDIEFhIj3QjoJBefkebdSIAEQD5LEfQzDtwsW4T9sHXEOsXxsBy0icPgWVxA4C0yTf5Z57lndKS9mf5k4vxOp7xWR4Lp4P2SJxAdJwiprCc2EXeGACxv3pMIUYwHzElzxfxK+8EEbciprFOPOGJNCOOxHxT7CR+TaajNluayoyJfHPO8jKbDMogL9+I2aRZj6XMxzLKjNjLK+XehHKM68hE14L83LFe/dxF/qaLcuSaE/U8P/+I/fFal7ebprKpX09Jl/2xPL8eU8eayoX045rOsvzaxjYTXdP3V/FNI8otyrUu/2w6P1QM0or6wXnn/HQS7TbqS/1889l4208W+4l6mu8rj6P7OubRT2OiDJmi3o/X585xLHkbzsXx5DGJY87bNMce5ULbbIpf7IN08usIaZPvpv2Oh7IlLbaP9DgH9XyB/UZdyfet+aNv4ILTxqr3887aVYNp/WXXVnPTx49MjIyMpP7+/mrJ/EVQIjAgDwqBu3oEBD4jcNTlgSoudk3YRwRAghBTJ5GnidYLedpoOo66PMh1s740l+zcuTOtWbOmmuvexo0b06JFi6q5dqOzwoRuYwqIU8SrJnksmSim5Wm2JYZMpswmo9uYne+/mzLrNl3k566b9acj3xfGq1Pg6SY3nGLg0aSe5njlM165xGdo47VtaGgoDQ4OVnPd27BhQ1qyZEk1N7/MZt2eq3UrYkdTvqJ90Qb51yS6kZcpJjqePHY1tfd6XzlPvxdl1W1fO/I50XqaXYwpV61aVc1NTU8G8i8+5oT0Wxf/UjrwgKcr8J9e9Zfpyq/v+XvvX3ntv07nv+zpO2NPbduS/tvlH07/dO/TjWUmOJDvvQjYPAkjKERwkrTvOZCX5rboyHP9ZKDBfP0pmp7Ngbya8OcifNOEQTxP1WMgTRtjEE37Gu9G2Uyb6KGX9m9zZiD/N7/xh88YqIfFP7Hnb7h2/d2zfzmSgf7b/vwPq7mZ4UC+9yIoBb96Ls0dDuSluY3rJ9fRwFdx5+KfXsw1DuTVhBti8fsAYMAcN8vAwJ4B9L56Cu1AXuPpxUC+J38jnz+J7xZP8dU+BEMCEpODeEmSJo8niLP9t8TSfEM7YoAcf2fOoJlBPAN4+qc8pd+XXyWPPrNfZ9dM6ckT+c/9tw+nV5685+n7+g3fT+//f59IO3btLOfD0sVL0r857/XpeYcdVc7fcOs306t/65fK9zPFJ/KS9ic+kZc0H/lEXtJ8M2eeyOf4u/f6IB4su+uh+6s5SZIkSZI0FTP2z88dtHJVet7hR5UT7yVJkiRJ0vTN2ED+h150Rvqx019RTryXJEmSJEnTN2MD+c9/56b0mZu/VE68lyRJkiRJ0+cTeUmSJEmSWmTGBvKf/PLn0vv/7hPlxPu6+x57uHonSZIkSZK61ZOB/J9e9ZfpqW1bqrmJse5VX/9iNSdJkiRJkrrVk39HPnfacSeVE3Z9f2P5uviQPf/257fuvr2cZov/jryk/Yn/jryk+ch/R17SfDMn/x353OjO3eWkPe68885y2r59e7XkmZ4oLjidPmvCug8++GA1t3/gmG/59reruXab7XN341e+Ur3rHnmcTJ3MTbY+T9ZMp6/xUf4R02Ji2VSw7Xioh71sL+RzqnntxlTa2r40mXYe56rX8Ws6sabXJootUQZciyaT57bVi/1Vp3g0UZyaK6JeznScw0RtZV8hX9FXjFjVlvOXo2yn0ueN86/5r+cD+Vvv/5fyqfvDTz6evr99cznxnmV8tj8iiLz3Pe8pL+IEknifo9FdfsUV1Vx3rrj88urdvnPllVdW72YOwSgC8BNPPJEe6HEHciaR707B9MEHHkjXXtu7b4w0yc8PeZnsBZc6NtUO+1duvLHnnf3AcVx66aVp2bJl1RLNNs7vpR/7WLqqqGMxTbWj9Ae///vVu2a0oWhHxM7pdlDIO9NMmUpb25cm087jXPX6+jOdWNNL3VyLowy4Fu2Y4Dzn1/qptg/Nrqa6SMyZqM7PlRs1US+7iXPj9VG6Qfpzod3Wbd+xY29fMc7bRNeZuYjzOFHcaKp3HDNloPmv5wP53cND5aD9s9/4Urr2we+WE+9Zxmf7ow/+z/+Z3vyWt5TT+eefn9717nenb99yS/XpHtxxO/WUU/YOTOhMEFx5bQq0BM4jjjwyrV69ulryzLuO0YlkWT6PfL262F/+GevXt2ee1+i8x+exfZ7fOI7IS+B95CWwbr6c7SgrAhXLON5TTz21/AyRZqTPK2nU95/P59sg35blsS6v+XqBZUwh9tm0Pfkm/7Esx/mLbes6pRmYZzn5DvXjZz4fXJ376leX9au+Xh2f58eXq++zLvJF+nVN6UZa9XTjfdM2oL2ce+651dzTWLe+fuQpT1+9ceZZZ6W3vf3teyfm6/Uq5vOJ89FURxB1Pj9fRxxxRDmxjJtftKnYvmn9qDcxTXTuY71O9ZblkWa+33q6MU85RCyP7Tju0JRnNK3LfLzW1++UTqfludhXk4m2rYu0us131IFYJ1dfxrqRbmwT5yB0SguxvH68pEG6vOb5q1+LQ9M+uBYtzdarr8N76msso17U94f8GCOf9WPU7OHaUh8ccR7jmsO54Rzl57F+rvPXOJfdnFs+j21z9eVRjyIvUX9Qr5ehvn+2qfdRIr382OpYN08nx3KmTprykOed5czzGnlg/fp6iONHfb/0Fc8688xq7tlIi/Xz44z0Io91nZbX910X2+X7QmwXx4DIVxwr55G4Eerb8D6vd+D9CSec8IzxQSBdto395PtG5DX2j0ibz+rra9/r7z/x0N+u3s87ByxZmn7tdW+q5qZv9+7daWxsLC1Y0P39DxrA+qLyn3feedWSVP4t6hln7Pkn+WgUf/L+95fvh4aHy4HXKUUQpsFcedVV5babNm9Of3HppenYY48t//6Vp2D33HNPmc41V19ddjjWHXpo+siHP1wG5M2bNqUji04vd+RYj7tyrMfAkb/FyNc7+eSTy32DvP7fT3yifM9+P/2pT6WzzzmnXJ/0429vY/7RRx5JtxTprC6WH7puXdkB+kSxPfm68cYb02233lpeUAgy5OPeYrr1ttvSDddfXx4fxxXvyQfbX33NNeXfwrHtXUV+OI6bb7qpfBK/auXKsozIF4GNcrj55pvLPHF813/xi+nY444rj400CWRg/zH/wQ9+sAxQ7Jt0WJ+0P/yhD6VHH320LKvy7m1fX5kHllH2Z599dpkvzhV3SNl+onNFWpQP21FG+d8usw/yyfmgrDYX27FNoLyuuOKKsrzYnn1RrpxDjuf6otxYzvFTrpQf54X12Zb95eeHY+dzyo1X1uF81/NFmeb75O8LOYc7imPh2MkD+6O884sL6BBcVZQDyF8cE/Xzd3/nd/aWG/s44cQTy2MnTcqY5aTJa+R1Q3Fe+Ix6QF6oi5w77qqvLLblM7bhHHQ6NxwnT+7Jd9SpvM7PN8NF+6gPQLrB39ZP9rc/4uIe7SzQnogDcV4499xEok5wXqKdfeLjHy/rHrGE5dzkpC39WdFG43yVg6oinWjDw0V6txbL+fy4om6xL9obqJfECtZnW9bnc9oAeY2Yi8g7Nwf+y2/9VllmZb6LPLF9XobURdoZ8ZK803ZZh/cRi0K0sd945zvL44l2Hu2JY2U/rBdtibxSJ/PYxLq0D9YnLY6l3t5ZRlsgr3mbpMyIHcjLMDeddh7nCsSj8fLNcs51Pc7HdYKYGfsgDlKXiCMcU8QlypB5ton2zTZR76hfeVrUO+ZD5IPzFefs9KIukB/qFXnj2kIs5NiRX4ujDnP+ORaWcw4pA84jx9pXbMO5oH6yj8gH54sYRP7JL3m58MIL97aJQJ2n/DlW1mc/pFGPz/uz0dHRtHTp0mque/SxFi5cWM11h3InruT9NmLDRRdfXLap/JoS7Yv6Wz/XXG+os039sfq5jb4g6+d1iHrXVLeov/Rb7rn33rKOXlfUZa6Z7DvqJfUULCMN+gTsP/o+tKW8j0L7j/jbqf3TZliO+nU+2g/7jfaTt8U8VpAG+Yon+rwHZUTMZDvKPOIUZfWpT3/6GX1n8kr+8ms/5Rztm3RIl3PDehG7iDHXXnddmW5THyriBeVEv4N91fswEVMnij/5NYB9kW6cj3o8o75EH5g8c87zPi/f5mUZ21A2LKvHGPJG+bMd6Ua/P3D+uE5yDYy6QF2hfMkr5Ub69VhOXvmMusy+1BuMKaf7Gx4z+jfy2uP4KkCBAEEDYuJ9GWDOPLO8QBBgeM8yLCsuWrH8oosuKi8YNCQaaTzd/+VLLtn79Wk+u7hYj21ooIj13vzmN5eNFOybedbLkZ/XFuuW+ys+o7GSZicR4FmfiwD54Kkc85cU+SKfsT1pkSbLCYoEnMh/HC/5YhkT+SbgkC77oQxjf4hyiP2RzkQovzWrV+8tU/YRZUf+oqzYD197Zz2mU045pdxf07kijyDI7U23KFsuFBxj5Jv3OS64lAXrc87IW5NYh+Mkr5Qd54llTHwe5Qf2w3Hwmp+fOso11gtRprFPypQLO6793Of2Hh+vDIDyPJOvZ53/Ip8gf1zc9pZPVu7sL+oc21JugQtGrA/yx3YsYyI9ypd8NJ0bllGneIoS6ZBv9Q7niw5JTJwjypjzTUeADi/lHhd+PmOe88E3ky6vYlKgExL1L7bL6wR1mg4Hr9RhYhrtLeoDyAOfs4xzT1vmfRPqHwMqPmdiOzpddVG3mC4upqi/EyEvkT+OC9RJ2h3LSI/jQB5DeI3YgjyNaO/k4ZJ//+/3rh+de8qUtstyypBjjLYI1unUzkkzz0O9necivoyX71hO247lxIqoA3zOTYQc6cY5Z13KK44t3w8xNDrmsSziQR1p8jlTmX5VhqRN3mJZUwxhYv95nuui3GKK/LI+9ZXXHIOAyGecm/o1m/PC8Wn2EXe47sc54pU2y3LOdVznOFfxedO5jn5WN+eW+TzOELsY2NXrFuvk20Y7Jk/kI2/rgfZE24j9sw2xk2PK+ygTtX/aI32BOH7SIb4i2g/LmaL95DievI9JGx4PcSpiH3nh2OL4yBftjH1wDJFvponaTbRNJo4hj1k8xSctJmIzMaI8tiqGsA3lyHL2E+nwWaf4E+eIY6EMQNyL9Hiljny72Jb9s4xtmuR5IPbyPuodx/WMdYr9cU7r8v5u1AXUY2xeLpQ1y+J6pbnDgfwsyAMrgSsCAHciafQ0lugI8z4CY95geE8jI5ASAGJ97khG4+VrNLEN+2CK9ehQM4+4INVF54OGzzbsh/11g+0IJnm6BDUCEwjCgXXia1+8j31w4SKPBBX2Px62If1AOux/PPy9FPmJMmE/BELk+aZ86mUP8lY/VxGU87xwbFyAxsPgnXImD5ybJk3HRzlTThwH23KHOz9HeTmPh2OsI836PiM9joc6G8fOuvlvFZCvuEMdqE+g3PL98T4udqQfZc9rXm6xPfiM4+Tz/ByQDm2qqR3R7sqyKgZmLKO8m45bU0fnhk5dTFFfoi1zMzIv87yORJ2uy9sedWC8zh77oP3EeWc+2gOvLGOw26ldlPWvyCN1g7ZEPcrbU8iPgTxN1L4DnVZiNGlTD9kfZcMxkTfaMF/jBp0k8sHNDJbnoo0gjoW85sdFuszHU7UoE+J4XobjtXPi4XjtvAnHGPmud6DzfEcZUn6cJ7ZhH3ETIbAe8YTzwDFSx8DNbNanLLlGxnpN8aAuP38cK+sh0gbL6jGE/ZCP+vZ11Id8Hc5FPl/HfuNvl9kPgx72Q7nE/jmHzGvf4BxR/8FrxC7qdF6viVed2kjEMurRROeWupxf83gfsSavS6TJumi65jbVf5bV02iqWxO1/6brfLShpvZTj6UMLPksb8Pjoa3lZR3XczC4ZtAbcSL2S1yJ8ukkrk/EWbbJ5X+SEG2d9PN2T7457m7iD/siT+yL8x4YLLMNcZOyIH1uKhMX4jjy+gD2GdvQv8mvleB85fWMa2P0cXN5unka412DJjpX2nccyM8wngDnAZPGQANm0M17Xmk80RHmKRV3ysZDIM07zx/56EfL5XnAY780+qb1OokBJcGR9ScaGOc4jnrQJoCQj279fhF4WJ/Ax/4nUg9Q9f3XUT4EyrxMutlPiKf5sR3najLbBwIwFzLOP51g7s43aQrA5IFy4mk123a6azsVpDlemZLPOPbfe9/7ynocKNv6xTNuYJHnPF3SbOoMd4OLbP0cRHuqL2eefFFGLOP43vve91YpaSZRFyh7Yl9eh+od3vrT2Hobzm+CNuG8xzlnol5Gh4OOCLFkvLpGJ4w8ElOpJ/WOU8g7Z53y1BR/yAv5ogPL5+Qpr5Psj/ZMmnSeWJ96yzQRjj1HGpGHTmWCentEnvfx2nkd55ljIn2uW8SkidDBJA9xnakfByiXGBiwHuJ6RllyzvisUzyoy4+PY2/aZ1MMiWvxRPUQ+Tq8H28b6mSsw7HEYKjTtV2zjzrNuYlzFLGhqZ3TpsfDYGmic1t/AMB+og7V9xmDzfqgcbw6V2/znfI80XW+0z6b2k+9LVKGZbvK2nBdPZ85tucbAXv3WfVR2U++X17HM9m+Zj1exLmZKP6wHn296K/l+4p4xvrcnKAsiAt5f4VYmYv8xjb5t9XAMdX7/Ux19XoSx8PveU3mGqS5wYH8DIsATmOmodBgaLB0gGgwNDrmI1DTmaMD0wnbcNctBk0EQ7ap44kL6USDpcE3rZcjgJI+eSZdJhDEIk8sywdsBHbyzitTBGbWI59x8esW+Wb/pJNfaOqBh4AXdx8RZQqCGU/KIzhF3nnylZcJ23D3sVvlRSQ7V3Rg64G0ST3v8TU7yhr1p1ihfnyICxflRPlMlP84P90gzfo+o2PBE6O4Q0t65R31rB5wPlge5UEa/O0dKDfySTmwDulMtl4EOvVcyOOYyAf76tSOeI2yG29Ap6nhnFL+MUWdoNzpCDAQyr9xwt9xxjrUiWgDgVgZdZq0OXcxkAt0nqKzx3mP9Tn3dHzYjjpG3Y1YltfVHNvwN4QxsIpYUVemV9Vf9kd7IO/ciIi0o57l3vmOd5TbRXwEadXrJJ1jPo/y6CaucOyUM3liH7QFyoW8Rfos5+8qo12AttepnfNZvZ2TRiesQxmTb943lUEd+8rjfD54CZxzypl1mMgDZck+8rLsFA/qiLGsQzrl+SvKrq4phnAeyn2Qz2JbPmN5HWVOunzORD4iznf6ZhudctpG1AFeOS9R3hG/tO+Ubaw4R3l94TxFPaftU0c4/6jfmAzdnNuo81GH2C9xIa69LGN73lN3QDr5NZepHlMRaed1+FVVGoh4Srscr/1zHMxHnGR/cZ1vaj/1eBqxiPZL3OU9MZ/1eM8U31RpEjGSf1Uiypz5KDeQ/4niJ98CymPQRDg20o3y4z3nfqL4Q7nyWfTXomxJJ+IZeaDPinx7lke6YH9c32KbHJ+xnPhNWcY5oxxin7mIZ+A8cQ6oazy8i/pTP3eau/yxu0mYyo/dgR/R4Acq+HGNrxZBih/CoIPLKw1noHjlx9L40R0aFD/UQaBhG4IdmI8fp2Odq6++uuwUEyh+8sILy7RozHwO5vkxk1iPzi938err5dgXAZF8EFjIG2mQHxo16YAftmM5P4TBe35YiW35QTiCEJ0mgsRbimNkHd6TVvzgBvuP7cGgm0DJOqTFnUaOkbySTwIgPyrDemxHOfA5P5jGD9yRL35shTIiCEVQ4oc+ymN94QvLHzNiffLJD6ZwjPxgGmWSly3qZR/5Zx/5uWJ98j3euSLv/CBM/jnHHT8mwo+U8GMq+f5B55ZteWU9fvwkrzNRTvzwC+uQj3q5Ij8/sY+m9UDalBF1huPjeFmHddmOukZa/BgMF7B6h4F6wrFGPTnj9NP3lhs/mEK5Uf85P/FDT/W6GHWhvjzyzD75YSnywVfrzinqHOuxn6Z2xPrUXerCnXfdVZZh/bjnk9n8sTvaxV1FmXLOYqKOMXHO47zw4z7l+kU9pT5yLjkfdEYiJsV5Zxs+5wd4OF/8PXr5o03Fvjgu6vGhxXzc/KIeRcyhXvJDYqxPvOBHmPJ85fUp0mOfdHaoswy8WCf2E6hn1CV+ICjqFtuB42PftMVzsnYcx0N7injDcRKrqZP1PLOMmMUyYgL7oM3naYVoG2wT8YGyoizJN5/xg4CxnDIkn2G8ds5+6+2c5bk8P3F+I9/Eo4nyHTGJMjuxOAbKm+XRxskLyxgg0L45n8yzr2jfLON6w/E2xYMcefvZN76xXIcfhuIHzFinHrdJvx5DyD/7jvhFnjhG6hafRZ7L9Ipy+3Rxrim3VxeDJM5Pqa+vzAPr52VC/Sc/519wQXnM+XmhPi4s5qN9aHZ/7C7QD+Kccx6oB6BeRPvix+MufsMb9rYvYkjTue7m3FLHov5xnYy6nNdx2jN1i+W0fSb6duyTmEafi3xGvaR+M8++ow6TNvPxQ358zsCOdYmnE7V/YiHrN13nm67BOfJAG+Fz+l/ckGDb+MG36A9xvCyvx22QX+J7PDFmvTxd8ksaefuO2BPnJI9B5LNTHyrv++XlF8fGsvHiD3ll+9gX5csxsS3Lo6xIJ+IS5UDZRt2ijrAN+SO92BfrcpxgHeoA8+Q/7/dzfclx7SGGRV+N8mEd8pNfg8gP5ZKXm3qvFz921zdwwWlj1ft5Z+2qwbT+sonvtnVr69ataWRkZNIdXs0O7lby9aW9HagWI9gycbGXusWAnAvyZG3cuHHGBwzcJETb6vR8iittweCLcuerqtP1i299q19Rnwe4QTQ4OFjNdY+n5NPtKM9FcTOw6avTUidch7mWeT2bGxhTTvfhkl+t17zB1764YzkflHdyq69bSfNB+S2fFtbp+RRX2oCnYvwoVPx9+nTZYdV8REwiNkmTwTXY69n84hP5SfCJvKS5bC4/kZekqfKJvKT5xifykiRJkiTtZxzIS5IkSZLUIg7kJUmSJElqEQfykiRJkiS1iAP5luCXfJl6ifT4Z356jX97k3R5ZZoJTXmfqePptU7lQt75N60l9QbtjH/zeKbiUFv0+tpRN9Ppd4vzfMu3v13N9UaneD1dkS5xf66Un/aIvkScF67LvehbRHp5+rGszfJ+C+2P+YmOjc8maquxPf/U3mxj370453W9PpaZik9hptPX9DmQb4m44PfSFZdfvjdQ8m/29spXbryxTJdXppmQ5x28v/Zzn2vFP6vRqVx2FOd3wxNPVHP7Xr2MpV7qZczp5L3vfW/5z+0snQNxgbZEm9oXZnK/l37sY9W7fW/7jh09j6F5vO5lTIx092W9ULM4z3FeqFNcn8fTzTmMdSJ9+nQzMVicDfnxRptgYE6dPuLII7vqs070eexjNq4VdXGOeq3Xx5LHp17j/Fx+xRVz4vqpzhzIzwIaA3fh6nfiCHQsawoWsX4EOv690PzfYGab/PPQlCbzufr+Iq1Ir+lzlkdg5jXWYT62nUi+jzCZ7SOf+fZgnunMs86qljx946O+TdO++KxpOfLl8RrHHuWCWC8+Q75dvM/FueIVq9esSaeeemr5HpF3Po/jYYr1wXy+z3ybkB9f5Leuvh2vsU2ellQX9SRQX2LqVH9im9guf406Gp/n21NPoz7n9R719WNdOiFxg6+pfUQ6sX68RnrotM9IL18e7/PtEfP5MtTTjDzEe9avrxNlW18eOm2Hpm1ZFvvlM96DVz6LbXjNsT5xd9nSpdWSPTqtz7I8/Vzkuf55vrwu8hv7WV1cI/N/N77+eWhKk3Xz/TbNxzYsJ83885jPP2ObUN9fJ015Jq1835pdXJe5PufnNT8X9boB1mU+rwN19Onyfl2kEe9DU1q8b8pLiLTy5byP5Z1EevV9xWueRqRzSlE+LP92MZCPWFDvs8b6kZ9u22pdN+Ua+8rTyvNe3zb2zVRXX0aakW5sE8eEvHwm0ulYYvs8/7nYrunzOJY8T8zHa7xHlEnTNmD5ueeeW809LdLJ14885enX1beLffPKct5r8vr7Tzz0t6v3884BS5amX3vdm6q56du9e3caGxtLCxZ0f/+Dyv2RD394z/snnkhXXXll2fHhzuUnPvGJ8t9uvu3WW8t5LhZU6D95//vLu7+bNm9On/j4x8vlceeewMcdvc2bNpWff/pTn0rrDj20/Lej+TrTVVddVe7r5ptvTvfec086+eST02+8853p/PPPL5eD/JCHG4s0Se/RRx5Jt9xyS3mhOnTdujJf+aCY9dnHt4t1yOutxVT+m9N9fekvLr20XGd9kbfrr78+nXHGGWWDJD8cL9jHe9/znjQ8NFTm+Zqrry7v2DIfZcP2LM/3m+Opz6233Vb+W7Ksx78NS7ns2LEj/dkHP1jmJ0+Dr9PeUxz/o48+Wi6n3Nk3eeJYo2wo03x7yvP04hjYz+/+zu/szTPbM1GO5Jk79KRxZHGxYnvOF2mwfwYNlBflTvqkladNvu4qyoi8kDZleOyxx5ZlFueG/F9XTOA8UbaU2eZifc5DXABJi3TZhjJinqdSbEs+Vq5aVZY979kf+eOiW56/CttRTnGc/JuWQ8PD6eabbirXo15M5d8m1+wbLs7bVL6Vwr8/39/fX811h9hGLKKORGyjblFXqX95/aat5f9WKnWaNkDdoi7TVkiPbWhTpEvbI+0rrrii3JY2RWyMdG8o9kP7Iu0PFm0wYiL5YN08rrGPvH2wDmnTpurtmfgXsYbtiXlMbEf7ibzEExvS4ZhpQ+yH9FhOXtiefNI+r//iF8t1OD/RfkH77SteSROkxTFyPJcWZUf65C1iG9eKq6+5psxfHucD5UjsIk3yQd6JG2xbv0bwGXGUeMN+uf4QqzhnZ599drn9lcX6ER84ZmIBeW2KNyyPtMgf55nzSDkTh6KucCyUQV5XObfgc6575Jf9UhdYL+J7xC/O+YMPPLB3/5xnjjOPh3EeI5aSD46pHvPPPuec8ryR/4h1MU9+wHHEte+4Il5zTeZ9rM9xM08eeE/5MqghX/mxRTuh7MD2tAXyTPmWHd3qmECem8qGfe1PRkdH09LaDaNuUKcXLlxYzXUn+kYMRCNGUObleS2ui9RLpmgnnD/qBvWUPhRt9NrrrntWGyVd0on0uZZTHxn05v0N9kO9pL9BWp/+9KfLfJEO+6fNkifSZh/UY+oV9bhTH5J5llNv8nqY16OofxxHPablMZJ8U39Zj8+J3+cU5cBx0SdbtXJluvOuu8pj43PacOSH4zr2uOPKPERfJu+DRFumXUR5kdcoi+g352WRi74m63Rz7biySJtyJM+cR2JinCvyxr55jVhF7GCfvCLaJMt4n/eJI7bk4ljyWMw+2Tf75RxEWbBuHpPAdhwXx0d5sB3rkMc8JhIryTOfxfWV5XFNizpEjKzHfepUPeawPunl55J90D4ob65ViDjNeQv1Okm5cKwc54c/9KHyNfIc52t/wZhyyZIl1dzUTC66adIIfgTpGEjTCEHweNvb3743OBDIaJQE0TPPPHNvIyBosiywPelddPHF5fxZxbq/XzSs33vf+8rg/653v7tcDtLsBvuiEUYeJ/Lmt7ylfCVovPnNby6DLuIiUEeeCTKR57JzWBw/d/qayqaO9Wnkl1xySTlPUCAwgXTID+mAPFCOIdImuFOWXLjwi299a5kfyoh04xhIjwAO1o3tyQNphDyt44tji/VIJy6QuPiiixrT5m50lAedBcqNMgLHx58JcE4DwXM8TWXENpQNdSzyx34IplHv2A6RF84J21GPuHhQNyJfUo54Q72Kuk777VS/eVITbRRsFx2akNc16mHEQNoP9Zb90KmIdCMOME9n5s2/93tlvSYmEnfzuBb1PGIX6dOeYx95ewZpMM8+/sOv/mr6kw98oEyb/EX7Jl/xtILl0ZEBy6Pdv/Md7yhf2Rf5z48Z57761WVsyMuRdkxcpx1GWyW28RnHFvlDPW6S1sVFmeSfl/GhOBY+q8eVKJtTTzllb3mwbixHlHnZia/OJcfCNQysT3kSC9lffh2KcmadOPb6dYLP8s8pT+IU+eWcRb0gbeoYA2SmOJ90UhlYx3rkPc8fOA+USVPMz4+1E46BffMa23ZCelEGpJ9f0+MY6jgGtquXKcfUVDZRLzRz4pzlKP98ObEn6kaco2uLvlG9DXAOO6HPQrrRzqgL0Y+5vGj3eRygzfI5iDPRzllOu2K7vL6RLsuZyF+sT70s182OhXYd86wXg1XkMZJ0OO44XtAmaP8gDdIH9Z1049gYEBJDyBei7eVxnf2ekLXdUC+LcuBabJ9fWyZ77eD6RDyNNh19w0BZcq1jWZQ769bbJDhm1ov8RH80yi1HmvkYgDpC+pRNHGNcy3LsIy+D6OdTzhxLfoykGftmeWzDNS00xX2m+jiE/HJc+bmkbOmrcvwsj/IgLznKIO8nk14ZF4v0yVPEcdLJ+8/qjl+tn2HRwAmyNLgIFlTeaFRgvQeqBsQdrkCFjsYEGnVeyUmPdGhQeXqIxtFLcTwgkNN55diYCEDko448szzWI7jREelUNnX1QQDHGfOkQ3p5HihH5Hllm6W18gGBK98v27CMKd8+3z/yc8B6BCUuKgShXFPayJfXj5s6kN+BRVwgOykD8AMP7C0HLoRxgSOvLCN/XCjy/bFdfm5iO2ki1BPqfdQdLvTd1O9O8vbGNpE27TvU40DsjxuK1F3W5ylPvb0SF/J8sC1tLOp6veMQsSJiarzWY0K0e/6OMJfvq96W60iHdlm24SI/bMvEdrFfkEdiKR1VBq1RNnmeQIc1P564fpB2U1yZ6JzlZUm5kD754FtRce4pe57EsQ8+j+VMzINOHPNNcYjj5LjoeOafE9Pq9YJOIftnQBBYng8qOKZ6zIzzzWf5vtmuXl+mKy9/rpO0jSiPvJ3kOpUpeaVsOpWdZlde9rSH6G/kmtpAxJomnPu8zuT7iG8dRlrUEdZHU58mYkig/RADyENeD6Md5eh7Rkxjn7l6jOxW/dhoa3lbpf9R74M09SNRL4vy6XOtLXHsk7l2UD7EU/qgHHcdZcf1A6zHABdNbXK8/mgd5yM/FvJDWXETNpY3Xcvq14U41/VyZp083ufb5GnmdSXek5e8rlCe1Cv2kZ8r+rscR1xjiN9NfXm2o77l6bEd8nxpahzIzwLuXnHnjeBFJafRE4xzVHQqNE+y8sDEuvWgxrIc63MnLt8O9btiob7vJvW0Qn7hIK8cV0w86ckDdOC4aOj5ukxoKps67t4RIHN5/n75kkv2ptkpD51wYcjl++/0PkdwI3DTqeQpz2vH2XenNOo4l3XdbEseohyYPvLRj5bLKQ/m+XYAFwYCaq7TdtJ4iAXRfpl4SjCZttcJ8Y5ORNTLuPs/HjowkQ9iQ/2GGm2qKYYQw6aC9ki8inbPjYTpID7yRI+YzVMY1OM0sYZYysQ+OVaOmyf3dfmgId43xZV6mUwGHeAoc6b41gKdxPpyxDWAsiIOcY5zfE4dis/LJ0xFhzCP9eSXc8Z+uGYG1qlf75piZlkPajGf+tZtbB5Pp7KMb6dEeYzXTprKFPWy63Rt19xQ7xtxHvMbUnXU57yfl9d5/pwgT4s+znhp1WMadTvSpv5EOvV6yD6JaaRNfKFf1St5+6q3VdpkvX/YqQ8yUVnUrx3dXI+In/QxefDFcTchPfpNTOQVndpkt/3RTsdSv5blNyNQvy5E3KEO5XEf3fT1OyHfkQ/qCq/gBkYsjwnEuKhTTX35fLs8PU2fA/kZRuOmUiMfBBMYCDg0VIIP68VXWWi4NAKm+pMeOnlsxzYReNmGO2A05OgcEXDi63sEhlger3VsGw2PC0GeTj04BNKNYyMv3GmrN17w1R2OLz7jbhwT+4gglZcNn5Fe4MkKdzbjYsR2cTePMiMN1h8vD528qgguHAPbcpykTRkzkQ/yTRnwvgnbUXZ0XtlvvXzztEkjOunjibuZ+Tng75rAvqIsmWLAwgWA8okyYhv2zX65Y0weoozzu6XkO98ur6/Ug8mUpfYvXJipo9QtJupZ1KNusV1d1LloU/VBeZP4WmInxKp6DImYORX8GQvb0kY4hm7ySIc1yqqOOEbbI3/kFVwjIn6wnM+JpSzjPZryz3lhHcqDKWJsU1whPow3KOiEbYjBUZ68cv7jSU++PGIy54hjacoz+WC9+ud5fCcNYijXO8qBr3SSPp+xTj6wj/xxjIhjpgzqMZ9tiY1cZ6JcSZfP6lgv7zhH/Wf9eGpXR37zdsK+I1+5pjKlTPKyyZHX8eq8Zl+cD+pZ1DnOH3V/PNH+magb+dPw6Csib0eddOpDEheib8VUj9fUa5bThnmdKKYxSBwvH6HeZ414FKLdRXvjfX2dQFlEX6ypLKL8O/XHmnBjL76Z1Gn9MqZeeuneWJnvu1O8Yki5Y7kAADZBSURBVGKdyFNd/bzSxlHfph4vyQPbkT5lGv38ppjIPqYiyjnyEdccziX7i+Wsw0R+4pwtreUXUQfy7UhPveGP3U3CVH7sjq8qcXHmxx34UYnXnHde+UMf/NADPxZCsKRyv+Utbyl/5IEnEPzQAz8wxPo0ANYFn5Ee2/PDSfxgBw2Ov7EEHUAaMWnyYxU/+8Y3lj+IwQ/z8KMgNMATiyDAD6vF1/e5E0mg4Ada+EEVggTpsD4/OsK6LIv16IxGYGE5wZ8f3uBYzr/ggr0/UhHr5Xm++uqryzSZP49yKNLmRy7qZUP+SSe+FsQxRNCLY4g8nXDiiWUe+PEnBrukG8eW5xVxDIE04hg4dn4c68LXv77cN+uxzwfXry877aRLefOKvfso8sjnHAPnmXPBj6bwOcfBXUrS5rxceOGFz9gujo8fpYqyAutwDrig8+Mf/GAdFyY+jx/FI00ufJR57C9+oIVtFhZlxp1R1h0o3lOfKB+CfdQnULbMU7acG4Iw27GcbfnBm/ixKs19s/ljd/W6VY9VTKjX70B7JHbQBql3vIK6RlwoY2PRps57zWv2xsb4PMd29fhCx4s6HJ9HDIn2QRvnK4yhnmZTrMhxnKRJOyT2ERdYP9Kpp8c8n8cPBNHZzpEWE+lGDOV9xCauERGbyAs/zkQ6xKyL3/CGsnwC6zBPTCRvHGfkrdM1AvV4GfNM9XMZaRETyQeIb6SVLyf/7IP8MFFX+Ixj4xwFPiPd+PyM008vy4j9sE+Wl+Vc1AWOn3XjmsD6XAc4B/X8xfkmhhKLyR/b12M+x0eM5Qe0WJ9jJ497r3vF50yHFmXLPqn35I96yvqsw49aNZUZrxwf+6Od8IOw5C0+i22aypQ8sw6fUwZfLY4nyoZ8cPOiXjfnq9n8sTvUYwDnB89qJ5zD6hxxjlmPAV20M+rYG4s2ENtEOnndol5xTu+5996yP/GTRVuiDnAtph5S9+ljcM2P+pqnEZgnfWIA9SXvQ7Is2lI9XiPyEv25iWJarBuxLOohyyN/vLJdvc/KNtFWOXaWRfzmJgjHHWK/pE9+KYOmsgDrTvbaQd+XMuFPYGibxIo4lihfJvrEZX+rilX1eEb7J/28P8px1PeJOJb8vEaczq9llAXnIWI02Ja6FTGCHxnk3LKfPCaSTl6OcUwh8lWvQ9Rv0os6lJ8z1mO7ifryeV8X9eMiL3kdiHXr8/uDXvzYXd/ABaeNVe/nnbWrBtP6yya+I9etrVu3ppGRkUl3eDU53NmjA7MvcbeQTlIEQgInAbLTV6+a8KMpvfqaOncwCX71YCzlGJDnHZtubdy48RmdBUlzG9cjbszGNy3mO248DQ4OVnPd48nxdDvKM43+BTfuo9/DwI5+kF8/nhs8H5opjCm5KTQdDuQnwYH8/oXAzWCeO6w8MeRvofI7lxPhq1K9CvzcWOAuZXx1VWriQF7SfDSfB/LgZj1PheOryeXTXK/3+xx9L/4GfrL9P6kbDuQn4EBe0v7Egbyk+Wi+D+Ql7X96MZD3x+4kSZIkSWoRB/KSJEmSJLWIA3lJkiRJklrEgbwkSZIkSS3iQH4f4d825Z+0AP+MTK/xT5lE+pI0VxEL+XfSmfiF4F4jTdJuC64HlMl4OB5+5XpfHRfXFv7JrLmMshmvHPlsMtfeqKdNKI+JzpnUS93ESuulNP85kN9HCLD882a9DLIEdgfvkvY1/unFbhGzvnLjjdVcbxBb57PfL8r3yCOO2PtPVc0Gri8xeGjD4IA61e31kPUmGhiNV0+pb1575w/O5VyOId3egLJeSvOfA/lZwtMLpvodff5dyhNOOKF8HwE31gUdJt7Xg3GsE8tJN5bxnn9/dPXq1eVnkQYT4rWeJvPRQcu3yTttrMOy+raS9j9NcSLmmZrEZ/VYyKD0iCOPLN/zeaRdj3H5dvn+Y3nEKCY+J80Y8NbzG2kzn8vjW+y3vk4s6xQLm7Zj3dgvy3lfx/WA6wLb5+vmx/fEE088YxAf6/AaeB/Hy7b5PBPq8yGWxfL8WHi/pri2MIX8sxDbxme5pvzm8v0hyiHEfP7atJ9cfM66iGtvvm3sI1+WHxMib53y3ikvrD/edpo74vzl5zDm8/qQ1704r1E/Yj0+532netOUboh1889ZRv8uYmXolL6k+a2//8RDf7t6P+8csGRp+rXXvamam77du3ensbGxtGDB5O5/fPCDH0ybN21KmzZvTlddeWX5bwbybzbfVQTdM886K33kwx/e+0oQZr1bbrkl3XvPPeVX5Lfv2JGuufrqcrt1hx6692kX/1701cXyzcX6pMc2/Furq4vl3y7es4zOyp8V+99RXExIlzu5n/7Up9L555+/d7+BedLvK97/yfvfnw5dt67sMJLnU049Nd18003p+uuvT8cee2z5/rZbb00nn3zyno0l7XPDw8Nlm58s/v35/v7+aq47dBx/93d+p3wyTHz59Kc/vSdO3HxzGduIQ3GTEnRoiSsRi4grxx53XBmziDPEK2ITMek33vnOcp7lxL4yJlax8C8uvbSMQcQ/9k+cImZ94hOfKOPXo488km4tYhPlwGexfEexLbGzHCRX6RLDYn/ExBCxkX2y/XHF/u4p4jF5ZjlPupinM00MHijyyj5CfTvi7hlnnFGmS/lwzOuLWM+xnH322eWxhtg32xBvKTfW/VRVNpQtsZ7y5fjIy6233VamSdpcDyif2BflvbK4dlC2sR7bx3miTJl/9NFHy/OVHxt54DrE9qxDGbKc6wvXKtavX984FtahTONcs+0NxbFE2THg6FR2fHbFFVeU9SrK/OxzzinLk2sg5516xDFyrB/+0IfSPffeWx4Xx3PjjTeWZU06rMv5zusd5UC9Iy3KiGsY1zPqxKqVK8v183pNXliHcvpqkfadd921t6wpGz5jn5QF5cM55SYH6UV95s8gWJ88c8xR1ure6OhoWrp0aTXXPdrPwoULq7nuXP/FL5bniLoQdZxzfkAxH/WQOku9oh1EH41tqLPUM+r5qUU8ZBl1qKneXPqxj5Xbku7V11zzrLZA/dxQ1CPaP22Q+k1MoN1H2yzr31e+kq697rpyObGH+sy+o17SDiTNPYwplyxZUs1NjU/kZxhBdVlx8bno4ovLjuLb3v72soPRybnnnluu9+Y3v7kM1G9+y1vKebaPr/UdXwRmlhGgWZ998J7ldBryDgKBnM517P/iiy6qPumMTgfrkhbpsz3pcEE568wzy/RJj88l7Z+ITxdXcaCcithAnCB2IF4DnxGjIhbxOl4sZJ1YjxgXsfC1xcR2dNCJT+ybGMV7ljNPx5V1GeyGaz/3ub1pMJHfiRALidmkX6ZXDNDouDOd++pXl7GQWM0Tslx9O64BbIOI8RzXKaecsnd5k1OLz2NdOuZ05CPuspxBAAPGSy65pJznleOkbMC+2DauCcTvWI+0eM/EMTAPjoVyYhvWI3+859wxRVpour5x7CGOlXQ2VE8UuY5wLFF2+TkCA/dfLtbPy5zzyroMfEifPEY+GDzzWXkcRb7JT16vqHec68gjecnzyP4p07h+gnR4z0Q+uHEBypXtIx32kz9JJV3ywnYcO/mkjCjDuHayHcevuYvzFzGEc0yd4j11gTpO7AP1IY8p1O2oZ5zjieoNbZd6QrrUm3ocATeUog2zX7Zn/UiHtMu+YrE9y1mXdPN6KWn+ciA/wx4oLuB5R4U7vATaTmLduBOc4+kAWM7dXp4u0ekZD4E+vzjUO01NuAhwYSB9Ju72crHggvPtolPCMjpUXNwk7Z8YnDBwiThBzCBOdPLgAw88I6bxnpjSDeJhiHgWy4hFZZwqBmzjIa7l+6fTOxGOkW80xTFGx5kYHsdODK7/rXqn7ZCvO1E8zj9nO64nOdJkAJpjAML+Uc9XPk855tebwJPyODaeRI6H/LB+IJ386V+e/1jOYIab0lF29esIZVUvOwYlpM3Nk+uKepZfQzmOPP/sk20CA+k8H7xnWSd8TvlFvWLdOHf1OkN9YvAWuEZfeumle/PO9ZIyYpAVx8y122tne1CXmOKcUjejfeV1nbaV97WY71RvmI9Bf9QX4me9vSLSZJ/EsMgHE/OxPG8z3DTL66Wk+cuB/AzjK3YxAA8MjKeKoE1HgA4wd4Z5OjUeLgL5/uPCEpru2nIx4QJD+kzveve7y84XnSXuPrOMO9b84JKk/VOnONEJA6Q8FhF7xhtQTYQ4yhOvyEM3T9jzeBed8Sbx9JinwXF8TL/3vveVgzfiKk/EWMZ7OuO5TtvNhHoMJ8bnf78+GWzLAJanieSbYxwP+6lfU6LsOsnLjjK5/Iorqk/2aCo7rjegvnDjgkFPqO+fOsZTzNB0DWRZJ3FDKupVPgirlzV1KL+JAL5NkOc9rp1xzKQ30Q0SzR3UpWgPMf3JBz5QfdqdeqyJepO3BdC3q4ubUKxbbxvkgzbEnxzky2cy3kiaWxzIzzAu2tyVpwNCJ4BAPd07pVwA6ESTXt6hQf2Cwdf5eLoSTzXyJ/hcFPiMTgud4tg2tmF9JjodbE8Hr74/SfsnbiYST4gRxJCIE4HlOeIK8SNiITFmOvhaOYiHxK74Gmuo3yQgv+SRdZnyTjOd3hjA5TGOASRxj+XkmaddvH/nO96x91ib4jnbkX5s9973vKd832vkm2OJb02Rd8ojfwI9WaTDE2PynZcR6dbPKdc39k1Zsx3rT/S1ccowyq6pTDqVOWmzP55uRx0CTyPjOsZyrrf5txRIj3KhnOKYmm448TlpRJ44XvKZ33jnb/1Ji3SinuQ3Bahj9fPOa942uKkQT/3ztDV3cO6jLlCXqFNx/jjvebvoBt9GyusNr9Qb6kek2w3qTdQ7tqNtgDaXLyfdHO1iMvuR1B7+2N0kTOXH7vjhH4IsP3ByUzHxNcTzzjuv/HEmLhbxtcT6a4j5WJ8fNgE/LEVH9pxzzil/oIf1uDAQsNknX/niaQmBnx9PocNAIOdHg/ixFDoydAL5IRbm+VEm5rn7HD8ExIUhtuGz6DTyAz50Rt74xjeWeZI0N8zmj90RY6JjyY/GRZwAcYS4kg/qIt4Ro4iF/CAZA7OIbcSrWAeRVj1Wxjzb82NnxCNi3lnFgC1+DC32w48/sW49rtGRJm/EMwZ65IP1mYixrE8a5IFYxw9RESvPe81ryvTZlq/y8wNXrEc8zX+wju34AbjYjt8SYN8gbfIU4rhzcaz1z8q4XkyI8jm9KAd+7I2bKsT6n7zwwr15qe+rPh/7CZQR6Ue+GZiyPuutK8qSH9diefzY4KHF/uL6RnmQJ8ooRB4D6VDWrB9/knBhll80lTl5YMBOfliXdPiM97yShyuvumrvdSnKmvKjTFifayA/gsi65CHwGcdCXaI+8OOD1GfqL9dW6kdZ7kVaLyjqxvDQUPnDYiyrlzXlR/2Mayd5J33qVBzzwmJ9jpm/7eeH0eplpGaz+WN31J+hIpYSD6gv0d6pE5z3/EYQ5xd741jxeYj3LKcuUW9Yj282Um/KH6rL4gh9w7wtINIH6+d9sJ8t6nqkQ10qf/y4iDvEm2jn1EvaCNtZ16S5pRc/dtc3cMFpY9X7eWftqsG0/rLePUHeunVrGhkZmXSHd675xbe+NX3kox+t5iTNFwzI845ktzZu3PisDuR8x0CLgRVfRVU7eQ73H/zi++DgYDXXPf7UY7od5emgjjI1fQtktrD/8oZcMaiXNHcwpowbz1PlV+v3Q96VlbS/s2Pbfp5DzXXUUb7NsS/R57OdSPOTT+QnYb48kZc0P/lEXtJ81NYn8pLUiU/kJUmSJEnazziQlyRJkiSpRRzIS5IkSZLUIg7kJUmSJElqEQfykiRJkiS1iAN5SZIkSZJaxIG8JEmSJEkt4kBekiRJkqQWcSAvSZIkSVKLOJCXJEmSJKlFHMhLkiRJktQiDuQlSZIkSWoRB/KSJEmSJLWIA3lJkiRJklrEgbwkSZIkSS3iQF6SJEmSpBZxIC9JkiRJUos4kJckSZIkqUUcyEuSJEmS1CJ9AxecNla9n3fWrhpM6y+7tpqbvq1bt6aRkZHU399fLZm8kbHRdOeGB9LW3TuqJe3RV0wHLVuVjj3w0NTXx5ykuWTnzp1pzZo11Vz3Nm7cmBYtWlTNTc2mXdvSg5seK2Lb9rSgr133iMfGxtJzDzo8rS7im6S5Z2hoKA0ODlZz3duwYUNasmRJNTc1T2zflO7e+HA11x4joyNpxeID0nNWrk0HLlleLZU0VzCmXLVqev0OB/KTMJ2B/I7hXen3v/xX6aPf+vu0fWhXtbSdDi8uCv/h5a9Pbz71vGJw74Bemiv2xUD+3o2PpPd88S/SNf/y9TRcdBzb7PTDT0zv+MF/nc45+tRqiaS5YF8M5K+/75b032/4ePrWI3dVS9ppcf+idN7zXpZ+4xU/m4476PBqqaR9rRcD+f7+Ew/97er9vHPAkqXp1173pmpu+nbv3l0+uVmwYHJPmzZsfyr91BXvTn93x5fTUMs7utiya3v63N3fSPdv+n76keee0bqnb9J8NTw8nJYtW1bNdY8bAFO5QXnjA7emC//6v6TvfP/uNFrExrZ7eMuG9Knbr08rBpallxaDeklzw+joaFq6dGk1173t27enhQsXVnPd+7Ob/i798mf+KD2y5YlqSXvxTdA7NjyQrrzzK+nUQ5+Xjlh1cPWJpH2JMeV0vzHkCGwWXPKZ97f+jm6Tv7718+l/fPkvqzlJ+5Mnd2xOv3Dl+9LGHVuqJfPDSDFgeNcX/jxdd883qyWS9ie0fWIAnez55LFtG9Mv//0flX8qIGl+cCA/w7ggzOcO4f/+xpXlUyxJ+5c//urfpMe3PVXNzS98u8CblNL+6b/d8H+qd/PP+s2Pp/9506erOUlt50B+hv3ld3v3N/pz0fahnenz936rmpO0v/ireR7bvvnIXenRrU9Wc5L2BzyY+O7376nm5qe/uvXz1TtJbedAfobxt6Pz3TceurN6J2l/wA28p3Zurebmrzsev796J2l/cPt+0OY3bHsq7Wj5jy5L2sOB/AzbtHNb9W7+4p+bkrT/WLhg8j8e1UZjxX+S9h+j+0mbX9S/f8Rwab5zIC9JkiRJUos4kJckSZIkqUUcyEuSJEmS1CIO5OeYt778/PSjJ7y8mpvYDx/z0nTF696VvvJzf1q+Mj+RPzz336XXn3h2NSdJM+/PL/7P6TmrDq7mJvYfz3j93tj24df8enr+mqOqT5qtHFhWrj/RepLUK8Q0Ylu3iFP0wT570e+VE+9ZNh5iGrFtovUk7X8cyM8xDOKfv+6Yam58DNr/oLgI/M3t16eLPv3e8pX5lx/+/GqNZ+NCcNvj96VP3nF9tUSSZh6x7YjBQ6q58b3rB99Uxrc/v+WzZWz75w33p8sn6Mg+Z+Xacn3WlaTZQEybzMMX4tiKIo697br/VU68/8iPva36tNlzVqxN7/nSZWmzPywsqcaBfIvxxOr9N32yHJSv3/J4+co8d2954k5nOJ5qgY4xF4xfOOU15WeBgX88+crvDsfTLZ9ySZotxB9i1C999g/TP977jTK2Edc+V7x//tqjy9j1lhefV8aqiGPEuT941b8rX/NvGzEfT754D2IZ27FexEZJmmn0wVYtOaCMbdxwZHrbtf+r+nRPn4u4xDeQeCUW8v7dr/y59O5X/NzefhjLiX/1b2KyDRPxLe/jSZq/HMjPAT/14lelXzv7DeX0nMFD0plHv3Dv/Hh3el9QdGrrT58+9k9XlxNPp15/0tlp865t6Y+LTjCDdS4Gv15cNM77q3eUn9Ox5U4vFwTu9p512a+kBzc/Xj7VB9vQoWb79cVySZqMiGNM+OlTno51L1h3bLmsjsE6GMDniF1fe+ify7hHXPqHu28ub14Sx+jgXvy37y07yP/pZa8vYxcdWjq4LGf6gWrZysUHpB857vRyG2KbJE0GX6ePOEZMQ8wzMVhvQmzjG5E5nrJfVMQnELd+qui30Ycj1vHghT4efTNiVXwrib4cWE5cpM9GX45+HfGPbfzWpbR/cCA/Bxxx4MHl4J2JTmYM5pmeM9j935TWMfiOCwIXCF4J9FxMeE/HluX8W/fsl/f/XFxkfuTY06sUUvrjr3+yXNevdEmarBcceuzeWFbOH3LMM+Y72bRrW/WuGYN4ntbTYSWOEaOIa8S3iHc/fOxL0+1P3F8uZ/pqsZxOcnjvl/9Pua4kTcaqpcv3xjFiGvbOFzFvPFsm6Evx50HEJW5kRr+NV9CnI5a9+piXljcEWE7Mu72Ig8Q7sD6D+PpDHknzkwP5OeCPrv+r9PrLfrOc/vnRe9Jff/vavfMf/dqV1VrPRqDnLmyu7MBWX7OqXzBYl8+ZGLjzN/UrFy8r7x7Hci4S+VOq+lMxSerWL1z+3/fGMrz7Hz66d/62ItY1obO6qohP8Sc+gafp8dXS+o1FntJHDONbRXRmSSOPeSDmwW8YSZoqYlfEMWIaYp6Yx8ORJnxD8qTVz/4zxfizH0Rsi/gX8Yup/FOjKj7mMY+blDFwJ/5J2n84kG8xOqX8rWgM5uPvphik10XHlb81ZeLJezy9wsdu+Wy5/B/vuTkdUSyXpH2Bm4fEJb4+mndmiW2bdz37aRbr03mN2Aa2+4cilvFkP5bTiebGpSTtC58s+mz0u7gpGRjE598UCgzoIxYSv+ijcSOTOEZs44l8xDb6bCyXtP9xID/H3Hjfd9ODTz1WzY2PAE6Q5wdPmL77Sx/b+3ejdSwj8MePo9BJZtDOXVxuCFz9hveVy/mbLL7aJUm9dM2dX0sPbvx+NTe+X/zMH5Q3KIlpxCx+8Im/BW36htB7bris/BZS/KhdfNWeTjNPrlgWPyLFMknqFWIasa0bDM75vQ7+jv07v/jn5cQgnnjXhOXEPuIXfTT6a6RB34/fCWE58Q1+lV7aP/UNXHDaWPV+3lm7ajCtv+zaam76tm7dmkZGRlJ/f3+1ZGLHf+Bn0pM7NldzM4cnVvF0fTw8qeKJfVOHmLu9U7kY/MSJP5g+esE7qjlJ+8rOnTvTmjVrqrnubdy4MS1atKiam9jukeF02B+8rpqbOcQrnmB1E5cY+PNUqv61+/Fi3kT+5qffk/7VMadVc5L2laGhoTQ4OFjNdW/Dhg1pyZIl1dzEPnfPN9Ib/uY91dzMiW9SdhOXOvXNOsW8bjz69r9LCxd035eV1HuMKVetWlXNTY1P5OeJbgbxiK9rNfGOrqS5hHjVbVwirjV1aMeLeZK0LxCTuo1LnWJgp5gnaf/hQF6SJEmSpBZxIC9JkiRJUos4kJ9h+8OvJC9b1P3fn0lqv6HR4erd/DZvf0BG0n6N3zmR1H4O5GfYSWuf/W+GzjcvXvfc6p2k/cEBi5akFdU/DTefPe+g51TvJO0Pjj/oiOrd/DW4ZEVatmhxNSepzRzIz7CfesG/qt7NT0sWDqRzjj61mpO0v/jJ57+yejc/veiQ49LhKyf/LwBIaq8jVq1NJ6ye34P5C1/w7H+3XlI7OZCfYT9+/JnpZc95fjU3/7zxxT+SjjvosGpO0v7iP/7AT6XBpSuqufmlr/jvV152YVrQ5yVS2p/Q5n/9rIurufnnkOUHpV8+/SeqOUltZy9lhi3o60t/+pr/kI6fh3d4f/S5Z6T//Mo3VnOS9idHrDw4/fGP/kr5Nfv5pK+I2b9+5kXpdSe9oloiaX/ykye9Mv2nH/ipam7+OHDJ8vQ/Xv1v05GrDqmWSGq7/v4TD/3t6v28c8CSpenXXvemam76du/encbGxtKCBZO7/8FTq9eecGZ6cseWdMeG+9NokUab8fdVv/qyC9N/fdVb0wEDS6ulkva14eHhtGzZ5P92fefOncXFoL+a6x43KF951IvT3RsfSg9t2VAtba8T1xyZ/usP/UL6Ny89v1oiaS4YHR1NS5dOvr+xffv2tHDhwmque8S1YwYPLfpsD6SNRd+tzXig9IqjX5ze/6O/ks45xj+FlOYKxpRLlkzvYUjfwAWnzdsf5l27ajCtv+zaam76tm7dmkZGRqbU4Q2bdm1L33jojmJQv7la0h59fQvSYStWp1PXPS8t9YdSpDmHAfmaNZP/u+6NGzemRYsWVXNTc99Tj6Y7i07vpp1by6fabUJ+X7D2mPTcgw5Pi/on3+mXNLOGhobS4OBgNde9DRs2TKujPDI2mr73xPp022P3ptHifZvw0Iin8M9b/Zx07KB/AinNNYwpV61aVc1NjQP5SejFQF6SZgpPnw4++OBqrnu9GMhL0kyg38UT+X0xkJekmcI3vQ866KBqbmr8G/lJ4Cv1fA1CkuaiqQ7GeSJtbJM0V001tnEDQJLmqxkbyK8bXJNefsKL0itPfkk6+ajnpoGF7X/aMzAwUN4ZlqS5ZjrfFuJvSI1tkuYiYtNUB/Js501KSXNRL240zshA/txTXp5+/PRXlgP44w87qhzQX/zKH02rV0zv7wD2NTq73t2VNBfR2V28eGq/XcFXTx3IS5qLiE08SJkKYqKxTdJcww3GXvyeUM8H8gzajz742T+qwRP5c0/5gdY/medXU/llaEmaK7ggcJNxqgP5+FVnn1xJmkviBuVUO7z02fihPEmaS4hLU/lXhup6PpA//vCjqncpPWfNIemXznt9NZfSiqXL0lENg/w2OeCAAxzIS5pTenFBWL58efnDK5I0VxDb6HdNFTcA+MaR/TZJc0U8fJnKP6lZ19OBPH8Xnz9xX7p4SVpWTDkG823GRYEOsx1eSXMBT6y4KEx3IM9TL/7G3q+hSpoL6GdFXJoOblJyQ8BvHEmaC3bt2pVWrFhRzU3PjP3Y3XxGh5lfsPcOr6R9iY4pHdSVK1dWS6aHf8+U9BzMS9qX4gZlLzq7PIAhtu3cudPBvKR9Km5QTvVPIet6OpBfvOiZP0byvYfuTx+6+pPV3B7LW/5EPnBR4ELjYF7SvkD84YJw4IEH9uzfgI8OL+k6mJe0L9CvYpruv6+c48fyeDLvYF7SvkLfit8k6tXTePR0IP+CI4+r3j1tx66d1bs9+BX7tn+9HnR4V69eXT6Z98IgaTZxMaCjy5P4+KG6XuGmwJo1a8r02Y8kzQb6URFzGMTTz+ol/h41nsz7EEbSbCG2EXe4odirb1CGng3k+RG7ww5aW82N72UnvKh6136cECb+3oHJp1iSZgIXAjqfcTGgo9urJ/F1caOS/bA/OtferJQ0E+LbRfShGGzzLaNeD+IDMY0blfEQhphqbJM0E4gvxDVeiWt8K6jX+gYuOK0nEey0404qp248/OTj6bPf+FI1N3PWrhpM6y+7tpqbeTGY9ymWpF6io8mTd/6mio7uTHVym8Sd5LgYSVIv5bFtNnEDIfptxLbZjKuS5j9uHPK7ar3+5mSuZwP5Pf9O/MsnfCq/e3goffWO76TvPXx/tWTmzPZAXpIkSZKkmdazgXzg79/XDa4tXxncDyxalLbu2F5+xpP4RzduKN/PBgfykiRJkqT5puf//NyWYtDO0/aznn9qevWpP5DOPvml6V+f85r0rbtvn9VBvCRJkiRJ89GM/TvyH//8VempbVvSqgOWF+//vloqSZIkSZKmo+dfrZ9L/Gq9JEmSJGm+mbEn8pIkSZIkqfccyEuSJEmS1CIO5CVJkiRJahEH8pIkSZIktYgDeUmSJEmSWsSBvCRJkiRJLeJAXpIkSZKkFnEgL0mSJElSiziQlyRJkiSpRRzIS5IkSZLUIg7kJUmSJElqEQfykiRJkiS1iAN5SZIkSZJaxIG8JEmSJEkt4kBekiRJkqQWcSAvSZIkSVKLOJCXJEmSJKlFHMhLkiRJktQiDuQlSZIkSWoRB/KSJEmSJLWIA3lJkiRJklrEgbwkSZIkSS3iQF6SJEmSpBZxIC9JkiRJUos4kJckSZIkqUUcyEuSJEmS1CIO5CVJkiRJapG+gQtOG6veT9vAwkXplSe/JB198GFp9/BQuvyGa8rlF7/yR8vP7nvs4XTDrd8sP5sNa1cNpvWXXVvNSZIkSZLUfj19In/yUc8tB/Fg4M4APgbx4LPjDz+qfC9JkiRJkiavpwP5+x97uHq3BwP4GMSH+jqSJEmSJKl7M/o38getXFVOufrAXpIkSZIkda8nfyN/1MGHpdOOOymtXvH0oP2Nr3ptevkJLyrff+bmG9Jnb/5S+R5PbNmUbrj1G+XrTPJv5CVJkiRJ801Pnsi/4MjjnjGI5yl8DOLxY6e/Mi1dvKSaS+W6pxYDf0mSJEmSNDn+83OSJEmSJLVITwbyX7/zO+nhJx+v5lJ6cvOm8uv0gfc7du2s5lK57rfvvr2akyRJkiRJ3erpvyPPV+Zf9wOvqubS3q/T54P4K750TdqyY3s1N7P8G3lJkiRJ0nzT06/WL6r9Ij0D+HwQL0mSJEmSpqenA/k1Kw+s3u3Bk/fdw0PV3B78wr0kSZIkSZqang7k73ro/nTXw/eX7xnE/+1Xr0uX33DN3sE8n7GOJEmSJEmamp7+jfxc49/IS5IkSZLmG//5OUmSJEmSWsSBvCRJkiRJLeJAXpIkSZKkFnEgL0mSJElSiziQlyRJkiSpRRzIS5IkSZLUIg7kJUmSJElqEQfykiRJkiS1iAN5SZIkSZJaxIG8JEmSJEkt4kBekiRJkqQWcSAvSZIkSVKLOJCXJEmSJKlFHMhLkiRJktQiDuQlSZIkSWoRB/KSJEmSJLWIA3lJkiRJklrEgbwkSZIkSS3iQF6SJEmSpBZxIC9JkiRJUos4kJckSZIkqUUcyEuSJEmS1CIO5CVJkiRJahEH8pIkSZIktYgDeUmSJEmSWsSBvCRJkiRJLeJAXpIkSZKkFnEgL0mSJElSiziQlyRJkiSpRfoGLjhtrHo/Lacdd1I6+ajnpoGFi6olzXYPD6Wv3vGd9L2H76+WzJy1qwbT+suureYkSZIkSWq/njyRXze4phzITzSIB+ucffJLym0kSZIkSdLk9GQgf/zhR1XvnrZ08ZL0xle9tpx4X3fYQWurd5IkSZIkqVs9GcgvX7Kseve0f/Wi08vXpQOL977P+URekiRJkqTJm7Efu/vand9Jn7n5hrR6xYHpiS2bqqWSJEmSJGk6Zmwg/+TmTenlJ7yo/FG7r9/xnWqpJEmSJEmajhkbyOML37k5febmL1VzkiRJkiRpunoykOeflGvy8hNfVE5NnvTr9pIkSZIkTVpPBvKPbtxQvXumL/zTTeXUxL+blyRJkiRp8noykL/1/n9JDz/5eDU3sbsevr/823lJkiRJkjQ5fQMXnDZWvZ+2ow4+rJgOTccf9vS/K8+gfeuO7dVcKgf8nZ7g99raVYNp/WXXVnOSJEmSJLVfTwfy4N+H//HTX5m2FIP362/9xqwN2ps4kJckSZIkzTc9/9V6fsSOf0P+b7963T4dxEuSJEmSNB/1fCDPL9jzN/OdfslekiRJkiRNXc8H8pIkSZIkaeY4kJckSZIkqUUcyEuSJEmS1CIO5CVJkiRJahEH8pIkSZIktYgDeUmSJEmSWsSBvCRJkiRJLeJAXpIkSZKkFnEgL0mSJElSiziQlyRJkiSpRRzIS5IkSZLUIg7kJUmSJElqEQfykiRJkiS1iAN5SZIkSZJaxIG8JEmSJEkt4kBekiRJkqQWcSAvSZIkSVKLOJCXJEmSJKlFHMhLkiRJktQiDuQlSZIkSWoRB/KSJEmSJLWIA3lJkiRJklrEgbwkSZIkSS3iQF6SJEmSpBZxIC9JkiRJUos4kJckSZIkqUUcyEuSJEmS1CIO5CVJkiRJahEH8pIkSZIktYgDeUmSJEmSWsSBvCRJkiRJLeJAXpIkSZKkFnEgL0mSJElSiziQlyRJkiSpRRzIS5IkSZLUIg7kJUmSJElqEQfykiRJkiS1iAN5SZIkSZJaxIG8JEmSJEkt4kBekiRJkqQWcSAvSZIkSVKLOJCXJEmSJKlFHMhLkiRJktQiDuQlSZIkSWoRB/KSJEmSJLWIA3lJkiRJklrEgbwkSZIkSS3iQF6SJEmSpBZxIC9JkiRJUos4kJckSZIkqUUcyEuSJEmS1CIO5CVJkiRJahEH8pIkSZIktYgDeUmSJEmSWsSBvCRJkiRJLeJAXpIkSZKkFnEgL0mSJElSiziQlyRJkiSpRRzIS5IkSZLUIg7kJUmSJElqEQfykiRJkiS1iAN5SZIkSZJaxIG8JEmSJEkt4kBekiRJkqQWcSAvSZIkSVKLOJCXJEmSJKlFHMhLkiRJktQiDuQlSZIkSWoRB/KSJEmSJLWIA3lJkiRJklrEgbwkSZIkSS3iQF6SJEmSpBZxIC9JkiRJUos4kJckSZIkqUX27UC+vy+lhd5LkCRJkiSpW30DF5w2Vr2fHcW4fcFL16X+l61LfYNLihwUg/nRsTT6L0+lka8+nMbu21ytOH1rVw2m9ZddW81JkiRJktR+s/s4/IBFaeHPnZwWnndM6jto6Z5BPBb0pQXHD6ZFb3pB6n/VkXuWSZIkSZKkZ5m9gTzfov/pE9KCI1dUCxoU6/T/4OGp/6zDqgWSJEmSJCk3awP5/pccMv4gPrPgFc9JaeVANSdJkiRJksKMDOT7FyxOy5ccntauOjUdMnhGOmj5SWnhy46oPp1Y3+L+tOD5q6s5SZIkSZIUevZjd+sOPCr9/KsuSa97+UvTcYf2lz9GPza2J+nRsZF0xL+8Kw2PjZbz3Ri988k0fPmd1dzU+GN3kiRJkqT5ZtpP5FcvPyy9/xc+lr79/o+nd7zuZen4wxbs/RflFvT1pf7idSyNTmoQX1q6qHojSZIkSZLCtAby55x0Qfr73/zT9LPnHJsW9Y+UA3aUT+KL//tGR4v3o2kgLUxLFywsP+vW2JM7q3eSJEmSJClMeSB/2Pbnp9989UvTgUt3p9FiwF6M2MsBPO+Hdu5Kf/mJy9Ob3nJJuuhn3pr+4rL/m374gBOrLbszdueT1TtJkiRJkhSmNJA/bNeL0tjtX0h9o0NpaGgojYyMpNFiGisG8bd881vp9Jedld712/8l3XLTl9MT6+9Jl37kI+mOd32y2Fn178ZPYPShrWn0ro3VnCRJkiRJCpP+sbuDxp6bVt1xe9q+5bH08Us/mNYc8dy0ds1haWF/SgsX9KczXvbS9ONnnZZWL16c0s4dadXg4enFp/9Q2vb43emPD7g7ffkl/NV8Z33bRtLQFben0Qe3VEumzh+7kyRJkiTNN5N6Ij+wcGk6dFNKo8M7ixF3f9q9e3caGRlOwzyVHxpO6x+8P73wuUenZQNL0vcfeywt6UvpiJWL04KN96djDlmR/uR5P5H+/fYXpgP7llYpPtPR2w9Iv7Ljwp4M4iVJkiRJmo8mNZC/+Oz/mBYPPZxGRkfT6NhY2rxlSxoZHi4H86PDI+nRhx9MRx22Lj216ak0WgzuBxb2p4Wjwynt3pYWFOuvGOhPb+x7Xrpu7VvT76780fTji09MPzhwVPqZZaemjw2+Pr3j/hPS28/4gXTS4WdUe5QkSZIkSbmuB/ILFyxKrzvjRWnhwED143Ypbdm8uRjED5WD9rFiwD5aDOoX9KU0NDya7nro++nhJ55Ig0uG06qFW9P9j65PW57akAaXH5AOWrAsXbzsxelPBy9IHz/o4vRfV/1wOmfx81J/X39atGAs/fJ5/7baqyRJkiRJynU9kD/9+B9LB60YSUuWLk3Dw8XAPY2mrVu3pbFi8N5XDOL70khaWExjwyNp61NPpINXLE1fv+176cvfvTNt3rktXX/jTWl0wwOJfx2eP8ofe8bv3vWlPubHxooMjaXzzzg6LepfvOcjSZIkSZK0V9cD+R8+7VXlPy+3bNnSNDo2UiwZS9u2b0ujfHU+DZcJPXLHrWl49850yMrlqb9Yd9WKFen4I45Ma9Yelk44Yl1aumx5Gti1ec9v1xcj+bHiHRP/YcHC/tQ3OpaW9A+lFx51TrlMkiRJkiQ9reuB/IuOPLj8Sv2qVSvS2MhoGisG3Lt27i5eR8qn6AuKlDY//lgaGhlJxxy4LP3QScel49cdlMZ2bU3LD1ybBovB/iFr16S06bFy8J7jBgEWFInwt/e7duxKLzzy5eUySZIkSZL0tK4H8qtXFIPtsdG0dPnK6m/kx9Lu3UPFS/G+j4H4aHrdL16Stmzemu56+LH0rXvvSw9u2JC2Dw2l4eGd6aSXvjRtfPi+NHTEyXsSrGEwP7BooBziM5g/5pCj93wgSZIkSZL26nogP7CQp/AjaeWqZcWoe6QceG/bvqMc0Bcj+3J+8YoVac1zjk73btyaHt42nA486OC06ugT05J1x6Sbbv1e2jyU0t9c85Vy3XgKn1u+bHmZIW4OrC3SkiRJkiRJz9T1QH50pBi8FwP2wQNX7R2I79yxo3x6vnt4OA2PDKf/felfp8987vq0fWgsbd89lJb3L02H7V6URh7dks56+UvStp0703t/5/fSJ6/8Spnm04P5BWmsb0FavGRpWtA3lgYGFqVFixZWn0mSJEmSpND1QH73MIP3kbRixYo0Msa/Iz+antq8mRF+2j00lO5/8LH0Rx/4UDHQX54GFg+kkQX96aEnH0nfuv+WNDLyUDGw351u/959afGiBelzX/pu+u8f+Nu9P3Y3WqTPDYHFS5eU+9q1fWd6bNNT5XtJkiRJkvS0rgfyG7fuGcgvLgbpPEkfGR1LGx5/ovx7+a1bd6SL3/rraWT3jnT00UekxcV6u4aH07aRlFYeeFB6cmgsff+Be1Nad2xaunQgbX7ysXTfvQ+lf/O2P0ufveH2vT99t3TJ0mJgP1akOZbue2x9tVSSJEmSJIWuB/K33r8xjY4Mp/7+YpO+vj1P5LdsTldd85X02jf8u7Rr145ygD9aJHnKaS9Oy0d3p207t6ev/8vd6b7v3ZU+9LfXph/72Z9PwyMjaXh4d9pdrP/wA3emj19+Vbrk3X+R/uHr96VlS5aUf2+fisH8d++/ec+OJUmSJEnSXl0P5L9w21fSSDmQL8bxxX8DSw9MTw0Npv/zV1eloR1b08ju3eU/H/e1b3wnnf7Kc9LzjjsyrVs+kBYUA/cP/b8vpJ+55FfTExueKAb8w2nRQp7qj6SnNjySHi8G83d/9xvpIx+5PL33o19Pj24uBvILl6bv3Pf5as+SJEmSJCl0PZD/2l2fTZu396WliwfS4HNOSktWrkubnvx+GhsdSiOjI+WT9P6Fi9LWbbvTtdden45+4UvTAYsWpZvuui+9/ud/Pj2y/sH0v/70A8UeB1Jf36K0/oHvpf6BZempJx5ND9/3nbR768Z093duSr/9oX9Mn7nlybRjaEu1Z0mSJEmSFLoeyO/cvS1dd9uj6f71j6edO3alkZ3bi40XpL5i6u9flIaHdxUD9L60eMkB6Z577yu/hj+6Yk265B2/mc77yZ9Og2sPTt/81j+lRUtWFQP+hWl49460ZdOjadGiJWlkZGdKo8NpwejudNtNX0h/dNWfV3uVJEmSJEm5rgfyuOJrH0s3fXdj2r1tU/n1eL5Kj/5iAD+0e3caHh1J/YsWp6Of94J08EGDac2h69KrXvPatHnTpvTA3f+Stu4cTctXrE5PPflwGh3rSwuK7Xbu3MpP1qeFCxenxx+5Lw0tPyzd/8QNZbqSJEmSJOmZJjWQ37LjifSNDY8Wg/adaUH/gvIJ/GgxeB8rXpnn35rHHXd/Px1z4gvSK17xg+mhe76X7v/enemAJYvS41uG0wHLV6Wt2zanjRseTMuWr067dm1LixcvT1u2Ppk27xhK9yzwR+4kSZIkSepkUgN5PDL6zTRwwtlpdHi0GMj371nI38f3L0y7tm9Lw0O70lNbd6RtO3anFQeuTjuHUnr84fvT5772z+mAZQem3XylfsuT6YADVqUFfQvS2MjuNFAM5B9+8O40fOLhacfoY3vSlCRJkiRJzzLpgTw2rr0jDR32wrRgwcLya/H8W/IMyvnb9x3bt6St2zal+x98OG1lFD+yM214/Ml06z1PplWDB6ct27amnVs2poPWHJpGi0F8Gktp2UGHp4HTXpI2Lri92oMkSZIkSWoypYE8Hl9zaxo94SVpwaLl5Tz/hvzAosVpbHQkrV9/X/rsF25KD61/IG3Z8Ej6uxtuTwsXDRRj9rH05OMPpXWHH5fGRsbS0NBQWnzw89OGw5enJwf+uUxHkiRJkiR1NuWBPB5fekvaedqRafHhL00LFvSnvgULigH7kjQ6PJT+8fOfT/c/8HC68dt3pC07F6TRvv708MMPpIMPPjwN9A+kbUPDqe/o09OmE3eljX13VilKkiRJkqTx9A1ccNpY9X5alg0dnpZtOCCNPnJ72r39sTQ2NpoOHlyZ1h5ydDGQ70sL+xel7du3pRXrXpA2LOxLjy++I+3qe7LaemasXTWY1l92bTUnSZIkSVL79WwgnxtYsDYN9B2cFqbBNLBwWRoZ2552jz6RdoysT8NjW6q1Zp4DeUmSJEnSfDMjA/m5woG8JEmSJGm+mdbfyEuSJEmSpNnlQF6SJEmSpBZxIC9JkiRJUos4kJckSZIkqUUcyEuSJEmS1CIO5CVJkiRJahEH8pIkSZIktUZK/x85NDPIY09sMQAAAABJRU5ErkJggg==;" vertex="1" parent="1">
          <mxGeometry x="1036.91" y="770" width="326.52" height="212.39" as="geometry" />
        </mxCell>
        <mxCell id="wpAk8EDqyKbmDjkC3AnI-149" value="" style="edgeStyle=elbowEdgeStyle;elbow=horizontal;endArrow=classic;html=1;curved=0;rounded=0;endSize=8;startSize=8;exitX=1;exitY=0.355;exitDx=0;exitDy=0;exitPerimeter=0;entryX=0;entryY=0.5;entryDx=0;entryDy=0;" edge="1" parent="1" target="wpAk8EDqyKbmDjkC3AnI-143">
          <mxGeometry width="50" height="50" relative="1" as="geometry">
            <mxPoint x="762.75" y="450" as="sourcePoint" />
            <mxPoint x="942.75" y="270" as="targetPoint" />
          </mxGeometry>
        </mxCell>
        <mxCell id="wpAk8EDqyKbmDjkC3AnI-150" value="" style="endArrow=open;endFill=1;endSize=12;html=1;rounded=0;entryX=0.008;entryY=0.382;entryDx=0;entryDy=0;entryPerimeter=0;" edge="1" parent="1" target="wpAk8EDqyKbmDjkC3AnI-140">
          <mxGeometry width="160" relative="1" as="geometry">
            <mxPoint x="762.75" y="880" as="sourcePoint" />
            <mxPoint x="922.75" y="880" as="targetPoint" />
          </mxGeometry>
        </mxCell>
      </root>
    </mxGraphModel>
  </diagram>
</mxfile>
